<svg id="svg" version="1.1" xmlns="http://www.w3.org/2000/svg" xmlns:xlink="http://www.w3.org/1999/xlink" width="400" height="400" viewBox="0, 0, 400,400"><g id="svgg"><path id="path0" d="M15.400 0.289 C 14.740 0.384,14.029 0.628,13.820 0.831 C 13.611 1.034,13.116 1.200,12.720 1.200 C 12.324 1.200,12.000 1.336,12.000 1.502 C 12.000 1.669,11.415 2.063,10.700 2.378 C 9.016 3.120,3.120 9.016,2.378 10.700 C 2.063 11.415,1.669 12.000,1.502 12.000 C 1.336 12.000,1.200 12.324,1.200 12.720 C 1.200 13.116,0.975 13.665,0.700 13.940 C 0.310 14.330,0.175 21.931,0.087 48.620 L -0.026 82.800 200.000 82.800 L 400.026 82.800 399.913 48.620 C 399.825 21.931,399.690 14.330,399.300 13.940 C 399.025 13.665,398.800 13.116,398.800 12.720 C 398.800 12.324,398.664 12.000,398.498 12.000 C 398.331 12.000,397.937 11.415,397.622 10.700 C 396.880 9.016,390.984 3.120,389.300 2.378 C 388.585 2.063,388.000 1.669,388.000 1.502 C 388.000 1.336,387.676 1.200,387.280 1.200 C 386.884 1.200,386.335 0.975,386.060 0.700 C 385.578 0.218,18.728 -0.188,15.400 0.289 M110.305 41.291 L 110.410 55.182 109.505 55.403 C 109.007 55.524,102.840 55.573,95.800 55.512 L 83.000 55.400 82.895 41.803 C 82.837 34.324,82.877 27.977,82.984 27.697 C 83.137 27.298,86.059 27.212,96.689 27.295 L 110.200 27.400 110.305 41.291 M54.720 28.080 C 55.407 28.767,55.407 54.033,54.720 54.720 C 54.033 55.407,28.767 55.407,28.080 54.720 C 27.393 54.033,27.393 28.767,28.080 28.080 C 28.767 27.393,54.033 27.393,54.720 28.080 M34.800 186.000 L 34.800 254.400 106.374 254.400 C 152.273 254.400,178.319 254.541,178.982 254.793 C 179.550 255.009,184.406 259.599,189.773 264.993 C 195.140 270.387,199.742 274.800,200.000 274.800 C 200.258 274.800,204.860 270.387,210.227 264.993 C 215.594 259.599,220.450 255.009,221.018 254.793 C 221.681 254.541,247.727 254.400,293.626 254.400 L 365.200 254.400 365.200 186.000 L 365.200 117.600 200.000 117.600 L 34.800 117.600 34.800 186.000 M296.400 138.038 C 300.632 138.586,301.995 138.868,302.227 139.244 C 302.348 139.440,302.966 139.600,303.600 139.600 C 304.234 139.600,304.864 139.780,305.000 140.000 C 305.136 140.220,305.687 140.400,306.224 140.400 C 306.761 140.400,307.200 140.580,307.200 140.800 C 307.200 141.020,307.472 141.200,307.805 141.200 C 308.138 141.200,308.723 141.357,309.105 141.550 C 309.487 141.742,310.610 142.309,311.600 142.810 C 312.590 143.310,313.804 143.917,314.297 144.160 C 314.790 144.402,315.195 144.735,315.197 144.900 C 315.199 145.065,315.413 145.200,315.672 145.200 C 317.095 145.200,325.887 153.214,328.398 156.800 C 328.937 157.570,329.698 158.549,330.089 158.975 C 330.480 159.402,330.800 159.972,330.800 160.242 C 330.800 160.512,330.939 160.793,331.109 160.867 C 331.563 161.062,334.207 166.249,335.154 168.800 C 340.872 184.211,338.513 202.095,329.088 214.800 C 327.035 217.568,320.226 224.387,318.500 225.406 C 317.785 225.827,317.200 226.314,317.200 226.486 C 317.200 226.659,317.007 226.800,316.772 226.800 C 316.537 226.800,315.592 227.308,314.672 227.928 C 312.624 229.310,307.870 231.600,307.049 231.600 C 306.718 231.600,306.349 231.759,306.230 231.952 C 306.110 232.146,305.604 232.403,305.106 232.524 C 304.608 232.645,303.480 232.938,302.600 233.175 C 294.497 235.359,284.696 235.359,276.600 233.176 C 275.720 232.938,274.592 232.645,274.094 232.524 C 273.596 232.403,273.090 232.146,272.970 231.952 C 272.851 231.759,272.496 231.600,272.183 231.600 C 271.136 231.600,265.359 228.573,262.002 226.265 C 254.264 220.945,246.922 211.468,243.978 203.000 C 243.825 202.560,243.497 201.697,243.250 201.081 C 243.002 200.466,242.800 199.557,242.800 199.061 C 242.800 198.566,242.638 197.989,242.441 197.780 C 241.764 197.064,241.498 193.793,241.498 186.200 C 241.498 178.607,241.764 175.336,242.441 174.620 C 242.638 174.411,242.800 173.747,242.800 173.144 C 242.800 172.541,242.980 171.936,243.200 171.800 C 243.420 171.664,243.600 171.124,243.600 170.600 C 243.600 170.076,243.780 169.536,244.000 169.400 C 244.220 169.264,244.400 168.882,244.400 168.551 C 244.400 164.894,252.962 153.125,259.000 148.483 C 260.320 147.468,261.490 146.538,261.600 146.417 C 262.304 145.643,269.339 141.922,272.400 140.704 C 272.950 140.486,273.713 140.148,274.095 139.953 C 274.477 139.759,275.231 139.600,275.771 139.600 C 276.311 139.600,276.852 139.440,276.973 139.244 C 277.232 138.825,278.891 138.519,283.800 137.984 C 285.780 137.768,287.580 137.508,287.800 137.406 C 288.232 137.205,292.227 137.499,296.400 138.038 M167.664 151.666 C 174.128 153.603,174.438 162.768,168.129 165.404 C 165.555 166.479,68.192 166.283,65.883 165.197 C 60.401 162.620,60.473 154.465,66.000 152.022 C 68.186 151.056,164.501 150.719,167.664 151.666 M284.000 152.762 C 280.904 153.203,273.806 155.758,272.800 156.795 C 272.690 156.909,272.132 157.242,271.561 157.536 C 270.989 157.830,270.068 158.459,269.514 158.935 C 268.960 159.411,267.948 160.228,267.265 160.751 C 265.795 161.877,261.200 167.343,261.200 167.967 C 261.200 168.205,261.054 168.400,260.875 168.400 C 260.696 168.400,260.302 169.030,260.000 169.800 C 259.698 170.570,259.304 171.200,259.125 171.200 C 258.946 171.200,258.800 171.560,258.800 172.000 C 258.800 172.440,258.620 172.800,258.400 172.800 C 258.180 172.800,258.000 173.239,258.000 173.776 C 258.000 174.313,257.820 174.864,257.600 175.000 C 257.380 175.136,257.200 175.766,257.200 176.400 C 257.200 177.034,257.043 177.650,256.850 177.769 C 255.631 178.523,255.572 191.551,256.774 194.600 C 257.427 196.256,258.000 198.280,258.000 198.928 C 258.000 199.298,258.135 199.601,258.300 199.601 C 258.465 199.602,259.050 200.592,259.600 201.800 C 260.150 203.008,260.735 203.998,260.900 203.999 C 261.065 203.999,261.200 204.191,261.200 204.423 C 261.200 207.291,272.410 216.326,278.000 217.964 C 278.990 218.254,280.160 218.631,280.600 218.801 C 290.268 222.551,305.237 218.561,313.600 210.005 C 317.102 206.422,317.687 205.596,320.333 200.500 C 321.461 198.326,321.600 197.968,321.600 197.229 C 321.600 196.799,321.780 196.336,322.000 196.200 C 322.220 196.064,322.400 195.549,322.400 195.056 C 322.400 194.563,322.597 193.963,322.837 193.723 C 323.116 193.444,323.279 190.912,323.289 186.715 C 323.303 180.525,323.037 178.455,321.951 176.305 C 321.758 175.923,321.600 175.336,321.600 175.000 C 321.600 174.664,321.392 173.987,321.138 173.495 C 320.883 173.003,320.502 172.254,320.291 171.832 C 318.172 167.587,314.614 162.816,312.144 160.909 C 311.354 160.299,310.314 159.440,309.832 159.000 C 308.338 157.635,301.539 154.035,300.400 154.004 C 300.070 153.996,298.990 153.706,298.000 153.361 C 295.924 152.638,287.427 152.274,284.000 152.762 M188.154 179.292 C 191.442 180.274,193.200 182.678,193.200 186.189 C 193.200 187.845,193.064 189.200,192.898 189.200 C 192.731 189.200,192.369 189.711,192.093 190.335 C 191.817 190.959,191.098 191.724,190.495 192.034 C 189.893 192.345,189.272 192.779,189.115 192.999 C 188.792 193.452,73.789 193.823,68.882 193.388 C 60.694 192.660,59.000 182.225,66.618 179.436 C 68.791 178.640,185.510 178.502,188.154 179.292 M207.580 206.661 C 215.439 207.482,216.504 218.445,208.944 220.710 C 206.206 221.530,69.099 221.411,66.762 220.586 C 59.930 218.176,60.497 207.422,67.494 206.692 C 70.119 206.418,204.968 206.388,207.580 206.661 " stroke="none" fill="#567cae" fill-rule="evenodd"></path><path id="path1" d="M82.984 27.697 C 82.877 27.977,82.837 34.324,82.895 41.803 L 83.000 55.400 95.800 55.512 C 102.840 55.573,109.007 55.524,109.505 55.403 L 110.410 55.182 110.305 41.291 L 110.200 27.400 96.689 27.295 C 86.059 27.212,83.137 27.298,82.984 27.697 M28.080 28.080 C 27.393 28.767,27.393 54.033,28.080 54.720 C 28.767 55.407,54.033 55.407,54.720 54.720 C 55.407 54.033,55.407 28.767,54.720 28.080 C 54.033 27.393,28.767 27.393,28.080 28.080 M114.000 297.584 C 112.750 298.251,110.134 300.929,105.387 306.400 C 104.527 307.390,103.009 309.102,102.012 310.205 C 100.223 312.185,98.089 314.585,90.817 322.800 C 88.772 325.110,86.533 327.630,85.842 328.400 C 85.150 329.170,81.710 333.040,78.196 337.000 C 74.683 340.960,71.716 344.290,71.604 344.400 C 71.492 344.510,70.050 346.129,68.400 347.998 C 66.750 349.867,64.748 352.117,63.951 352.998 C 56.003 361.785,55.467 362.584,55.467 365.642 C 55.467 369.559,58.067 372.133,62.024 372.133 C 65.499 372.133,65.475 372.153,74.600 361.816 C 77.680 358.327,80.381 355.276,80.602 355.036 C 80.823 354.796,82.353 353.070,84.002 351.200 C 85.651 349.330,87.096 347.710,87.214 347.600 C 87.331 347.490,90.297 344.160,93.804 340.200 C 97.312 336.240,100.746 332.370,101.436 331.600 C 102.126 330.830,104.363 328.310,106.407 326.000 C 117.787 313.140,117.159 313.777,117.790 314.457 C 118.067 314.756,120.052 316.980,122.201 319.400 C 124.350 321.820,126.669 324.430,127.354 325.200 C 128.040 325.970,129.950 328.130,131.600 330.000 C 133.250 331.870,134.696 333.490,134.814 333.600 C 134.931 333.710,137.897 337.040,141.404 341.000 C 144.912 344.960,148.347 348.830,149.038 349.600 C 149.728 350.370,153.407 354.510,157.212 358.800 C 167.110 369.959,167.261 370.121,168.755 371.176 C 171.280 372.959,175.696 372.289,177.800 369.803 C 178.020 369.544,179.481 367.906,181.047 366.165 C 183.660 363.260,194.262 351.330,200.212 344.600 C 202.490 342.023,211.694 331.685,214.634 328.400 C 215.324 327.630,218.369 324.210,221.401 320.800 C 227.880 313.515,227.617 313.717,228.799 315.114 C 229.620 316.083,233.173 320.105,236.649 324.000 C 237.337 324.770,239.572 327.290,241.617 329.600 C 245.769 334.291,246.851 335.510,252.651 342.040 C 254.880 344.548,259.180 349.390,262.208 352.800 C 265.235 356.210,268.278 359.630,268.969 360.400 C 269.660 361.170,271.976 363.765,274.116 366.166 C 282.171 375.206,283.472 374.982,294.475 362.661 C 298.238 358.447,301.879 354.370,302.568 353.600 C 306.642 349.041,314.872 339.793,316.983 337.400 C 328.786 324.024,330.276 322.419,330.900 322.406 C 331.065 322.403,331.200 326.290,331.200 331.046 C 331.200 339.226,331.248 339.776,332.085 341.265 C 334.560 345.669,340.618 345.783,343.684 341.484 L 344.600 340.200 344.600 320.800 L 344.600 301.400 343.687 299.932 C 341.679 296.703,342.392 296.800,320.732 296.800 C 301.893 296.800,301.479 296.817,300.002 297.647 C 295.680 300.076,295.732 306.773,300.094 309.410 C 301.288 310.132,302.285 310.211,311.700 310.330 C 317.365 310.401,322.000 310.581,322.000 310.730 C 321.999 310.942,309.762 324.869,302.257 333.200 C 301.236 334.334,293.848 342.645,286.968 350.400 C 286.285 351.170,285.068 352.520,284.265 353.400 L 282.805 355.000 281.102 353.191 C 280.166 352.196,278.213 350.036,276.762 348.391 C 273.673 344.887,254.087 322.847,252.245 320.800 C 251.552 320.030,248.110 316.160,244.596 312.200 C 241.083 308.240,238.116 304.910,238.004 304.800 C 237.892 304.690,236.482 303.122,234.871 301.315 C 229.263 295.025,225.940 295.022,220.319 301.300 C 218.714 303.094,216.410 305.658,215.200 307.000 C 213.223 309.191,202.092 321.688,200.267 323.765 C 196.778 327.735,184.945 341.072,183.200 343.000 C 181.990 344.337,179.740 346.861,178.200 348.610 C 176.660 350.358,174.729 352.512,173.909 353.395 L 172.419 355.000 171.109 353.599 C 170.389 352.829,168.450 350.669,166.800 348.799 C 165.150 346.930,163.708 345.310,163.596 345.200 C 163.484 345.090,160.517 341.760,157.004 337.800 C 153.490 333.840,150.050 329.970,149.358 329.200 C 148.667 328.430,146.502 326.000,144.548 323.800 C 127.364 304.451,121.373 297.903,120.388 297.394 C 118.817 296.582,115.702 296.674,114.000 297.584 " stroke="none" fill="#dfb726" fill-rule="evenodd"></path><path id="path2" d="M0.097 234.667 C 0.179 355.411,0.301 386.167,0.700 386.300 C 0.975 386.392,1.200 386.822,1.200 387.257 C 1.200 387.692,1.380 387.936,1.600 387.800 C 1.948 387.585,2.190 388.396,2.047 389.300 C 2.021 389.465,2.180 389.600,2.400 389.600 C 2.620 389.600,2.800 389.793,2.800 390.029 C 2.800 390.588,9.412 397.200,9.971 397.200 C 10.207 397.200,10.400 397.380,10.400 397.600 C 10.400 397.820,10.535 397.979,10.700 397.953 C 11.604 397.810,12.415 398.052,12.200 398.400 C 12.064 398.620,12.308 398.800,12.743 398.800 C 13.178 398.800,13.608 399.025,13.700 399.300 C 13.833 399.699,51.449 399.800,200.000 399.800 C 348.551 399.800,386.167 399.699,386.300 399.300 C 386.392 399.025,386.822 398.800,387.257 398.800 C 387.692 398.800,387.936 398.620,387.800 398.400 C 387.585 398.052,388.396 397.810,389.300 397.953 C 389.465 397.979,389.600 397.820,389.600 397.600 C 389.600 397.380,389.793 397.200,390.029 397.200 C 390.588 397.200,397.200 390.588,397.200 390.029 C 397.200 389.793,397.380 389.600,397.600 389.600 C 397.820 389.600,397.979 389.465,397.953 389.300 C 397.810 388.396,398.052 387.585,398.400 387.800 C 398.620 387.936,398.800 387.692,398.800 387.257 C 398.800 386.822,399.025 386.392,399.300 386.300 C 399.699 386.167,399.821 355.411,399.903 234.667 L 400.006 83.200 200.000 83.200 L -0.006 83.200 0.097 234.667 M365.520 117.280 C 366.028 117.788,366.252 252.818,365.748 254.700 L 365.507 255.600 293.056 255.600 L 220.606 255.600 210.303 265.897 L 200.000 276.194 189.697 265.897 L 179.394 255.600 106.944 255.600 L 34.493 255.600 34.252 254.700 C 33.748 252.818,33.972 117.788,34.480 117.280 C 35.180 116.580,364.820 116.580,365.520 117.280 M281.200 138.858 C 257.566 144.012,241.600 163.099,241.600 186.200 C 241.600 216.943,271.800 240.769,300.800 232.907 C 302.010 232.579,303.497 232.220,304.105 232.109 C 304.713 231.998,305.308 231.749,305.429 231.554 C 305.549 231.359,305.929 231.200,306.272 231.200 C 309.027 231.200,318.694 224.935,323.833 219.819 C 348.117 195.645,338.498 152.265,306.400 141.202 C 305.630 140.936,304.640 140.571,304.200 140.390 C 303.760 140.209,302.860 139.947,302.200 139.809 C 301.540 139.670,300.190 139.368,299.200 139.136 C 296.784 138.571,283.458 138.365,281.200 138.858 M294.600 152.015 C 297.221 152.388,303.308 154.151,304.200 154.796 C 304.420 154.955,305.680 155.669,307.000 156.383 C 313.503 159.902,320.208 168.011,322.228 174.800 C 322.588 176.010,323.028 177.450,323.206 178.000 C 325.373 184.697,324.063 195.120,320.140 202.397 C 317.244 207.770,312.283 213.075,307.782 215.614 C 304.663 217.374,301.691 218.800,301.145 218.800 C 300.839 218.800,299.601 219.175,298.394 219.633 C 294.444 221.132,284.151 220.850,279.165 219.106 C 269.596 215.759,263.182 210.118,258.351 200.800 C 254.856 194.058,254.227 183.707,256.817 175.565 C 261.851 159.737,278.028 149.654,294.600 152.015 M67.071 152.286 C 60.576 153.282,61.274 163.572,67.941 165.111 C 70.875 165.788,163.538 165.820,166.323 165.145 C 172.332 163.688,174.078 156.941,169.374 153.353 L 167.862 152.200 118.031 152.156 C 90.624 152.132,67.692 152.190,67.071 152.286 M66.868 179.886 C 63.101 180.604,61.204 186.635,63.660 190.085 C 65.754 193.025,60.462 192.801,127.684 192.793 L 187.800 192.787 189.392 191.885 C 193.941 189.309,193.746 182.499,189.062 180.372 C 187.491 179.659,70.502 179.194,66.868 179.886 M65.932 208.011 C 61.600 210.299,61.286 216.410,65.353 219.310 L 66.600 220.200 137.365 220.304 C 207.379 220.408,208.147 220.400,209.765 219.610 C 214.586 217.257,214.691 210.917,209.958 208.031 L 208.600 207.203 138.000 207.219 C 68.936 207.235,67.368 207.252,65.932 208.011 M120.779 297.450 C 121.413 297.766,124.597 301.034,127.856 304.712 C 131.115 308.390,133.875 311.490,133.990 311.600 C 134.106 311.710,135.550 313.330,137.200 315.200 C 138.850 317.070,140.762 319.230,141.450 320.000 C 142.137 320.770,145.175 324.190,148.200 327.600 C 151.225 331.010,154.263 334.430,154.950 335.200 C 155.638 335.970,157.550 338.130,159.200 340.000 C 160.850 341.870,162.290 343.490,162.400 343.600 C 162.811 344.011,166.693 348.322,169.341 351.309 C 171.746 354.020,173.190 355.064,173.204 354.100 C 173.207 353.935,173.882 353.080,174.704 352.199 C 175.527 351.318,176.906 349.788,177.769 348.799 C 178.633 347.810,180.631 345.560,182.210 343.800 C 183.790 342.040,186.754 338.710,188.798 336.400 C 190.843 334.090,193.724 330.850,195.201 329.200 C 196.679 327.550,200.111 323.680,202.828 320.600 C 205.545 317.520,207.865 314.910,207.984 314.800 C 208.103 314.690,209.549 313.070,211.198 311.200 C 212.847 309.330,214.377 307.603,214.598 307.361 C 214.819 307.120,216.794 304.899,218.987 302.427 C 225.629 294.937,229.291 294.531,234.639 300.692 C 235.931 302.182,237.081 303.490,237.194 303.600 C 237.489 303.887,240.568 307.334,243.636 310.812 C 248.946 316.833,253.780 322.277,256.589 325.400 C 258.171 327.160,261.139 330.490,263.184 332.800 C 265.228 335.110,267.463 337.630,268.151 338.400 C 268.838 339.170,270.750 341.326,272.400 343.192 C 274.050 345.058,276.141 347.398,277.047 348.392 C 277.953 349.386,279.483 351.132,280.447 352.271 C 282.706 354.938,282.581 354.964,286.037 351.100 C 287.661 349.285,289.081 347.710,289.194 347.600 C 289.308 347.490,290.750 345.870,292.400 344.000 C 294.050 342.130,295.962 339.970,296.649 339.200 C 297.337 338.430,299.569 335.910,301.610 333.600 C 303.651 331.290,306.150 328.500,307.163 327.400 C 308.176 326.300,310.894 323.240,313.202 320.600 C 318.096 315.004,317.724 315.423,319.900 313.078 C 322.466 310.315,322.734 310.400,311.500 310.399 C 302.262 310.397,301.293 310.332,300.146 309.633 C 295.515 306.808,295.297 300.668,299.716 297.516 L 301.000 296.600 320.600 296.600 L 340.200 296.600 341.681 297.600 C 342.496 298.150,343.576 299.320,344.081 300.200 L 345.000 301.800 345.000 320.800 L 345.000 339.800 344.059 341.313 C 341.214 345.889,335.459 346.107,332.146 341.766 L 331.000 340.263 330.861 331.532 C 330.714 322.319,330.681 322.166,329.213 323.900 C 328.375 324.890,323.199 330.750,322.202 331.838 C 321.730 332.353,318.033 336.515,312.820 342.400 C 310.773 344.710,308.537 347.230,307.849 348.000 C 307.162 348.770,305.250 350.930,303.600 352.800 C 301.950 354.670,300.510 356.290,300.400 356.400 C 300.154 356.646,294.318 363.204,292.400 365.390 C 283.682 375.326,281.689 375.183,271.800 363.921 C 268.720 360.414,265.750 357.056,265.200 356.460 C 264.650 355.864,263.030 354.032,261.600 352.388 C 260.171 350.745,258.910 349.310,258.799 349.200 C 258.687 349.090,257.157 347.380,255.398 345.400 C 253.639 343.420,252.110 341.710,252.000 341.600 C 251.890 341.490,250.450 339.871,248.800 338.002 C 247.150 336.133,245.620 334.406,245.400 334.164 C 245.180 333.922,243.740 332.303,242.200 330.568 C 239.787 327.848,236.160 323.776,231.362 318.400 C 230.675 317.630,229.555 316.370,228.874 315.600 L 227.636 314.200 226.118 315.817 C 225.283 316.707,223.896 318.237,223.036 319.217 C 222.176 320.198,220.353 322.260,218.985 323.800 C 217.617 325.340,214.828 328.490,212.788 330.800 C 210.748 333.110,208.341 335.814,207.439 336.808 C 206.538 337.802,204.452 340.142,202.806 342.008 C 201.159 343.874,199.719 345.490,199.606 345.600 C 199.492 345.710,198.698 346.610,197.841 347.600 C 196.983 348.590,195.452 350.300,194.438 351.400 C 193.425 352.500,191.428 354.750,190.001 356.400 C 188.574 358.050,187.135 359.670,186.803 360.000 C 186.471 360.330,184.952 362.040,183.428 363.800 C 173.556 375.195,171.460 375.314,162.400 364.995 C 159.878 362.122,150.647 351.708,143.436 343.600 C 142.752 342.830,140.033 339.770,137.396 336.800 C 134.758 333.831,132.420 331.201,132.200 330.956 C 130.109 328.631,128.556 326.888,126.000 323.995 C 124.350 322.128,122.907 320.510,122.792 320.400 C 122.678 320.290,121.437 318.895,120.034 317.300 C 116.893 313.728,117.883 313.376,111.831 320.219 C 109.001 323.419,106.216 326.546,105.643 327.167 C 105.069 327.788,104.148 328.815,103.597 329.448 C 101.187 332.214,96.019 338.054,93.373 341.000 C 89.837 344.939,77.608 358.723,74.034 362.800 C 68.656 368.933,65.525 371.787,63.644 372.269 C 57.828 373.759,52.942 367.069,56.102 361.943 C 56.949 360.569,59.639 357.404,64.213 352.402 C 65.320 351.191,66.922 349.390,67.772 348.400 C 68.623 347.410,70.148 345.700,71.162 344.600 C 72.176 343.500,74.894 340.440,77.202 337.800 C 79.510 335.160,81.495 332.910,81.612 332.800 C 81.819 332.607,85.573 328.400,91.400 321.832 C 92.940 320.097,94.381 318.479,94.602 318.238 C 94.823 317.997,96.353 316.274,98.002 314.410 C 99.651 312.545,101.183 310.819,101.408 310.573 C 101.632 310.328,104.193 307.442,107.098 304.160 C 114.021 296.340,116.307 295.219,120.779 297.450 " stroke="none" fill="#edf4f4" fill-rule="evenodd"></path><path id="path3" d="M34.585 117.700 C 34.480 117.975,34.441 148.980,34.497 186.600 L 34.600 255.000 106.998 255.101 L 179.397 255.202 189.698 265.498 L 200.000 275.794 210.302 265.498 L 220.603 255.202 293.002 255.101 L 365.400 255.000 365.400 186.200 L 365.400 117.400 200.088 117.300 C 68.047 117.219,34.737 117.300,34.585 117.700 M365.200 186.000 L 365.200 254.400 293.626 254.400 C 247.727 254.400,221.681 254.541,221.018 254.793 C 220.450 255.009,215.594 259.599,210.227 264.993 C 204.860 270.387,200.258 274.800,200.000 274.800 C 199.742 274.800,195.140 270.387,189.773 264.993 C 184.406 259.599,179.550 255.009,178.982 254.793 C 178.319 254.541,152.273 254.400,106.374 254.400 L 34.800 254.400 34.800 186.000 L 34.800 117.600 200.000 117.600 L 365.200 117.600 365.200 186.000 M286.600 137.600 C 285.545 137.789,286.636 137.888,289.800 137.890 C 293.527 137.892,294.153 137.824,292.600 137.582 C 290.216 137.210,288.752 137.215,286.600 137.600 M280.000 138.416 C 279.582 138.697,280.067 138.739,281.600 138.555 C 282.810 138.410,283.875 138.226,283.967 138.146 C 284.370 137.793,280.538 138.054,280.000 138.416 M295.233 138.146 C 295.325 138.226,296.390 138.410,297.600 138.555 C 299.133 138.739,299.618 138.697,299.200 138.416 C 298.662 138.054,294.830 137.793,295.233 138.146 M276.990 139.216 C 276.821 139.489,277.123 139.538,277.866 139.360 C 279.399 138.992,279.544 138.800,278.290 138.800 C 277.717 138.800,277.132 138.987,276.990 139.216 M300.033 138.944 C 300.505 139.350,302.443 139.593,302.210 139.216 C 302.068 138.987,301.483 138.800,300.910 138.800 C 300.336 138.800,299.942 138.865,300.033 138.944 M274.200 140.000 C 273.908 140.473,274.299 140.473,275.400 140.000 C 276.171 139.669,276.169 139.655,275.324 139.628 C 274.842 139.613,274.336 139.780,274.200 140.000 M303.800 140.000 C 304.901 140.473,305.292 140.473,305.000 140.000 C 304.864 139.780,304.358 139.613,303.876 139.628 C 303.031 139.655,303.029 139.669,303.800 140.000 M311.600 142.990 C 311.600 143.094,312.185 143.465,312.900 143.814 L 314.200 144.448 313.200 143.633 C 312.237 142.848,311.600 142.592,311.600 142.990 M264.800 144.433 L 263.800 145.248 265.100 144.614 C 265.815 144.265,266.400 143.894,266.400 143.790 C 266.400 143.392,265.763 143.648,264.800 144.433 M262.500 145.688 C 262.005 145.927,261.600 146.279,261.600 146.470 C 261.600 146.662,262.050 146.524,262.600 146.163 C 264.067 145.202,264.016 144.957,262.500 145.688 M315.633 145.362 C 315.725 145.451,316.970 146.380,318.400 147.425 C 319.830 148.470,321.096 149.432,321.212 149.562 C 321.329 149.693,322.499 150.790,323.812 152.000 L 326.200 154.200 324.000 151.875 C 321.816 149.566,316.456 145.200,315.806 145.200 C 315.619 145.200,315.542 145.273,315.633 145.362 M259.200 148.246 C 254.689 151.767,246.061 162.194,246.935 163.068 C 247.042 163.175,247.630 162.394,248.242 161.331 C 250.612 157.214,254.698 152.499,259.200 148.684 C 261.783 146.495,261.783 146.230,259.200 148.246 M66.038 152.017 C 64.333 152.791,63.653 153.395,62.763 154.930 C 62.530 155.332,63.061 154.939,63.944 154.056 C 66.503 151.497,64.158 151.604,117.600 151.611 C 172.449 151.618,168.532 151.410,170.927 154.450 C 171.512 155.192,171.993 155.593,171.996 155.340 C 172.004 154.475,169.269 152.147,167.687 151.673 C 164.492 150.716,68.188 151.042,66.038 152.017 M288.100 152.291 C 288.925 152.378,290.275 152.378,291.100 152.291 C 291.925 152.205,291.250 152.134,289.600 152.134 C 287.950 152.134,287.275 152.205,288.100 152.291 M282.046 152.763 C 281.705 152.979,282.242 153.041,283.446 152.924 C 286.155 152.660,286.533 152.468,284.400 152.438 C 283.410 152.424,282.351 152.570,282.046 152.763 M293.633 152.544 C 293.725 152.623,294.790 152.799,296.000 152.934 C 297.470 153.098,298.001 153.052,297.600 152.796 C 297.056 152.448,293.242 152.206,293.633 152.544 M279.200 153.600 C 278.667 153.945,278.667 153.988,279.200 153.988 C 279.530 153.988,280.070 153.813,280.400 153.600 C 280.933 153.255,280.933 153.212,280.400 153.212 C 280.070 153.212,279.530 153.387,279.200 153.600 M298.800 153.600 C 299.130 153.813,299.670 153.988,300.000 153.988 C 300.533 153.988,300.533 153.945,300.000 153.600 C 299.670 153.387,299.130 153.212,298.800 153.212 C 298.267 153.212,298.267 153.255,298.800 153.600 M276.800 154.400 C 276.267 154.745,276.267 154.788,276.800 154.788 C 277.130 154.788,277.670 154.613,278.000 154.400 C 278.533 154.055,278.533 154.012,278.000 154.012 C 277.670 154.012,277.130 154.187,276.800 154.400 M327.465 156.200 C 329.229 158.310,329.636 158.543,328.340 156.700 C 327.262 155.166,326.552 154.400,326.209 154.400 C 326.072 154.400,326.637 155.210,327.465 156.200 M172.200 158.600 C 172.200 159.988,172.332 160.916,172.494 160.662 C 172.656 160.408,172.788 159.480,172.788 158.600 C 172.788 157.720,172.656 156.792,172.494 156.538 C 172.332 156.284,172.200 157.212,172.200 158.600 M61.843 157.033 C 61.521 157.871,61.581 159.608,61.966 160.593 C 62.160 161.089,62.263 160.453,62.242 158.893 C 62.204 156.160,62.195 156.115,61.843 157.033 M307.200 157.167 C 308.163 157.952,308.800 158.208,308.800 157.810 C 308.800 157.706,308.215 157.335,307.500 156.986 L 306.200 156.352 307.200 157.167 M269.151 158.846 C 267.606 160.298,267.820 160.328,269.587 158.908 C 269.924 158.637,270.560 158.147,271.000 157.820 C 271.440 157.493,271.598 157.220,271.351 157.213 C 271.105 157.206,270.115 157.941,269.151 158.846 M309.200 158.273 C 309.200 158.459,309.687 158.968,310.281 159.405 C 313.525 161.790,316.930 165.674,318.896 169.232 C 320.624 172.359,320.735 172.579,320.980 173.357 C 321.111 173.774,321.327 174.006,321.460 173.873 C 321.686 173.647,320.839 171.839,318.791 168.177 C 317.063 165.087,309.200 156.968,309.200 158.273 M330.650 160.700 C 331.461 161.965,332.821 164.440,333.673 166.200 C 334.525 167.960,335.106 168.950,334.965 168.400 C 334.711 167.411,331.642 161.187,331.218 160.800 C 331.097 160.690,330.744 160.105,330.432 159.500 C 330.120 158.895,329.710 158.400,329.520 158.400 C 329.331 158.400,329.839 159.435,330.650 160.700 M265.528 161.907 C 262.301 165.300,260.043 168.400,260.800 168.400 C 261.020 168.400,261.200 168.201,261.200 167.959 C 261.200 167.400,266.250 161.321,266.909 161.085 C 267.179 160.988,267.298 160.798,267.174 160.662 C 267.050 160.526,266.309 161.086,265.528 161.907 M62.735 162.200 C 63.407 163.544,64.762 164.774,66.266 165.402 C 68.446 166.313,165.973 166.305,168.154 165.393 C 169.669 164.761,172.003 162.602,171.996 161.841 C 171.993 161.598,171.512 162.008,170.927 162.750 C 168.531 165.792,172.500 165.582,117.200 165.582 C 61.902 165.582,65.917 165.794,63.436 162.750 C 62.830 162.008,62.515 161.760,62.735 162.200 M245.018 166.618 C 244.672 167.446,244.471 168.205,244.571 168.305 C 244.671 168.405,245.036 167.809,245.382 166.982 C 245.728 166.154,245.929 165.395,245.829 165.295 C 245.729 165.195,245.364 165.791,245.018 166.618 M335.212 170.000 C 335.212 170.330,335.387 170.870,335.600 171.200 C 335.945 171.733,335.988 171.733,335.988 171.200 C 335.988 170.870,335.813 170.330,335.600 170.000 C 335.255 169.467,335.212 169.467,335.212 170.000 M336.034 172.600 C 336.022 173.040,336.187 173.670,336.400 174.000 C 336.914 174.795,336.914 173.796,336.400 172.600 L 336.056 171.800 336.034 172.600 M242.267 174.667 C 242.120 174.813,242.011 175.308,242.025 175.767 C 242.049 176.533,242.082 176.523,242.434 175.642 C 242.826 174.663,242.744 174.189,242.267 174.667 M321.628 175.076 C 321.613 175.558,321.780 176.064,322.000 176.200 C 322.473 176.492,322.473 176.101,322.000 175.000 C 321.669 174.229,321.655 174.231,321.628 175.076 M336.868 175.800 C 336.874 176.240,337.024 177.050,337.200 177.600 L 337.520 178.600 337.532 177.600 C 337.538 177.050,337.389 176.240,337.200 175.800 L 336.856 175.000 336.868 175.800 M322.406 177.433 C 322.409 177.855,322.595 178.470,322.818 178.800 C 323.115 179.238,323.152 179.076,322.956 178.200 C 322.627 176.729,322.398 176.410,322.406 177.433 M241.449 178.615 C 241.312 178.973,241.222 180.106,241.249 181.133 L 241.298 183.000 241.643 180.628 C 241.991 178.241,241.912 177.411,241.449 178.615 M67.515 179.128 C 67.138 179.278,94.176 179.400,127.600 179.400 C 161.024 179.400,188.062 179.278,187.685 179.128 C 187.308 178.979,160.270 178.856,127.600 178.856 C 94.930 178.856,67.892 178.979,67.515 179.128 M255.847 180.537 C 255.678 181.602,255.632 182.565,255.744 182.678 C 256.036 182.969,256.505 180.224,256.314 179.340 C 256.227 178.933,256.016 179.471,255.847 180.537 M64.422 180.643 C 63.740 181.217,62.994 182.072,62.764 182.543 C 62.424 183.241,62.495 183.215,63.149 182.401 C 63.591 181.852,64.458 180.998,65.076 180.503 C 65.694 180.009,66.079 179.603,65.931 179.602 C 65.783 179.601,65.104 180.069,64.422 180.643 M337.800 186.200 C 337.800 189.594,337.922 192.062,338.072 191.685 C 338.221 191.308,338.344 188.840,338.344 186.200 C 338.344 183.560,338.221 181.092,338.072 180.715 C 337.922 180.338,337.800 182.806,337.800 186.200 M191.351 181.612 C 191.906 182.389,192.538 183.469,192.755 184.012 C 193.110 184.901,193.152 184.917,193.175 184.167 C 193.189 183.708,192.557 182.628,191.771 181.767 C 190.367 180.228,190.360 180.225,191.351 181.612 M323.361 186.200 C 323.363 191.768,323.389 191.980,323.725 189.144 C 323.941 187.318,323.939 184.904,323.722 183.144 C 323.389 180.451,323.358 180.712,323.361 186.200 M61.843 184.633 C 61.507 185.509,61.549 187.301,61.920 187.885 C 62.090 188.152,62.229 187.387,62.229 186.185 C 62.229 183.800,62.202 183.695,61.843 184.633 M190.889 191.027 C 190.167 191.782,189.738 192.400,189.934 192.400 C 190.392 192.400,192.400 190.401,192.400 189.945 C 192.400 189.461,192.355 189.493,190.889 191.027 M241.206 191.433 C 241.209 192.515,241.391 193.670,241.609 194.000 C 241.880 194.411,241.924 193.843,241.747 192.200 C 241.423 189.191,241.198 188.872,241.206 191.433 M255.675 190.400 C 255.686 190.950,255.832 191.940,256.000 192.600 L 256.305 193.800 256.325 192.400 C 256.335 191.630,256.189 190.640,256.000 190.200 C 255.688 189.474,255.658 189.493,255.675 190.400 M64.743 191.900 C 65.508 192.615,66.508 193.193,66.967 193.184 C 67.578 193.173,67.427 193.007,66.403 192.563 C 65.634 192.230,64.634 191.652,64.180 191.278 C 63.725 190.905,63.979 191.185,64.743 191.900 M98.100 193.500 C 114.325 193.558,140.875 193.558,157.100 193.500 C 173.325 193.442,160.050 193.395,127.600 193.395 C 95.150 193.395,81.875 193.442,98.100 193.500 M337.022 195.422 C 336.872 196.225,336.838 196.972,336.948 197.082 C 337.058 197.192,337.272 196.625,337.422 195.822 C 337.573 195.019,337.606 194.273,337.496 194.163 C 337.386 194.053,337.173 194.619,337.022 195.422 M242.028 196.676 C 242.013 197.158,242.180 197.664,242.400 197.800 C 242.873 198.092,242.873 197.701,242.400 196.600 C 242.069 195.829,242.055 195.831,242.028 196.676 M321.867 196.267 C 321.720 196.413,321.611 196.908,321.625 197.367 C 321.649 198.133,321.682 198.123,322.034 197.242 C 322.426 196.263,322.344 195.789,321.867 196.267 M257.212 197.200 C 257.212 197.530,257.387 198.070,257.600 198.400 C 257.945 198.933,257.988 198.933,257.988 198.400 C 257.988 198.070,257.813 197.530,257.600 197.200 C 257.255 196.667,257.212 196.667,257.212 197.200 M336.229 199.029 C 336.081 199.615,336.038 200.172,336.132 200.266 C 336.227 200.360,336.424 199.958,336.571 199.371 C 336.719 198.785,336.762 198.228,336.668 198.134 C 336.573 198.040,336.376 198.442,336.229 199.029 M242.812 199.600 C 242.812 199.930,242.987 200.470,243.200 200.800 C 243.545 201.333,243.588 201.333,243.588 200.800 C 243.588 200.470,243.413 199.930,243.200 199.600 C 242.855 199.067,242.812 199.067,242.812 199.600 M258.619 200.837 C 258.971 201.518,259.334 202.000,259.425 201.908 C 259.669 201.665,258.655 199.607,258.290 199.603 C 258.119 199.601,258.267 200.157,258.619 200.837 M320.263 200.700 C 320.162 200.865,319.498 202.061,318.788 203.357 C 317.345 205.988,316.726 206.791,313.702 209.947 C 311.350 212.403,311.079 213.008,313.204 211.063 C 316.021 208.484,321.664 200.400,320.648 200.400 C 320.537 200.400,320.365 200.535,320.263 200.700 M335.400 201.600 C 335.250 202.073,335.217 202.550,335.327 202.660 C 335.437 202.770,335.650 202.473,335.800 202.000 C 335.950 201.527,335.983 201.050,335.873 200.940 C 335.763 200.830,335.550 201.127,335.400 201.600 M333.605 206.247 C 331.723 210.464,328.198 215.684,324.551 219.653 L 321.475 223.000 324.449 220.000 C 327.588 216.833,330.123 213.654,331.627 211.000 C 332.896 208.760,334.636 205.171,334.972 204.100 C 335.526 202.334,334.944 203.248,333.605 206.247 M260.758 204.700 C 260.970 205.085,261.717 206.030,262.417 206.800 L 263.690 208.200 262.626 206.800 C 262.042 206.030,261.460 205.085,261.335 204.700 C 261.209 204.315,260.941 204.000,260.739 204.000 C 260.523 204.000,260.531 204.288,260.758 204.700 M103.332 206.700 C 122.434 206.757,153.574 206.757,172.532 206.700 C 191.489 206.643,175.860 206.596,137.800 206.596 C 99.740 206.596,84.229 206.643,103.332 206.700 M64.743 208.100 C 63.979 208.815,63.725 209.095,64.180 208.722 C 64.634 208.348,65.634 207.770,66.403 207.437 C 67.427 206.993,67.578 206.827,66.967 206.816 C 66.508 206.807,65.508 207.385,64.743 208.100 M208.926 207.207 C 209.545 207.392,210.310 207.759,210.626 208.021 C 210.942 208.283,211.200 208.361,211.200 208.193 C 211.200 207.613,209.796 206.826,208.800 206.847 C 207.824 206.868,207.827 206.877,208.926 207.207 M212.322 209.400 C 213.345 210.959,214.029 213.481,213.780 214.776 C 213.588 215.774,213.595 215.778,214.047 214.913 C 214.661 213.739,213.902 210.959,212.533 209.364 L 211.534 208.200 212.322 209.400 M264.000 208.693 C 264.000 208.886,264.673 209.663,265.496 210.422 C 266.788 211.612,266.856 211.638,265.996 210.618 C 264.346 208.661,264.000 208.327,264.000 208.693 M247.816 211.100 C 250.171 215.198,254.201 219.971,257.800 222.925 C 259.058 223.957,258.538 223.310,256.400 221.181 C 252.813 217.609,250.105 214.250,248.272 211.100 C 247.664 210.055,247.067 209.200,246.945 209.200 C 246.823 209.200,247.215 210.055,247.816 211.100 M61.843 212.233 C 61.507 213.109,61.549 214.901,61.920 215.485 C 62.090 215.752,62.229 214.987,62.229 213.785 C 62.229 211.400,62.202 211.295,61.843 212.233 M267.202 211.873 C 267.211 213.299,279.789 219.944,280.719 219.014 C 280.826 218.907,280.664 218.746,280.357 218.657 C 276.898 217.649,276.006 217.332,274.800 216.679 C 272.055 215.193,270.577 214.247,268.900 212.906 C 267.965 212.158,267.201 211.693,267.202 211.873 M309.600 213.551 C 306.642 215.927,301.257 218.266,295.800 219.543 C 294.588 219.826,294.451 219.927,295.235 219.959 C 298.144 220.075,308.224 215.716,310.397 213.403 C 311.622 212.099,311.343 212.151,309.600 213.551 M212.890 217.142 C 212.612 217.769,211.715 218.759,210.897 219.342 C 210.079 219.924,209.632 220.400,209.905 220.400 C 210.606 220.400,213.600 217.321,213.600 216.600 C 213.600 215.743,213.463 215.848,212.890 217.142 M62.728 217.400 C 63.163 218.273,64.649 219.709,65.600 220.175 C 65.930 220.337,65.751 220.105,65.201 219.659 C 64.652 219.213,63.781 218.342,63.266 217.724 C 62.731 217.083,62.500 216.944,62.728 217.400 M282.000 219.600 C 282.550 219.776,283.450 219.920,284.000 219.920 L 285.000 219.920 284.000 219.600 C 283.450 219.424,282.550 219.280,282.000 219.280 L 281.000 219.280 282.000 219.600 M287.715 220.296 C 288.988 220.376,290.968 220.375,292.115 220.294 C 293.262 220.214,292.220 220.149,289.800 220.150 C 287.380 220.151,286.442 220.216,287.715 220.296 M67.515 220.872 C 67.892 221.021,99.610 221.144,138.000 221.144 C 176.390 221.144,208.108 221.021,208.485 220.872 C 208.862 220.722,177.144 220.600,138.000 220.600 C 98.856 220.600,67.138 220.722,67.515 220.872 M318.699 224.723 C 317.433 225.717,316.498 226.631,316.620 226.754 C 316.743 226.876,316.969 226.793,317.122 226.569 C 317.275 226.345,318.030 225.726,318.800 225.194 C 320.424 224.071,321.358 223.214,321.148 223.039 C 321.066 222.972,319.964 223.730,318.699 224.723 M260.008 224.712 C 260.018 225.057,265.215 228.518,265.419 228.315 C 265.496 228.237,264.309 227.329,262.780 226.298 C 261.251 225.267,260.004 224.553,260.008 224.712 M311.286 229.249 C 306.196 231.900,305.936 232.458,310.939 229.994 C 313.606 228.680,316.812 226.694,316.000 226.858 C 315.890 226.881,313.769 227.957,311.286 229.249 M266.714 229.079 C 267.496 229.697,268.979 230.387,273.000 232.005 C 275.450 232.992,278.839 233.847,281.400 234.125 L 283.400 234.343 281.600 233.946 C 276.635 232.853,271.578 231.192,268.272 229.570 C 266.912 228.903,266.211 228.682,266.714 229.079 M305.000 232.063 C 300.234 233.630,297.490 234.056,290.200 234.364 L 283.400 234.652 289.200 234.726 C 294.733 234.796,297.978 234.421,302.600 233.175 C 303.480 232.938,304.608 232.645,305.106 232.524 C 305.604 232.403,306.110 232.146,306.230 231.952 C 306.349 231.759,306.392 231.615,306.324 231.634 C 306.256 231.653,305.660 231.846,305.000 232.063 " stroke="none" fill="#85acd4" fill-rule="evenodd"></path><path id="path4" d="M99.900 83.100 C 154.955 83.156,245.045 83.156,300.100 83.100 C 355.155 83.044,310.110 82.998,200.000 82.998 C 89.890 82.998,44.845 83.044,99.900 83.100 M34.480 117.280 C 34.110 117.650,34.022 133.388,34.098 186.180 L 34.197 254.600 34.398 186.000 L 34.600 117.400 200.000 117.400 L 365.400 117.400 365.602 186.000 L 365.803 254.600 365.902 186.180 C 365.978 133.388,365.890 117.650,365.520 117.280 C 364.820 116.580,35.180 116.580,34.480 117.280 M286.700 138.297 C 288.295 138.373,290.905 138.373,292.500 138.297 C 294.095 138.221,292.790 138.159,289.600 138.159 C 286.410 138.159,285.105 138.221,286.700 138.297 M280.200 138.800 C 279.122 139.074,279.102 139.106,280.000 139.113 C 280.550 139.117,281.450 138.976,282.000 138.800 C 283.344 138.369,281.892 138.369,280.200 138.800 M297.200 138.800 C 297.750 138.976,298.650 139.117,299.200 139.113 C 300.098 139.106,300.078 139.074,299.000 138.800 C 297.308 138.369,295.856 138.369,297.200 138.800 M276.800 139.600 C 275.976 139.864,275.941 139.926,276.600 139.954 C 277.040 139.973,277.670 139.813,278.000 139.600 C 278.701 139.147,278.214 139.147,276.800 139.600 M301.200 139.582 C 301.530 139.805,302.145 139.991,302.567 139.994 C 303.590 140.002,303.271 139.773,301.800 139.444 C 300.924 139.248,300.762 139.285,301.200 139.582 M268.700 142.625 C 267.215 143.387,266.000 144.101,266.000 144.211 C 266.000 144.320,267.215 143.803,268.700 143.062 C 270.185 142.320,271.670 141.612,272.000 141.488 C 272.533 141.288,272.533 141.262,272.000 141.251 C 271.670 141.245,270.185 141.863,268.700 142.625 M310.000 142.583 C 310.000 142.763,312.402 144.000,312.750 144.000 C 313.097 144.000,311.494 142.967,310.700 142.679 C 310.315 142.539,310.000 142.496,310.000 142.583 M313.800 144.607 C 314.240 144.966,314.960 145.435,315.400 145.651 L 316.200 146.044 315.400 145.393 C 314.960 145.034,314.240 144.565,313.800 144.349 L 313.000 143.956 313.800 144.607 M262.524 146.191 C 261.388 146.956,260.336 147.779,260.187 148.020 C 259.954 148.398,263.503 146.062,264.580 145.129 C 265.447 144.378,264.456 144.890,262.524 146.191 M316.400 146.088 C 316.400 146.189,317.480 147.110,318.800 148.135 C 320.120 149.160,321.194 149.864,321.187 149.700 C 321.181 149.535,320.686 149.051,320.087 148.625 C 319.489 148.199,318.415 147.412,317.700 146.877 C 316.985 146.343,316.400 145.988,316.400 146.088 M256.936 150.713 C 255.581 151.971,253.805 153.810,252.989 154.800 C 251.790 156.254,251.908 156.178,253.605 154.400 C 254.760 153.190,256.626 151.353,257.752 150.318 C 258.879 149.283,259.710 148.434,259.600 148.431 C 259.490 148.429,258.291 149.456,256.936 150.713 M323.617 152.215 C 324.817 153.543,325.882 154.571,325.981 154.500 C 326.081 154.429,325.098 153.343,323.798 152.086 L 321.433 149.800 323.617 152.215 M67.276 151.940 C 66.768 152.083,89.217 152.200,117.161 152.200 C 145.106 152.200,167.662 152.078,167.285 151.928 C 166.409 151.581,68.511 151.592,67.276 151.940 M285.200 151.960 C 284.210 152.092,286.280 152.203,289.800 152.206 C 293.713 152.210,295.423 152.107,294.200 151.941 C 291.818 151.618,287.699 151.627,285.200 151.960 M168.600 152.657 C 170.637 154.464,171.387 154.991,170.602 154.063 C 170.166 153.548,169.447 152.941,169.004 152.714 C 168.562 152.487,168.380 152.462,168.600 152.657 M63.387 154.581 C 62.804 155.346,62.417 156.283,62.521 156.681 C 62.691 157.338,62.711 157.334,62.754 156.638 C 62.779 156.219,63.259 155.274,63.820 154.538 C 64.382 153.802,64.751 153.200,64.641 153.200 C 64.531 153.200,63.967 153.821,63.387 154.581 M303.371 154.786 C 304.236 155.234,305.041 155.600,305.160 155.600 C 305.654 155.600,303.724 154.487,302.800 154.240 C 302.225 154.085,302.468 154.318,303.371 154.786 M273.100 155.877 C 272.056 156.458,271.263 156.997,271.340 157.073 C 271.500 157.234,275.200 155.214,275.200 154.966 C 275.200 154.715,275.143 154.740,273.100 155.877 M250.310 158.100 C 249.250 159.498,248.273 161.200,248.529 161.200 C 248.616 161.200,249.344 160.210,250.147 159.000 C 251.759 156.573,251.850 156.068,250.310 158.100 M309.469 158.250 C 310.531 159.047,311.895 160.161,312.500 160.725 C 313.105 161.288,313.600 161.630,313.600 161.484 C 313.600 161.121,308.333 156.800,307.892 156.800 C 307.697 156.800,308.408 157.452,309.469 158.250 M172.101 158.600 C 172.105 159.480,172.187 159.793,172.283 159.295 C 172.379 158.798,172.375 158.078,172.275 157.695 C 172.175 157.313,172.096 157.720,172.101 158.600 M328.985 158.700 C 329.602 159.635,330.183 160.400,330.276 160.400 C 330.564 160.400,329.033 157.966,328.432 157.469 C 328.120 157.211,328.368 157.765,328.985 158.700 M265.690 161.500 C 263.959 163.205,262.132 165.230,261.629 166.000 C 260.931 167.070,261.071 166.976,262.223 165.600 C 263.052 164.610,264.996 162.585,266.543 161.100 C 268.089 159.615,269.239 158.400,269.096 158.400 C 268.954 158.400,267.422 159.795,265.690 161.500 M62.402 160.762 C 62.399 161.554,64.260 163.902,65.316 164.439 C 65.890 164.730,65.746 164.486,64.907 163.744 C 64.196 163.115,63.342 162.060,63.010 161.400 C 62.677 160.740,62.404 160.453,62.402 160.762 M247.414 162.635 C 247.041 163.204,246.805 163.738,246.889 163.822 C 246.973 163.907,247.358 163.441,247.744 162.788 C 248.606 161.328,248.348 161.209,247.414 162.635 M314.000 161.858 C 314.000 162.074,314.585 162.779,315.300 163.425 L 316.600 164.600 315.400 163.202 C 314.740 162.433,314.155 161.728,314.100 161.635 C 314.045 161.543,314.000 161.643,314.000 161.858 M169.600 163.660 C 168.830 164.335,168.562 164.705,169.004 164.481 C 169.735 164.111,171.547 162.378,171.162 162.416 C 171.073 162.425,170.370 162.985,169.600 163.660 M67.000 165.200 C 67.440 165.389,68.160 165.538,68.600 165.532 C 69.243 165.523,69.204 165.457,68.400 165.200 C 67.032 164.762,65.981 164.762,67.000 165.200 M166.000 165.200 C 165.196 165.457,165.157 165.523,165.800 165.532 C 166.240 165.538,166.960 165.389,167.400 165.200 C 168.419 164.762,167.368 164.762,166.000 165.200 M259.428 169.461 C 258.856 170.484,258.452 171.385,258.529 171.463 C 258.607 171.540,259.161 170.703,259.760 169.602 C 260.360 168.501,260.764 167.600,260.659 167.600 C 260.554 167.600,260.000 168.437,259.428 169.461 M320.200 170.800 C 320.541 171.460,320.911 172.000,321.021 172.000 C 321.131 172.000,320.941 171.460,320.600 170.800 C 320.259 170.140,319.889 169.600,319.779 169.600 C 319.669 169.600,319.859 170.140,320.200 170.800 M243.064 173.100 C 242.569 174.925,242.408 176.168,242.739 175.600 C 243.134 174.925,243.668 172.400,243.417 172.400 C 243.327 172.400,243.169 172.715,243.064 173.100 M336.244 174.600 C 336.573 176.071,336.802 176.390,336.794 175.367 C 336.791 174.945,336.605 174.330,336.382 174.000 C 336.085 173.562,336.048 173.724,336.244 174.600 M256.840 175.440 C 256.610 176.273,256.494 177.027,256.582 177.115 C 256.670 177.203,256.930 176.593,257.160 175.760 C 257.390 174.927,257.506 174.173,257.418 174.085 C 257.330 173.997,257.070 174.607,256.840 175.440 M242.101 177.800 C 242.105 178.680,242.187 178.993,242.283 178.495 C 242.379 177.998,242.375 177.278,242.275 176.895 C 242.175 176.513,242.096 176.920,242.101 177.800 M337.072 178.600 C 337.199 179.700,337.369 180.675,337.451 180.767 C 337.732 181.082,337.520 178.599,337.180 177.600 C 336.951 176.926,336.916 177.251,337.072 178.600 M323.058 178.800 C 323.375 180.525,323.602 180.851,323.594 179.567 C 323.591 179.035,323.411 178.330,323.194 178.000 C 322.918 177.578,322.877 177.815,323.058 178.800 M97.900 179.500 C 114.235 179.558,140.965 179.558,157.300 179.500 C 173.635 179.442,160.270 179.395,127.600 179.395 C 94.930 179.395,81.565 179.442,97.900 179.500 M64.189 181.389 C 63.029 182.550,62.419 183.499,62.454 184.089 L 62.509 185.000 62.686 184.068 C 62.916 182.863,65.663 180.116,66.868 179.886 L 67.800 179.709 66.889 179.654 C 66.299 179.619,65.350 180.229,64.189 181.389 M189.053 180.368 C 190.165 180.873,191.048 181.688,191.749 182.859 C 192.323 183.817,192.794 184.417,192.796 184.193 C 192.810 182.737,189.455 179.583,187.920 179.609 C 187.634 179.614,188.144 179.955,189.053 180.368 M255.324 183.800 C 255.326 185.120,255.401 185.612,255.490 184.893 C 255.579 184.174,255.577 183.094,255.486 182.493 C 255.395 181.892,255.322 182.480,255.324 183.800 M241.342 186.200 C 241.341 188.180,241.408 189.040,241.492 188.112 C 241.576 187.184,241.577 185.564,241.495 184.512 C 241.412 183.460,241.343 184.220,241.342 186.200 M337.742 186.200 C 337.741 188.180,337.808 189.040,337.892 188.112 C 337.976 187.184,337.977 185.564,337.895 184.512 C 337.812 183.460,337.743 184.220,337.742 186.200 M324.124 186.200 C 324.126 187.520,324.201 188.012,324.290 187.293 C 324.379 186.574,324.377 185.494,324.286 184.893 C 324.195 184.292,324.122 184.880,324.124 186.200 M192.901 186.200 C 192.905 187.080,192.987 187.393,193.083 186.895 C 193.179 186.398,193.175 185.678,193.075 185.295 C 192.975 184.913,192.896 185.320,192.901 186.200 M255.324 188.600 C 255.326 189.920,255.401 190.412,255.490 189.693 C 255.579 188.974,255.577 187.894,255.486 187.293 C 255.395 186.692,255.322 187.280,255.324 188.600 M62.402 188.362 C 62.397 189.703,66.352 193.381,67.050 192.683 C 67.147 192.587,66.693 192.287,66.042 192.017 C 64.674 191.451,63.908 190.683,63.030 188.999 C 62.686 188.340,62.404 188.053,62.402 188.362 M255.628 192.433 C 255.644 192.965,255.819 193.760,256.019 194.200 C 256.271 194.758,256.307 194.515,256.138 193.400 C 255.855 191.543,255.587 191.036,255.628 192.433 M337.055 193.455 C 336.913 194.486,336.874 195.408,336.969 195.502 C 337.063 195.596,337.265 194.839,337.418 193.818 C 337.571 192.798,337.610 191.876,337.504 191.771 C 337.398 191.665,337.196 192.423,337.055 193.455 M323.254 192.667 C 323.225 193.144,323.096 193.864,322.970 194.267 C 322.752 194.961,322.764 194.962,323.196 194.288 C 323.447 193.897,323.575 193.177,323.481 192.688 C 323.309 191.801,323.309 191.801,323.254 192.667 M97.500 193.100 C 114.055 193.158,141.145 193.158,157.700 193.100 C 174.255 193.042,160.710 192.995,127.600 192.995 C 94.490 192.995,80.945 193.042,97.500 193.100 M242.101 194.600 C 242.105 195.480,242.187 195.793,242.283 195.295 C 242.379 194.798,242.375 194.078,242.275 193.695 C 242.175 193.313,242.096 193.720,242.101 194.600 M256.644 196.200 C 256.973 197.671,257.202 197.990,257.194 196.967 C 257.191 196.545,257.005 195.930,256.782 195.600 C 256.485 195.162,256.448 195.324,256.644 196.200 M242.662 197.600 C 242.798 198.370,243.062 199.270,243.248 199.600 C 243.452 199.961,243.488 199.643,243.338 198.800 C 243.202 198.030,242.938 197.130,242.752 196.800 C 242.548 196.439,242.512 196.757,242.662 197.600 M336.250 197.650 C 335.917 199.317,336.240 199.640,336.600 198.000 C 336.752 197.309,336.793 196.659,336.691 196.558 C 336.589 196.456,336.391 196.947,336.250 197.650 M320.722 200.456 C 320.129 201.745,319.721 202.800,319.815 202.800 C 320.106 202.800,322.053 198.756,321.923 198.424 C 321.855 198.252,321.315 199.167,320.722 200.456 M258.415 201.000 C 258.417 201.220,258.786 201.850,259.236 202.400 C 259.779 203.064,259.915 203.131,259.640 202.600 C 258.966 201.295,258.412 200.572,258.415 201.000 M244.400 203.084 C 244.400 203.651,245.563 206.400,245.802 206.400 C 245.907 206.400,245.696 205.635,245.332 204.700 C 244.595 202.807,244.400 202.469,244.400 203.084 M261.542 206.200 C 262.991 208.257,263.586 208.948,263.755 208.771 C 263.845 208.677,263.194 207.790,262.308 206.800 C 261.422 205.810,261.078 205.540,261.542 206.200 M316.959 206.900 C 315.207 208.921,314.687 209.600,314.890 209.600 C 315.007 209.600,315.767 208.790,316.579 207.800 C 318.081 205.966,318.379 205.263,316.959 206.900 M102.732 207.100 C 122.164 207.157,153.844 207.157,173.132 207.100 C 192.419 207.043,176.520 206.996,137.800 206.996 C 99.080 206.996,83.299 207.043,102.732 207.100 M65.355 207.962 C 63.872 208.867,62.257 211.012,62.537 211.706 C 62.684 212.070,62.745 212.058,62.768 211.662 C 62.827 210.668,64.451 208.793,65.932 208.011 C 66.739 207.584,67.220 207.228,67.000 207.219 C 66.780 207.210,66.040 207.545,65.355 207.962 M210.000 208.052 C 210.770 208.519,211.525 209.098,211.678 209.339 C 211.831 209.580,212.070 209.663,212.209 209.524 C 212.487 209.247,209.663 207.199,209.007 207.201 C 208.783 207.202,209.230 207.585,210.000 208.052 M331.800 209.200 C 331.459 209.860,331.269 210.400,331.379 210.400 C 331.489 210.400,331.859 209.860,332.200 209.200 C 332.541 208.540,332.731 208.000,332.621 208.000 C 332.511 208.000,332.141 208.540,331.800 209.200 M265.374 210.693 C 266.240 211.624,267.035 212.299,267.141 212.193 C 267.247 212.087,267.256 211.955,267.162 211.900 C 267.068 211.845,266.273 211.170,265.396 210.401 L 263.800 209.001 265.374 210.693 M311.376 212.704 C 310.262 213.747,309.812 214.228,310.376 213.773 C 310.939 213.318,311.999 212.463,312.731 211.873 C 313.463 211.283,313.913 210.802,313.731 210.804 C 313.549 210.807,312.489 211.662,311.376 212.704 M329.437 213.100 C 328.625 214.365,328.379 214.908,328.890 214.306 C 329.900 213.118,331.347 210.800,331.079 210.800 C 330.988 210.800,330.249 211.835,329.437 213.100 M248.923 212.229 C 249.266 212.905,249.851 213.710,250.222 214.018 C 250.593 214.326,250.415 213.868,249.826 213.000 C 248.433 210.948,248.148 210.705,248.923 212.229 M213.330 213.800 C 213.328 215.736,213.391 215.970,213.653 215.013 C 213.831 214.360,213.832 213.280,213.654 212.613 C 213.391 211.625,213.331 211.845,213.330 213.800 M268.276 213.244 C 268.758 213.770,269.748 214.543,270.476 214.962 C 272.141 215.921,271.917 215.677,269.400 213.788 C 268.222 212.905,267.760 212.681,268.276 213.244 M62.454 215.911 C 62.380 217.150,65.650 220.420,66.889 220.346 L 67.800 220.291 66.868 220.114 C 65.663 219.884,62.916 217.137,62.686 215.932 L 62.509 215.000 62.454 215.911 M272.000 215.779 C 272.000 215.889,272.540 216.259,273.200 216.600 C 273.860 216.941,274.400 217.131,274.400 217.021 C 274.400 216.911,273.860 216.541,273.200 216.200 C 272.540 215.859,272.000 215.669,272.000 215.779 M305.900 216.229 C 304.405 217.040,304.496 217.378,306.000 216.600 C 306.660 216.259,307.200 215.894,307.200 215.790 C 307.200 215.532,307.157 215.547,305.900 216.229 M251.600 216.125 C 251.600 216.194,252.185 216.779,252.900 217.425 L 254.200 218.600 253.025 217.300 C 251.930 216.088,251.600 215.816,251.600 216.125 M212.261 217.467 C 211.854 218.010,211.605 218.538,211.707 218.640 C 211.808 218.742,212.200 218.354,212.578 217.778 C 213.467 216.421,213.222 216.181,212.261 217.467 M323.600 220.110 C 322.170 221.482,320.190 223.293,319.200 224.133 C 317.857 225.272,318.009 225.200,319.800 223.847 C 321.966 222.210,326.844 217.590,326.386 217.607 C 326.284 217.611,325.030 218.737,323.600 220.110 M209.600 219.648 C 208.830 220.061,208.495 220.399,208.856 220.399 C 209.216 220.400,209.936 220.046,210.456 219.613 C 211.600 218.660,211.431 218.667,209.600 219.648 M254.400 219.064 C 254.400 219.282,254.895 219.897,255.500 220.430 L 256.600 221.400 255.600 220.200 C 255.050 219.540,254.555 218.925,254.500 218.833 C 254.445 218.742,254.400 218.845,254.400 219.064 M282.000 219.997 C 282.541 220.350,285.964 220.599,285.567 220.256 C 285.475 220.177,284.500 219.999,283.400 219.859 C 282.035 219.686,281.590 219.730,282.000 219.997 M295.400 220.000 L 293.800 220.286 295.200 220.337 C 295.970 220.365,296.870 220.213,297.200 220.000 C 297.855 219.577,297.762 219.577,295.400 220.000 M103.100 220.700 C 122.295 220.757,153.705 220.757,172.900 220.700 C 192.095 220.643,176.390 220.596,138.000 220.596 C 99.610 220.596,83.905 220.643,103.100 220.700 M288.500 220.687 C 289.105 220.778,290.095 220.778,290.700 220.687 C 291.305 220.595,290.810 220.520,289.600 220.520 C 288.390 220.520,287.895 220.595,288.500 220.687 M256.800 221.361 C 256.800 221.724,259.276 223.865,261.313 225.265 L 263.000 226.423 261.639 225.312 C 260.890 224.700,259.495 223.502,258.539 222.649 C 257.582 221.796,256.800 221.217,256.800 221.361 M263.400 226.690 C 263.620 226.900,264.520 227.476,265.400 227.970 C 266.280 228.465,266.640 228.570,266.200 228.204 C 265.306 227.461,262.772 226.091,263.400 226.690 M302.800 232.400 C 302.267 232.745,302.267 232.788,302.800 232.788 C 303.130 232.788,303.670 232.613,304.000 232.400 C 304.533 232.055,304.533 232.012,304.000 232.012 C 303.670 232.012,303.130 232.187,302.800 232.400 M299.800 233.200 C 299.296 233.417,299.222 233.544,299.600 233.544 C 299.930 233.544,300.560 233.389,301.000 233.200 C 301.504 232.983,301.578 232.856,301.200 232.856 C 300.870 232.856,300.240 233.011,299.800 233.200 M282.400 233.984 C 283.380 234.314,287.095 234.542,286.767 234.253 C 286.675 234.172,285.430 234.003,284.000 233.877 C 282.370 233.734,281.773 233.774,282.400 233.984 M294.000 234.000 L 292.200 234.280 294.000 234.300 C 294.990 234.311,296.250 234.176,296.800 234.000 L 297.800 233.680 296.800 233.700 C 296.250 233.711,294.990 233.846,294.000 234.000 M34.400 255.300 C 34.400 255.465,67.024 255.600,106.897 255.600 L 179.394 255.600 189.697 265.897 L 200.000 276.194 210.303 265.897 L 220.606 255.600 293.103 255.600 C 332.976 255.600,365.600 255.465,365.600 255.300 C 365.600 255.135,332.975 255.046,293.101 255.102 L 220.601 255.204 210.301 265.499 L 200.000 275.794 189.699 265.499 L 179.399 255.204 106.899 255.102 C 67.025 255.046,34.400 255.135,34.400 255.300 M311.527 296.700 C 316.658 296.763,324.938 296.763,329.927 296.700 C 334.917 296.636,330.720 296.584,320.600 296.584 C 310.480 296.584,306.397 296.636,311.527 296.700 M122.600 299.200 C 123.459 300.080,124.252 300.800,124.362 300.800 C 124.472 300.800,123.859 300.080,123.000 299.200 C 122.141 298.320,121.348 297.600,121.238 297.600 C 121.128 297.600,121.741 298.320,122.600 299.200 M221.978 299.100 L 220.600 300.600 222.100 299.222 C 223.496 297.938,223.784 297.600,223.478 297.600 C 223.412 297.600,222.737 298.275,221.978 299.100 M232.800 299.000 C 233.546 299.770,234.247 300.400,234.357 300.400 C 234.467 300.400,233.946 299.770,233.200 299.000 C 232.454 298.230,231.753 297.600,231.643 297.600 C 231.533 297.600,232.054 298.230,232.800 299.000 M108.575 302.500 L 107.400 303.800 108.700 302.625 C 109.415 301.979,110.000 301.394,110.000 301.325 C 110.000 301.016,109.670 301.288,108.575 302.500 M125.800 302.800 C 126.659 303.680,127.452 304.400,127.562 304.400 C 127.672 304.400,127.059 303.680,126.200 302.800 C 125.341 301.920,124.548 301.200,124.438 301.200 C 124.328 301.200,124.941 301.920,125.800 302.800 M218.175 303.300 L 217.000 304.600 218.300 303.425 C 219.015 302.779,219.600 302.194,219.600 302.125 C 219.600 301.816,219.270 302.088,218.175 303.300 M344.984 320.800 C 344.984 330.370,345.036 334.285,345.100 329.500 C 345.163 324.715,345.163 316.885,345.100 312.100 C 345.036 307.315,344.984 311.230,344.984 320.800 M215.775 306.100 L 214.600 307.400 215.900 306.225 C 216.615 305.579,217.200 304.994,217.200 304.925 C 217.200 304.616,216.870 304.888,215.775 306.100 M129.200 306.600 C 129.946 307.370,130.647 308.000,130.757 308.000 C 130.867 308.000,130.346 307.370,129.600 306.600 C 128.854 305.830,128.153 305.200,128.043 305.200 C 127.933 305.200,128.454 305.830,129.200 306.600 M238.400 305.325 C 238.400 305.394,238.985 305.979,239.700 306.625 L 241.000 307.800 239.825 306.500 C 238.730 305.288,238.400 305.016,238.400 305.325 M102.575 309.300 L 101.400 310.600 102.700 309.425 C 103.912 308.330,104.184 308.000,103.875 308.000 C 103.806 308.000,103.221 308.585,102.575 309.300 M131.200 308.925 C 131.200 308.994,131.785 309.579,132.500 310.225 L 133.800 311.400 132.625 310.100 C 131.530 308.888,131.200 308.616,131.200 308.925 M211.775 310.500 L 210.600 311.800 211.900 310.625 C 212.615 309.979,213.200 309.394,213.200 309.325 C 213.200 309.016,212.870 309.288,211.775 310.500 M209.375 313.300 L 208.200 314.600 209.500 313.425 C 210.215 312.779,210.800 312.194,210.800 312.125 C 210.800 311.816,210.470 312.088,209.375 313.300 M244.400 312.125 C 244.400 312.194,244.985 312.779,245.700 313.425 L 247.000 314.600 245.825 313.300 C 244.730 312.088,244.400 311.816,244.400 312.125 M134.400 312.525 C 134.400 312.594,134.985 313.179,135.700 313.825 L 137.000 315.000 135.825 313.700 C 134.730 312.488,134.400 312.216,134.400 312.525 M318.975 314.100 L 317.800 315.400 319.100 314.225 C 320.312 313.130,320.584 312.800,320.275 312.800 C 320.206 312.800,319.621 313.385,318.975 314.100 M247.600 315.725 C 247.600 315.794,248.185 316.379,248.900 317.025 L 250.200 318.200 249.025 316.900 C 247.930 315.688,247.600 315.416,247.600 315.725 M114.175 317.300 L 113.000 318.600 114.300 317.425 C 115.512 316.330,115.784 316.000,115.475 316.000 C 115.406 316.000,114.821 316.585,114.175 317.300 M137.600 316.125 C 137.600 316.194,138.185 316.779,138.900 317.425 L 140.200 318.600 139.025 317.300 C 137.930 316.088,137.600 315.816,137.600 316.125 M205.578 317.500 L 204.200 319.000 205.700 317.622 C 207.096 316.338,207.384 316.000,207.078 316.000 C 207.012 316.000,206.337 316.675,205.578 317.500 M229.600 316.525 C 229.600 316.594,230.185 317.179,230.900 317.825 L 232.200 319.000 231.025 317.700 C 229.930 316.488,229.600 316.216,229.600 316.525 M315.775 317.700 L 314.600 319.000 315.900 317.825 C 316.615 317.179,317.200 316.594,317.200 316.525 C 317.200 316.216,316.870 316.488,315.775 317.700 M119.600 316.925 C 119.600 316.994,120.185 317.579,120.900 318.225 L 122.200 319.400 121.025 318.100 C 119.930 316.888,119.600 316.616,119.600 316.925 M202.575 320.900 L 201.400 322.200 202.700 321.025 C 203.912 319.930,204.184 319.600,203.875 319.600 C 203.806 319.600,203.221 320.185,202.575 320.900 M110.575 321.300 L 109.400 322.600 110.700 321.425 C 111.912 320.330,112.184 320.000,111.875 320.000 C 111.806 320.000,111.221 320.585,110.575 321.300 M232.800 320.125 C 232.800 320.194,233.385 320.779,234.100 321.425 L 235.400 322.600 234.225 321.300 C 233.130 320.088,232.800 319.816,232.800 320.125 M312.575 321.300 L 311.400 322.600 312.700 321.425 C 313.415 320.779,314.000 320.194,314.000 320.125 C 314.000 319.816,313.670 320.088,312.575 321.300 M220.575 321.700 L 219.400 323.000 220.700 321.825 C 221.415 321.179,222.000 320.594,222.000 320.525 C 222.000 320.216,221.670 320.488,220.575 321.700 M123.200 320.925 C 123.200 320.994,123.785 321.579,124.500 322.225 L 125.800 323.400 124.625 322.100 C 123.530 320.888,123.200 320.616,123.200 320.925 M89.578 323.900 L 88.200 325.400 89.700 324.022 C 91.096 322.738,91.384 322.400,91.078 322.400 C 91.012 322.400,90.337 323.075,89.578 323.900 M330.704 327.699 C 330.899 337.653,331.041 338.605,331.121 330.500 C 331.164 326.045,331.065 322.400,330.900 322.399 C 330.735 322.399,330.647 324.784,330.704 327.699 M107.578 324.700 L 106.200 326.200 107.700 324.822 C 109.096 323.538,109.384 323.200,109.078 323.200 C 109.012 323.200,108.337 323.875,107.578 324.700 M145.200 324.600 C 145.946 325.370,146.647 326.000,146.757 326.000 C 146.867 326.000,146.346 325.370,145.600 324.600 C 144.854 323.830,144.153 323.200,144.043 323.200 C 143.933 323.200,144.454 323.830,145.200 324.600 M257.600 326.925 C 257.600 326.994,258.185 327.579,258.900 328.225 L 260.200 329.400 259.025 328.100 C 257.930 326.888,257.600 326.616,257.600 326.925 M240.400 328.600 C 241.146 329.370,241.847 330.000,241.957 330.000 C 242.067 330.000,241.546 329.370,240.800 328.600 C 240.054 327.830,239.353 327.200,239.243 327.200 C 239.133 327.200,239.654 327.830,240.400 328.600 M305.775 328.900 L 304.600 330.200 305.900 329.025 C 306.615 328.379,307.200 327.794,307.200 327.725 C 307.200 327.416,306.870 327.688,305.775 328.900 M324.181 329.300 L 322.600 331.000 324.300 329.419 C 325.881 327.948,326.184 327.600,325.881 327.600 C 325.816 327.600,325.051 328.365,324.181 329.300 M129.600 328.125 C 129.600 328.194,130.185 328.779,130.900 329.425 L 132.200 330.600 131.025 329.300 C 129.930 328.088,129.600 327.816,129.600 328.125 M82.975 331.300 L 81.800 332.600 83.100 331.425 C 84.312 330.330,84.584 330.000,84.275 330.000 C 84.206 330.000,83.621 330.585,82.975 331.300 M260.400 330.125 C 260.400 330.194,260.985 330.779,261.700 331.425 L 263.000 332.600 261.825 331.300 C 260.730 330.088,260.400 329.816,260.400 330.125 M150.800 330.925 C 150.800 330.994,151.385 331.579,152.100 332.225 L 153.400 333.400 152.225 332.100 C 151.130 330.888,150.800 330.616,150.800 330.925 M302.975 332.100 L 301.800 333.400 303.100 332.225 C 303.815 331.579,304.400 330.994,304.400 330.925 C 304.400 330.616,304.070 330.888,302.975 332.100 M210.778 332.700 L 209.400 334.200 210.900 332.822 C 212.296 331.538,212.584 331.200,212.278 331.200 C 212.212 331.200,211.537 331.875,210.778 332.700 M79.775 334.900 L 78.600 336.200 79.900 335.025 C 81.112 333.930,81.384 333.600,81.075 333.600 C 81.006 333.600,80.421 334.185,79.775 334.900 M189.775 335.300 L 188.600 336.600 189.900 335.425 C 191.112 334.330,191.384 334.000,191.075 334.000 C 191.006 334.000,190.421 334.585,189.775 335.300 M264.000 334.125 C 264.000 334.194,264.585 334.779,265.300 335.425 L 266.600 336.600 265.425 335.300 C 264.330 334.088,264.000 333.816,264.000 334.125 M97.775 335.700 L 96.600 337.000 97.900 335.825 C 99.112 334.730,99.384 334.400,99.075 334.400 C 99.006 334.400,98.421 334.985,97.775 335.700 M207.978 335.900 L 206.600 337.400 208.100 336.022 C 208.925 335.263,209.600 334.588,209.600 334.522 C 209.600 334.216,209.262 334.504,207.978 335.900 M136.800 336.200 C 137.546 336.970,138.247 337.600,138.357 337.600 C 138.467 337.600,137.946 336.970,137.200 336.200 C 136.454 335.430,135.753 334.800,135.643 334.800 C 135.533 334.800,136.054 335.430,136.800 336.200 M299.375 336.100 L 298.200 337.400 299.500 336.225 C 300.215 335.579,300.800 334.994,300.800 334.925 C 300.800 334.616,300.470 334.888,299.375 336.100 M76.575 338.500 L 75.400 339.800 76.700 338.625 C 77.912 337.530,78.184 337.200,77.875 337.200 C 77.806 337.200,77.221 337.785,76.575 338.500 M94.981 338.900 L 93.400 340.600 95.100 339.019 C 96.681 337.548,96.984 337.200,96.681 337.200 C 96.616 337.200,95.851 337.965,94.981 338.900 M157.200 338.125 C 157.200 338.194,157.785 338.779,158.500 339.425 L 159.800 340.600 158.625 339.300 C 157.530 338.088,157.200 337.816,157.200 338.125 M138.800 338.525 C 138.800 338.594,139.385 339.179,140.100 339.825 L 141.400 341.000 140.225 339.700 C 139.130 338.488,138.800 338.216,138.800 338.525 M204.175 340.100 L 203.000 341.400 204.300 340.225 C 205.015 339.579,205.600 338.994,205.600 338.925 C 205.600 338.616,205.270 338.888,204.175 340.100 M183.775 342.100 L 182.600 343.400 183.900 342.225 C 185.112 341.130,185.384 340.800,185.075 340.800 C 185.006 340.800,184.421 341.385,183.775 342.100 M270.400 341.325 C 270.400 341.394,270.985 341.979,271.700 342.625 L 273.000 343.800 271.825 342.500 C 270.730 341.288,270.400 341.016,270.400 341.325 M201.775 342.900 L 200.600 344.200 201.900 343.025 C 203.112 341.930,203.384 341.600,203.075 341.600 C 203.006 341.600,202.421 342.185,201.775 342.900 M252.400 342.125 C 252.400 342.194,252.985 342.779,253.700 343.425 L 255.000 344.600 253.825 343.300 C 252.730 342.088,252.400 341.816,252.400 342.125 M292.975 343.300 L 291.800 344.600 293.100 343.425 C 293.815 342.779,294.400 342.194,294.400 342.125 C 294.400 341.816,294.070 342.088,292.975 343.300 M311.578 343.500 L 310.200 345.000 311.700 343.622 C 313.096 342.338,313.384 342.000,313.078 342.000 C 313.012 342.000,312.337 342.675,311.578 343.500 M69.775 346.100 L 68.600 347.400 69.900 346.225 C 71.112 345.130,71.384 344.800,71.075 344.800 C 71.006 344.800,70.421 345.385,69.775 346.100 M88.575 346.100 L 87.400 347.400 88.700 346.225 C 89.912 345.130,90.184 344.800,89.875 344.800 C 89.806 344.800,89.221 345.385,88.575 346.100 M179.775 346.500 L 178.600 347.800 179.900 346.625 C 181.112 345.530,181.384 345.200,181.075 345.200 C 181.006 345.200,180.421 345.785,179.775 346.500 M145.200 345.725 C 145.200 345.794,145.785 346.379,146.500 347.025 L 147.800 348.200 146.625 346.900 C 145.530 345.688,145.200 345.416,145.200 345.725 M164.000 345.725 C 164.000 345.794,164.585 346.379,165.300 347.025 L 166.600 348.200 165.425 346.900 C 164.330 345.688,164.000 345.416,164.000 345.725 M85.375 349.700 L 84.200 351.000 85.500 349.825 C 86.712 348.730,86.984 348.400,86.675 348.400 C 86.606 348.400,86.021 348.985,85.375 349.700 M195.375 350.100 L 194.200 351.400 195.500 350.225 C 196.712 349.130,196.984 348.800,196.675 348.800 C 196.606 348.800,196.021 349.385,195.375 350.100 M148.400 349.325 C 148.400 349.394,148.985 349.979,149.700 350.625 L 151.000 351.800 149.825 350.500 C 148.730 349.288,148.400 349.016,148.400 349.325 M304.975 350.900 L 303.800 352.200 305.100 351.025 C 305.815 350.379,306.400 349.794,306.400 349.725 C 306.400 349.416,306.070 349.688,304.975 350.900 M279.600 351.725 C 279.600 351.794,280.185 352.379,280.900 353.025 L 282.200 354.200 281.025 352.900 C 279.930 351.688,279.600 351.416,279.600 351.725 M63.375 353.300 L 62.200 354.600 63.500 353.425 C 64.712 352.330,64.984 352.000,64.675 352.000 C 64.606 352.000,64.021 352.585,63.375 353.300 M82.175 353.300 L 81.000 354.600 82.300 353.425 C 83.512 352.330,83.784 352.000,83.475 352.000 C 83.406 352.000,82.821 352.585,82.175 353.300 M261.600 352.525 C 261.600 352.594,262.185 353.179,262.900 353.825 L 264.200 355.000 263.025 353.700 C 261.930 352.488,261.600 352.216,261.600 352.525 M283.694 353.612 C 282.975 354.265,282.537 354.800,282.719 354.800 C 282.901 354.800,283.568 354.260,284.200 353.600 C 285.670 352.065,285.386 352.072,283.694 353.612 M151.600 352.925 C 151.600 352.994,152.185 353.579,152.900 354.225 L 154.200 355.400 153.025 354.100 C 151.930 352.888,151.600 352.616,151.600 352.925 M171.288 353.813 C 171.886 354.443,172.447 354.877,172.535 354.779 C 172.623 354.680,172.133 354.165,171.447 353.634 L 170.200 352.669 171.288 353.813 M301.775 354.500 L 300.600 355.800 301.900 354.625 C 302.615 353.979,303.200 353.394,303.200 353.325 C 303.200 353.016,302.870 353.288,301.775 354.500 M188.575 357.700 L 187.400 359.000 188.700 357.825 C 189.912 356.730,190.184 356.400,189.875 356.400 C 189.806 356.400,189.221 356.985,188.575 357.700 M298.575 358.100 L 297.400 359.400 298.700 358.225 C 299.415 357.579,300.000 356.994,300.000 356.925 C 300.000 356.616,299.670 356.888,298.575 358.100 M75.578 360.700 L 74.200 362.200 75.700 360.822 C 77.096 359.538,77.384 359.200,77.078 359.200 C 77.012 359.200,76.337 359.875,75.578 360.700 M159.000 361.200 C 159.859 362.080,160.652 362.800,160.762 362.800 C 160.872 362.800,160.259 362.080,159.400 361.200 C 158.541 360.320,157.748 359.600,157.638 359.600 C 157.528 359.600,158.141 360.320,159.000 361.200 M295.578 361.500 L 294.200 363.000 295.700 361.622 C 296.525 360.863,297.200 360.188,297.200 360.122 C 297.200 359.816,296.862 360.104,295.578 361.500 M272.400 364.600 C 273.146 365.370,273.847 366.000,273.957 366.000 C 274.067 366.000,273.546 365.370,272.800 364.600 C 272.054 363.830,271.353 363.200,271.243 363.200 C 271.133 363.200,271.654 363.830,272.400 364.600 M291.775 365.700 L 290.600 367.000 291.900 365.825 C 292.615 365.179,293.200 364.594,293.200 364.525 C 293.200 364.216,292.870 364.488,291.775 365.700 M275.200 367.800 C 275.946 368.570,276.647 369.200,276.757 369.200 C 276.867 369.200,276.346 368.570,275.600 367.800 C 274.854 367.030,274.153 366.400,274.043 366.400 C 273.933 366.400,274.454 367.030,275.200 367.800 M288.181 369.700 L 286.600 371.400 288.300 369.819 C 289.881 368.348,290.184 368.000,289.881 368.000 C 289.816 368.000,289.051 368.765,288.181 369.700 " stroke="none" fill="#9cbcdd" fill-rule="evenodd"></path></g></svg>