<svg id="svg" version="1.1" xmlns="http://www.w3.org/2000/svg" xmlns:xlink="http://www.w3.org/1999/xlink" width="400" height="400" viewBox="0, 0, 400,400"><g id="svgg"><path id="path0" d="M183.892 0.264 C 182.680 0.473,176.800 6.046,176.800 6.986 C 176.800 7.287,176.665 7.593,176.500 7.667 C 176.065 7.860,174.800 10.365,174.800 11.032 C 174.800 11.345,174.620 11.600,174.400 11.600 C 174.180 11.600,174.000 12.140,174.000 12.800 C 174.000 13.460,173.820 14.000,173.600 14.000 C 173.380 14.000,173.200 14.439,173.200 14.976 C 173.200 15.513,173.020 16.064,172.800 16.200 C 172.559 16.349,172.400 19.137,172.400 23.224 C 172.400 27.475,172.549 30.000,172.800 30.000 C 173.020 30.000,173.200 30.619,173.200 31.376 C 173.200 32.133,173.380 32.864,173.600 33.000 C 173.820 33.136,174.000 33.597,174.000 34.024 C 174.000 34.451,174.180 34.800,174.400 34.800 C 174.620 34.800,174.800 35.093,174.800 35.451 C 174.800 35.810,175.335 37.038,175.990 38.182 C 177.146 40.203,177.102 41.200,175.854 41.200 C 175.168 41.200,172.400 42.544,172.400 42.877 C 172.400 43.055,172.122 43.200,171.782 43.200 C 171.442 43.200,170.714 43.650,170.164 44.200 C 169.614 44.750,168.991 45.200,168.780 45.200 C 168.268 45.200,164.400 49.168,164.400 49.694 C 164.400 49.921,164.084 50.397,163.697 50.753 C 163.311 51.109,162.740 51.895,162.430 52.500 C 162.119 53.105,161.715 53.600,161.532 53.600 C 161.350 53.600,161.200 53.945,161.200 54.367 C 161.200 54.788,161.065 55.193,160.899 55.267 C 157.959 56.570,157.149 93.200,160.061 93.200 C 160.247 93.200,160.400 93.476,160.400 93.813 C 160.400 94.149,160.715 94.542,161.100 94.685 C 161.485 94.828,162.091 95.272,162.447 95.672 C 162.803 96.073,163.388 96.400,163.747 96.400 C 164.106 96.400,164.400 96.580,164.400 96.800 C 164.400 97.617,236.515 97.321,237.425 96.500 C 237.851 96.115,238.677 95.554,239.260 95.254 C 239.843 94.953,240.635 94.008,241.021 93.154 C 241.406 92.299,241.874 91.600,242.061 91.600 C 242.247 91.600,242.400 90.981,242.400 90.224 C 242.400 89.467,242.580 88.736,242.800 88.600 C 243.051 88.445,243.200 84.329,243.200 77.576 C 243.200 70.659,243.057 66.800,242.800 66.800 C 242.571 66.800,242.400 65.600,242.400 64.000 C 242.400 62.400,242.229 61.200,242.000 61.200 C 241.780 61.200,241.600 60.642,241.600 59.960 C 241.600 59.279,241.351 58.154,241.047 57.460 C 240.743 56.767,240.271 55.615,239.998 54.900 C 239.726 54.185,239.345 53.600,239.151 53.600 C 238.958 53.600,238.800 53.240,238.800 52.800 C 238.800 52.360,238.632 52.000,238.427 52.000 C 238.222 52.000,237.933 51.621,237.786 51.157 C 237.441 50.068,231.324 44.000,230.573 44.000 C 230.258 44.000,230.000 43.852,230.000 43.670 C 230.000 43.353,225.689 41.200,225.053 41.200 C 224.039 41.200,223.708 40.117,224.435 39.172 C 224.846 38.638,225.186 37.975,225.191 37.700 C 225.196 37.425,225.380 37.200,225.600 37.200 C 225.820 37.200,226.000 36.851,226.000 36.424 C 226.000 35.997,226.180 35.536,226.400 35.400 C 226.620 35.264,226.800 34.713,226.800 34.176 C 226.800 33.639,226.980 33.200,227.200 33.200 C 227.420 33.200,227.600 32.660,227.600 32.000 C 227.600 31.340,227.780 30.800,228.000 30.800 C 228.222 30.800,228.400 29.733,228.400 28.400 C 228.400 27.067,228.578 26.000,228.800 26.000 C 229.026 26.000,229.200 24.867,229.200 23.400 C 229.200 21.933,229.026 20.800,228.800 20.800 C 228.578 20.800,228.400 19.732,228.400 18.395 C 228.400 17.072,228.220 15.632,228.000 15.195 C 227.780 14.758,227.420 14.042,227.200 13.605 C 226.980 13.168,226.800 12.448,226.800 12.005 C 226.800 11.562,226.620 11.200,226.400 11.200 C 226.180 11.200,226.000 10.855,226.000 10.433 C 226.000 10.012,225.865 9.607,225.700 9.533 C 225.535 9.460,225.040 8.680,224.600 7.800 C 224.160 6.920,222.397 4.805,220.683 3.100 L 217.565 -0.000 214.045 -0.000 C 210.454 0.000,208.400 0.841,208.400 2.313 C 208.400 2.581,208.220 2.800,208.000 2.800 C 207.769 2.800,207.600 4.067,207.600 5.800 C 207.600 7.533,207.769 8.800,208.000 8.800 C 208.220 8.800,208.400 9.081,208.400 9.423 C 208.400 9.974,209.800 11.673,212.700 14.642 C 213.195 15.149,213.600 15.842,213.600 16.182 C 213.600 16.522,213.780 16.800,214.000 16.800 C 214.220 16.800,214.400 17.239,214.400 17.776 C 214.400 18.313,214.580 18.864,214.800 19.000 C 215.020 19.136,215.200 20.032,215.200 20.990 C 215.200 22.020,215.405 22.808,215.700 22.917 C 216.100 23.063,216.100 23.206,215.700 23.630 C 215.425 23.922,215.200 24.934,215.200 25.880 C 215.200 26.826,215.020 27.600,214.800 27.600 C 214.580 27.600,214.400 27.834,214.400 28.120 C 214.400 28.856,213.459 30.793,213.100 30.797 C 212.935 30.799,212.800 31.075,212.800 31.411 C 212.800 32.089,209.457 35.600,208.811 35.600 C 208.585 35.600,208.400 35.780,208.400 36.000 C 208.400 36.220,208.040 36.400,207.600 36.400 C 207.160 36.400,206.800 36.580,206.800 36.800 C 206.800 37.020,206.440 37.200,206.000 37.200 C 205.560 37.200,205.200 37.380,205.200 37.600 C 205.200 37.820,204.300 38.000,203.200 38.000 C 202.100 38.000,201.200 38.180,201.200 38.400 C 201.200 38.620,200.840 38.800,200.400 38.800 C 199.960 38.800,199.600 38.620,199.600 38.400 C 199.600 38.180,198.700 38.000,197.600 38.000 C 196.500 38.000,195.600 37.820,195.600 37.600 C 195.600 37.380,195.240 37.200,194.800 37.200 C 194.360 37.200,194.000 37.020,194.000 36.800 C 194.000 36.580,193.712 36.400,193.360 36.400 C 193.009 36.400,192.217 35.860,191.600 35.200 C 190.983 34.540,190.326 33.995,190.140 33.989 C 189.953 33.983,189.359 33.263,188.820 32.389 C 188.280 31.515,187.695 30.800,187.520 30.800 C 187.344 30.800,187.200 30.440,187.200 30.000 C 187.200 29.560,187.020 29.200,186.800 29.200 C 186.580 29.200,186.400 28.761,186.400 28.224 C 186.400 27.687,186.220 27.136,186.000 27.000 C 185.780 26.864,185.600 25.244,185.600 23.400 C 185.600 21.556,185.780 19.936,186.000 19.800 C 186.220 19.664,186.400 19.239,186.400 18.856 C 186.400 17.981,187.299 16.007,187.700 16.003 C 187.865 16.001,188.000 15.730,188.000 15.400 C 188.000 15.071,188.715 14.064,189.589 13.163 C 195.729 6.837,192.196 -1.162,183.892 0.264 M216.600 52.400 C 216.736 52.620,217.377 52.800,218.024 52.800 C 218.671 52.800,219.200 52.980,219.200 53.200 C 219.200 53.420,219.560 53.600,220.000 53.600 C 220.440 53.600,220.800 53.768,220.800 53.973 C 220.800 54.178,221.178 54.466,221.639 54.612 C 222.732 54.959,226.800 59.062,226.800 59.818 C 226.800 60.138,226.980 60.400,227.200 60.400 C 227.420 60.400,227.600 60.760,227.600 61.200 C 227.600 61.640,227.780 62.000,228.000 62.000 C 228.220 62.000,228.400 62.540,228.400 63.200 C 228.400 63.860,228.580 64.400,228.800 64.400 C 229.056 64.400,229.200 67.933,229.200 74.200 L 229.200 84.000 227.232 84.000 L 225.264 84.000 225.132 74.700 C 224.983 64.195,224.789 63.463,221.690 61.700 C 220.747 61.164,215.200 60.997,215.200 61.505 C 215.200 61.673,214.795 61.988,214.300 62.205 C 213.805 62.422,213.222 63.005,213.005 63.500 C 212.788 63.995,212.473 64.400,212.305 64.400 C 212.137 64.400,212.000 64.929,212.000 65.576 C 212.000 66.223,211.820 66.864,211.600 67.000 C 211.354 67.152,211.200 70.471,211.200 75.624 L 211.200 84.000 200.400 84.000 L 189.600 84.000 189.600 75.249 C 189.600 66.114,189.400 64.806,187.731 63.000 C 185.561 60.652,180.637 60.390,178.343 62.500 C 176.021 64.635,176.000 64.745,176.000 74.774 L 176.000 84.000 173.800 84.000 L 171.600 84.000 171.600 74.624 C 171.600 68.804,171.752 65.153,172.000 65.000 C 172.220 64.864,172.400 64.397,172.400 63.963 C 172.400 63.064,174.321 59.069,174.851 58.867 C 175.043 58.793,175.200 58.551,175.200 58.327 C 175.200 57.855,177.527 55.600,178.014 55.600 C 178.195 55.600,178.581 55.375,178.871 55.100 C 179.719 54.298,182.809 52.800,183.614 52.800 C 184.020 52.800,184.464 52.620,184.600 52.400 C 184.758 52.144,190.530 52.000,200.600 52.000 C 210.670 52.000,216.442 52.144,216.600 52.400 M65.200 73.600 C 65.200 73.822,64.133 74.000,62.800 74.000 C 61.480 74.000,60.400 74.157,60.400 74.349 C 60.400 74.541,59.681 74.813,58.801 74.953 C 57.041 75.235,53.600 76.774,53.600 77.280 C 53.600 77.456,53.306 77.600,52.947 77.600 C 52.588 77.600,52.003 77.924,51.647 78.319 C 51.291 78.714,50.370 79.471,49.600 80.000 C 48.080 81.045,46.401 82.797,46.400 83.340 C 46.400 83.526,45.860 84.183,45.200 84.800 C 44.540 85.417,44.000 86.209,44.000 86.560 C 44.000 86.912,43.820 87.200,43.600 87.200 C 43.380 87.200,43.200 87.560,43.200 88.000 C 43.200 88.440,43.041 88.800,42.846 88.800 C 42.436 88.800,41.200 92.368,41.200 93.552 C 41.200 93.992,41.020 94.464,40.800 94.600 C 40.580 94.736,40.400 96.097,40.400 97.624 C 40.400 99.208,40.228 100.400,40.000 100.400 C 39.780 100.400,39.600 101.019,39.600 101.776 C 39.600 102.533,39.780 103.264,40.000 103.400 C 40.220 103.536,40.400 104.807,40.400 106.224 C 40.400 107.675,40.575 108.800,40.800 108.800 C 41.020 108.800,41.200 109.520,41.200 110.400 C 41.200 111.280,41.380 112.000,41.600 112.000 C 41.820 112.000,42.000 112.297,42.000 112.660 C 42.000 113.500,43.992 117.600,44.400 117.600 C 44.569 117.600,44.801 117.960,44.916 118.400 C 45.040 118.874,44.928 119.200,44.642 119.200 C 43.936 119.200,42.007 120.150,42.003 120.500 C 42.001 120.665,41.680 120.800,41.288 120.800 C 40.897 120.800,40.317 121.160,40.000 121.600 C 39.683 122.040,39.187 122.400,38.898 122.400 C 38.610 122.400,37.758 123.015,37.007 123.767 C 36.255 124.518,35.271 125.251,34.820 125.394 C 34.369 125.537,34.000 125.822,34.000 126.026 C 34.000 126.231,33.280 127.141,32.400 128.048 C 31.520 128.955,30.800 129.945,30.800 130.248 C 30.800 130.552,30.620 130.800,30.400 130.800 C 30.180 130.800,29.996 131.025,29.991 131.300 C 29.986 131.575,29.630 132.250,29.200 132.800 C 28.770 133.350,28.414 134.205,28.409 134.700 C 28.404 135.195,28.220 135.600,28.000 135.600 C 27.780 135.600,27.600 135.949,27.600 136.376 C 27.600 136.803,27.420 137.264,27.200 137.400 C 26.980 137.536,26.800 138.256,26.800 139.000 C 26.800 139.744,26.620 140.464,26.400 140.600 C 26.146 140.757,26.000 146.006,26.000 155.028 L 26.000 169.209 27.300 171.178 C 28.638 173.204,31.208 175.200,32.480 175.200 C 32.876 175.200,33.200 175.380,33.200 175.600 C 33.200 175.864,45.200 176.000,68.400 176.000 C 91.600 176.000,103.600 175.864,103.600 175.600 C 103.600 175.380,103.842 175.200,104.139 175.200 C 105.568 175.200,108.800 172.702,108.800 171.597 C 108.800 171.379,108.980 171.200,109.200 171.200 C 109.420 171.200,109.600 170.930,109.600 170.600 C 109.600 170.270,109.780 170.000,110.000 170.000 C 110.259 170.000,110.400 164.800,110.400 155.200 C 110.400 145.600,110.259 140.400,110.000 140.400 C 109.780 140.400,109.600 139.680,109.600 138.800 C 109.600 137.920,109.459 137.200,109.287 137.200 C 109.115 137.200,108.734 136.345,108.440 135.300 C 108.146 134.255,107.476 132.729,106.952 131.909 C 106.429 131.088,106.000 130.253,106.000 130.053 C 106.000 129.311,98.669 122.400,97.882 122.400 C 97.604 122.400,97.117 122.040,96.800 121.600 C 96.483 121.160,95.903 120.800,95.512 120.800 C 95.120 120.800,94.800 120.620,94.800 120.400 C 94.800 120.180,94.440 120.000,94.000 120.000 C 93.560 120.000,93.200 119.820,93.200 119.600 C 93.200 119.380,92.840 119.200,92.400 119.200 C 91.900 119.200,91.600 118.933,91.600 118.488 C 91.600 118.097,91.960 117.517,92.400 117.200 C 92.840 116.883,93.200 116.303,93.200 115.912 C 93.200 115.520,93.380 115.200,93.600 115.200 C 93.820 115.200,94.000 114.840,94.000 114.400 C 94.000 113.960,94.180 113.600,94.400 113.600 C 94.620 113.600,94.800 113.251,94.800 112.824 C 94.800 112.397,94.980 111.936,95.200 111.800 C 95.420 111.664,95.600 110.933,95.600 110.176 C 95.600 109.419,95.780 108.800,96.000 108.800 C 96.225 108.800,96.400 107.675,96.400 106.224 C 96.400 104.807,96.580 103.536,96.800 103.400 C 97.020 103.264,97.200 102.533,97.200 101.776 C 97.200 101.019,97.020 100.400,96.800 100.400 C 96.571 100.400,96.400 99.200,96.400 97.600 C 96.400 96.000,96.229 94.800,96.000 94.800 C 95.780 94.800,95.600 94.170,95.600 93.400 C 95.600 92.630,95.420 92.000,95.200 92.000 C 94.980 92.000,94.800 91.584,94.800 91.075 C 94.800 90.567,94.440 89.764,94.000 89.292 C 93.560 88.820,93.200 88.156,93.200 87.817 C 93.200 87.478,93.020 87.200,92.800 87.200 C 92.580 87.200,92.400 86.922,92.400 86.583 C 92.400 86.244,92.175 85.698,91.900 85.369 C 90.767 84.017,90.557 83.738,89.618 82.338 C 89.078 81.534,88.128 80.576,87.507 80.209 C 86.886 79.842,85.941 79.105,85.407 78.571 C 84.873 78.037,84.173 77.600,83.852 77.600 C 83.530 77.600,83.207 77.465,83.133 77.300 C 82.838 76.635,79.572 75.181,77.842 74.944 C 76.829 74.805,76.000 74.536,76.000 74.346 C 76.000 74.156,75.010 74.000,73.800 74.000 C 72.590 74.000,71.600 73.820,71.600 73.600 C 71.600 73.367,70.267 73.200,68.400 73.200 C 66.533 73.200,65.200 73.367,65.200 73.600 M329.400 73.600 C 329.264 73.820,328.173 74.000,326.976 74.000 C 325.779 74.000,324.800 74.180,324.800 74.400 C 324.800 74.620,324.305 74.801,323.700 74.802 C 323.095 74.804,322.084 75.074,321.454 75.402 C 320.824 75.731,320.059 76.000,319.754 76.000 C 319.449 76.000,319.200 76.180,319.200 76.400 C 319.200 76.620,318.840 76.800,318.400 76.800 C 317.960 76.800,317.600 76.980,317.600 77.200 C 317.600 77.420,317.352 77.600,317.048 77.600 C 316.745 77.600,315.755 78.320,314.848 79.200 C 313.941 80.080,313.019 80.800,312.800 80.800 C 312.580 80.800,312.400 80.965,312.400 81.167 C 312.400 81.369,311.708 82.255,310.862 83.136 C 310.015 84.017,309.094 85.291,308.813 85.969 C 308.532 86.646,308.145 87.200,307.951 87.200 C 307.758 87.200,307.600 87.560,307.600 88.000 C 307.600 88.440,307.420 88.800,307.200 88.800 C 306.980 88.800,306.800 89.160,306.800 89.600 C 306.800 90.040,306.620 90.400,306.400 90.400 C 306.180 90.400,306.000 90.940,306.000 91.600 C 306.000 92.260,305.820 92.800,305.600 92.800 C 305.380 92.800,305.200 93.430,305.200 94.200 C 305.200 94.970,305.020 95.600,304.800 95.600 C 304.551 95.600,304.400 97.933,304.400 101.800 C 304.400 105.667,304.551 108.000,304.800 108.000 C 305.020 108.000,305.200 108.540,305.200 109.200 C 305.200 109.860,305.380 110.400,305.600 110.400 C 305.820 110.400,306.000 110.940,306.000 111.600 C 306.000 112.260,306.180 112.800,306.400 112.800 C 306.620 112.800,306.800 113.160,306.800 113.600 C 306.800 114.040,306.980 114.400,307.200 114.400 C 307.420 114.400,307.600 114.760,307.600 115.200 C 307.600 115.640,307.780 116.000,308.000 116.000 C 308.220 116.000,308.400 116.338,308.400 116.751 C 308.400 117.164,308.670 117.726,309.000 118.000 C 309.330 118.274,309.600 118.656,309.600 118.849 C 309.600 119.042,309.330 119.200,309.000 119.200 C 308.670 119.200,308.400 119.380,308.400 119.600 C 308.400 119.820,307.900 120.000,307.288 120.000 C 306.635 120.000,305.939 120.330,305.600 120.800 C 305.283 121.240,304.703 121.600,304.312 121.600 C 303.920 121.600,303.600 121.780,303.600 122.000 C 303.600 122.220,303.324 122.400,302.987 122.400 C 302.649 122.400,301.704 123.044,300.887 123.831 C 296.522 128.031,295.600 129.017,295.600 129.486 C 295.600 129.769,295.457 130.000,295.281 130.000 C 294.799 130.000,292.000 135.711,292.000 136.694 C 292.000 137.166,291.820 137.664,291.600 137.800 C 291.380 137.936,291.200 138.757,291.200 139.624 C 291.200 140.491,291.020 141.200,290.800 141.200 C 290.541 141.200,290.400 146.133,290.400 155.200 C 290.400 164.267,290.541 169.200,290.800 169.200 C 291.020 169.200,291.200 169.560,291.200 170.000 C 291.200 170.440,291.341 170.800,291.512 170.800 C 291.684 170.800,292.022 171.324,292.264 171.965 C 292.707 173.138,295.465 175.200,296.592 175.200 C 296.926 175.200,297.200 175.380,297.200 175.600 C 297.200 175.864,309.200 176.000,332.400 176.000 C 355.600 176.000,367.600 175.864,367.600 175.600 C 367.600 175.380,368.058 175.200,368.617 175.200 C 369.176 175.200,369.851 175.023,370.117 174.806 C 370.383 174.589,371.176 173.951,371.880 173.388 C 372.583 172.824,373.635 171.391,374.216 170.203 L 375.273 168.043 375.102 154.522 C 374.992 145.856,374.769 140.569,374.479 139.800 C 374.230 139.140,373.801 137.745,373.526 136.700 C 373.251 135.655,372.885 134.800,372.713 134.800 C 372.541 134.800,372.400 134.440,372.400 134.000 C 372.400 133.560,372.220 133.200,372.000 133.200 C 371.780 133.200,371.600 132.840,371.600 132.400 C 371.600 131.960,371.420 131.600,371.200 131.600 C 370.980 131.600,370.800 131.357,370.800 131.059 C 370.800 130.762,370.260 129.954,369.600 129.263 C 368.940 128.572,368.400 127.911,368.400 127.793 C 368.400 127.376,364.814 124.000,364.371 124.000 C 364.123 124.000,363.417 123.460,362.800 122.800 C 362.183 122.140,361.391 121.600,361.040 121.600 C 360.688 121.600,360.400 121.420,360.400 121.200 C 360.400 120.980,360.040 120.800,359.600 120.800 C 359.160 120.800,358.800 120.654,358.800 120.475 C 358.800 120.296,358.170 119.902,357.400 119.600 C 356.630 119.298,356.000 118.992,356.000 118.920 C 356.000 118.659,357.012 117.018,357.500 116.487 C 357.775 116.188,358.000 115.606,358.000 115.195 C 358.000 114.784,358.180 114.336,358.400 114.200 C 358.620 114.064,358.800 113.513,358.800 112.976 C 358.800 112.439,358.980 112.000,359.200 112.000 C 359.420 112.000,359.600 111.460,359.600 110.800 C 359.600 110.140,359.780 109.600,360.000 109.600 C 360.220 109.600,360.400 108.891,360.400 108.024 C 360.400 107.157,360.580 106.336,360.800 106.200 C 361.023 106.062,361.200 104.196,361.200 101.976 C 361.200 99.592,361.040 98.000,360.800 98.000 C 360.580 98.000,360.400 97.111,360.400 96.024 C 360.400 94.937,360.220 93.936,360.000 93.800 C 359.780 93.664,359.600 93.023,359.600 92.376 C 359.600 91.729,359.420 91.200,359.200 91.200 C 358.980 91.200,358.800 90.964,358.800 90.675 C 358.800 89.949,356.870 86.013,356.172 85.314 C 355.857 85.000,355.600 84.574,355.600 84.369 C 355.600 83.768,349.996 78.400,349.369 78.400 C 349.056 78.400,348.800 78.239,348.800 78.042 C 348.800 77.489,343.638 75.129,341.926 74.899 C 341.087 74.787,340.400 74.538,340.400 74.347 C 340.400 74.156,339.410 74.000,338.200 74.000 C 336.990 74.000,336.000 73.820,336.000 73.600 C 336.000 73.367,334.675 73.200,332.824 73.200 C 331.077 73.200,329.536 73.380,329.400 73.600 M71.500 87.076 C 72.435 87.188,73.200 87.442,73.200 87.640 C 73.200 87.838,73.560 88.000,74.000 88.000 C 74.440 88.000,74.800 88.180,74.800 88.400 C 74.800 88.620,75.025 88.804,75.300 88.810 C 76.052 88.825,79.602 91.537,79.892 92.318 C 80.031 92.693,80.472 93.291,80.872 93.647 C 81.273 94.003,81.600 94.588,81.600 94.947 C 81.600 95.306,81.780 95.600,82.000 95.600 C 82.220 95.600,82.400 96.140,82.400 96.800 C 82.400 97.460,82.580 98.000,82.800 98.000 C 83.040 98.000,83.200 99.600,83.200 102.000 C 83.200 104.200,83.043 106.000,82.850 106.000 C 82.658 106.000,82.396 106.518,82.270 107.152 C 82.143 107.785,81.760 108.582,81.420 108.923 C 81.079 109.264,80.796 109.691,80.791 109.871 C 80.777 110.378,76.571 114.400,76.055 114.400 C 75.805 114.400,75.600 114.580,75.600 114.800 C 75.600 115.020,75.240 115.200,74.800 115.200 C 74.360 115.200,74.000 115.380,74.000 115.600 C 74.000 115.820,73.460 116.000,72.800 116.000 C 72.140 116.000,71.600 116.180,71.600 116.400 C 71.600 116.633,70.267 116.800,68.400 116.800 C 66.533 116.800,65.200 116.633,65.200 116.400 C 65.200 116.180,64.660 116.000,64.000 116.000 C 63.340 116.000,62.800 115.820,62.800 115.600 C 62.800 115.380,62.440 115.200,62.000 115.200 C 61.560 115.200,61.200 115.020,61.200 114.800 C 61.200 114.580,60.916 114.400,60.569 114.400 C 59.260 114.400,54.400 108.434,54.400 106.828 C 54.400 106.373,54.220 106.000,54.000 106.000 C 53.760 106.000,53.600 104.408,53.600 102.024 C 53.600 99.804,53.777 97.938,54.000 97.800 C 54.220 97.664,54.400 97.113,54.400 96.576 C 54.400 96.039,54.580 95.600,54.800 95.600 C 55.020 95.600,55.200 95.240,55.200 94.800 C 55.200 94.360,55.368 94.000,55.573 94.000 C 55.778 94.000,56.060 93.643,56.198 93.206 C 56.523 92.181,58.581 90.123,59.606 89.798 C 60.043 89.660,60.400 89.378,60.400 89.173 C 60.400 88.968,60.760 88.800,61.200 88.800 C 61.640 88.800,62.000 88.620,62.000 88.400 C 62.000 88.180,62.360 88.000,62.800 88.000 C 63.240 88.000,63.600 87.820,63.600 87.600 C 63.600 87.380,64.275 87.197,65.100 87.194 C 65.925 87.191,66.870 87.006,67.200 86.784 C 67.530 86.563,68.250 86.491,68.800 86.626 C 69.350 86.761,70.565 86.963,71.500 87.076 M334.000 86.800 C 334.000 87.020,334.632 87.200,335.405 87.200 C 336.178 87.200,337.123 87.357,337.505 87.550 C 340.843 89.230,341.801 89.864,343.362 91.425 C 344.345 92.409,345.264 93.570,345.402 94.007 C 345.541 94.443,345.822 94.800,346.027 94.800 C 346.232 94.800,346.400 95.239,346.400 95.776 C 346.400 96.313,346.580 96.864,346.800 97.000 C 347.020 97.136,347.200 97.856,347.200 98.600 C 347.200 99.344,347.380 100.064,347.600 100.200 C 347.820 100.336,348.000 101.157,348.000 102.024 C 348.000 102.891,347.820 103.600,347.600 103.600 C 347.380 103.600,347.200 104.320,347.200 105.200 C 347.200 106.080,347.020 106.800,346.800 106.800 C 346.580 106.800,346.400 107.160,346.400 107.600 C 346.400 108.040,346.220 108.400,346.000 108.400 C 345.780 108.400,345.600 108.577,345.600 108.793 C 345.600 109.315,343.088 112.744,342.682 112.775 C 342.507 112.789,341.928 113.236,341.395 113.769 C 340.862 114.302,340.060 114.854,339.613 114.996 C 339.166 115.138,338.800 115.422,338.800 115.627 C 338.800 115.832,338.260 116.000,337.600 116.000 C 336.940 116.000,336.400 116.180,336.400 116.400 C 336.400 116.637,334.933 116.800,332.800 116.800 C 330.667 116.800,329.200 116.637,329.200 116.400 C 329.200 116.180,328.660 116.000,328.000 116.000 C 327.340 116.000,326.800 115.820,326.800 115.600 C 326.800 115.380,326.532 115.200,326.205 115.200 C 325.072 115.200,320.369 110.682,319.531 108.789 C 319.241 108.135,318.869 107.600,318.702 107.600 C 318.536 107.600,318.400 107.060,318.400 106.400 C 318.400 105.740,318.220 105.200,318.000 105.200 C 317.767 105.200,317.600 103.875,317.600 102.024 C 317.600 100.277,317.780 98.736,318.000 98.600 C 318.220 98.464,318.400 98.039,318.400 97.656 C 318.400 96.781,319.299 94.807,319.700 94.803 C 319.865 94.801,320.000 94.511,320.000 94.158 C 320.000 93.360,324.604 88.800,325.410 88.800 C 325.735 88.800,326.000 88.620,326.000 88.400 C 326.000 88.180,326.349 88.000,326.776 88.000 C 327.203 88.000,327.664 87.820,327.800 87.600 C 327.936 87.380,328.746 87.200,329.600 87.200 C 330.454 87.200,331.264 87.020,331.400 86.800 C 331.536 86.580,332.177 86.400,332.824 86.400 C 333.471 86.400,334.000 86.580,334.000 86.800 M199.800 99.200 C 199.664 99.420,199.023 99.600,198.376 99.600 C 197.729 99.600,197.200 99.780,197.200 100.000 C 197.200 100.220,196.855 100.400,196.434 100.400 C 195.967 100.400,195.459 100.869,195.136 101.600 C 194.844 102.260,194.469 102.800,194.302 102.800 C 194.136 102.800,194.000 106.130,194.000 110.200 L 194.000 117.600 192.200 117.600 C 191.210 117.600,190.400 117.780,190.400 118.000 C 190.400 118.229,189.200 118.400,187.600 118.400 C 186.000 118.400,184.800 118.571,184.800 118.800 C 184.800 119.020,184.080 119.200,183.200 119.200 C 182.320 119.200,181.600 119.380,181.600 119.600 C 181.600 119.820,180.880 120.000,180.000 120.000 C 179.120 120.000,178.400 120.180,178.400 120.400 C 178.400 120.620,177.770 120.800,177.000 120.800 C 176.230 120.800,175.600 120.980,175.600 121.200 C 175.600 121.420,175.161 121.600,174.624 121.600 C 174.087 121.600,173.536 121.780,173.400 122.000 C 173.264 122.220,172.803 122.400,172.376 122.400 C 171.949 122.400,171.600 122.580,171.600 122.800 C 171.600 123.020,171.060 123.200,170.400 123.200 C 169.740 123.200,169.200 123.380,169.200 123.600 C 169.200 123.820,168.840 124.000,168.400 124.000 C 167.960 124.000,167.600 124.180,167.600 124.400 C 167.600 124.620,167.322 124.800,166.982 124.800 C 166.157 124.800,159.143 128.227,158.169 129.106 C 157.746 129.488,156.905 130.055,156.300 130.368 C 155.695 130.680,155.200 131.085,155.200 131.268 C 155.200 131.450,154.928 131.600,154.596 131.600 C 154.264 131.600,153.428 132.140,152.737 132.800 C 152.046 133.460,151.316 134.000,151.115 134.000 C 150.913 134.000,149.871 134.900,148.800 136.000 C 147.729 137.100,146.694 138.000,146.501 138.000 C 146.058 138.000,145.118 138.914,142.600 141.796 C 141.500 143.054,139.835 144.870,138.900 145.831 C 137.965 146.793,137.200 147.770,137.200 148.003 C 137.200 148.655,134.505 151.200,133.813 151.200 C 133.476 151.200,133.200 151.020,133.200 150.800 C 133.200 150.580,132.840 150.400,132.400 150.400 C 131.960 150.400,131.600 150.220,131.600 150.000 C 131.600 149.780,131.280 149.600,130.888 149.600 C 130.497 149.600,129.917 149.240,129.600 148.800 C 129.283 148.360,128.703 148.000,128.312 148.000 C 127.920 148.000,127.600 147.820,127.600 147.600 C 127.600 147.380,127.317 147.200,126.971 147.200 C 126.626 147.200,126.064 146.921,125.723 146.580 C 125.382 146.240,124.585 145.857,123.952 145.730 C 123.318 145.604,122.800 145.343,122.800 145.150 C 122.800 144.958,121.990 144.800,121.000 144.800 C 120.010 144.800,119.200 144.980,119.200 145.200 C 119.200 145.420,118.840 145.600,118.400 145.600 C 117.960 145.600,117.600 145.780,117.600 146.000 C 117.600 146.220,117.255 146.400,116.834 146.400 C 116.367 146.400,115.859 146.869,115.536 147.600 C 115.244 148.260,114.869 148.800,114.702 148.800 C 114.536 148.800,114.400 150.060,114.400 151.600 C 114.400 153.200,114.571 154.400,114.800 154.400 C 115.020 154.400,115.200 154.678,115.200 155.018 C 115.200 156.157,116.761 157.388,120.697 159.352 C 121.190 159.599,121.595 159.935,121.597 160.100 C 121.599 160.265,121.960 160.400,122.400 160.400 C 122.840 160.400,123.200 160.580,123.200 160.800 C 123.200 161.020,123.520 161.200,123.912 161.200 C 124.303 161.200,124.883 161.560,125.200 162.000 C 125.517 162.440,125.971 162.800,126.208 162.800 C 126.996 162.800,127.557 163.674,127.205 164.351 C 126.484 165.736,125.654 167.877,125.170 169.600 C 124.893 170.590,124.515 171.571,124.333 171.780 C 124.150 171.989,124.000 172.754,124.000 173.480 C 124.000 174.206,123.820 174.800,123.600 174.800 C 123.380 174.800,123.200 175.329,123.200 175.976 C 123.200 176.623,123.020 177.264,122.800 177.400 C 122.580 177.536,122.400 178.256,122.400 179.000 C 122.400 179.744,122.220 180.464,122.000 180.600 C 121.780 180.736,121.600 181.726,121.600 182.800 C 121.600 183.874,121.420 184.864,121.200 185.000 C 120.979 185.137,120.800 186.937,120.800 189.024 C 120.800 191.275,120.638 192.800,120.400 192.800 C 120.155 192.800,120.000 194.733,120.000 197.800 C 120.000 200.867,120.155 202.800,120.400 202.800 C 120.639 202.800,120.800 204.333,120.800 206.600 C 120.800 208.867,120.961 210.400,121.200 210.400 C 121.422 210.400,121.600 211.467,121.600 212.800 C 121.600 214.133,121.778 215.200,122.000 215.200 C 122.220 215.200,122.400 215.920,122.400 216.800 C 122.400 217.680,122.580 218.400,122.800 218.400 C 123.020 218.400,123.200 218.940,123.200 219.600 C 123.200 220.260,123.380 220.800,123.600 220.800 C 123.820 220.800,124.000 221.430,124.000 222.200 C 124.000 222.970,124.180 223.600,124.400 223.600 C 124.620 223.600,124.799 223.915,124.798 224.300 C 124.796 225.093,126.066 228.895,126.435 229.200 C 127.645 230.201,126.732 233.200,125.217 233.200 C 124.988 233.200,124.800 233.380,124.800 233.600 C 124.800 233.820,124.440 234.000,124.000 234.000 C 123.560 234.000,123.200 234.180,123.200 234.400 C 123.200 234.620,122.880 234.800,122.488 234.800 C 122.097 234.800,121.517 235.160,121.200 235.600 C 120.883 236.040,120.303 236.400,119.912 236.400 C 119.520 236.400,119.200 236.580,119.200 236.800 C 119.200 237.020,118.924 237.200,118.587 237.200 C 117.791 237.200,115.200 239.791,115.200 240.587 C 115.200 240.924,115.020 241.200,114.800 241.200 C 114.574 241.200,114.400 242.333,114.400 243.800 C 114.400 245.267,114.574 246.400,114.800 246.400 C 115.020 246.400,115.200 246.678,115.200 247.018 C 115.200 247.807,116.977 249.600,117.758 249.600 C 118.085 249.600,118.464 249.780,118.600 250.000 C 118.736 250.220,119.726 250.400,120.800 250.400 C 121.874 250.400,122.864 250.220,123.000 250.000 C 123.136 249.780,123.647 249.600,124.135 249.600 C 124.624 249.600,125.283 249.240,125.600 248.800 C 125.917 248.360,126.497 248.000,126.888 248.000 C 127.280 248.000,127.600 247.820,127.600 247.600 C 127.600 247.380,127.960 247.200,128.400 247.200 C 128.840 247.200,129.200 247.020,129.200 246.800 C 129.200 246.580,129.436 246.400,129.725 246.400 C 130.013 246.400,130.636 246.040,131.108 245.600 C 131.580 245.160,132.244 244.800,132.583 244.800 C 132.922 244.800,133.200 244.620,133.200 244.400 C 133.200 244.180,133.491 244.000,133.846 244.000 C 134.506 244.000,137.200 246.664,137.200 247.318 C 137.200 247.516,137.740 248.183,138.400 248.800 C 139.060 249.417,139.600 250.097,139.600 250.312 C 139.600 250.896,146.585 258.000,147.158 258.000 C 147.430 258.000,148.529 258.900,149.600 260.000 C 150.671 261.100,151.790 262.000,152.086 262.000 C 152.381 262.000,152.883 262.360,153.200 262.800 C 153.517 263.240,154.057 263.600,154.400 263.600 C 154.743 263.600,155.283 263.960,155.600 264.400 C 155.917 264.840,156.457 265.200,156.800 265.200 C 157.143 265.200,157.683 265.560,158.000 266.000 C 158.317 266.440,158.807 266.800,159.088 266.800 C 159.370 266.800,159.600 266.980,159.600 267.200 C 159.600 267.420,159.960 267.600,160.400 267.600 C 160.840 267.600,161.200 267.780,161.200 268.000 C 161.200 268.220,161.560 268.400,162.000 268.400 C 162.440 268.400,162.800 268.580,162.800 268.800 C 162.800 269.020,163.160 269.200,163.600 269.200 C 164.040 269.200,164.400 269.380,164.400 269.600 C 164.400 269.820,164.760 270.000,165.200 270.000 C 165.640 270.000,166.001 270.135,166.003 270.300 C 166.007 270.659,167.944 271.600,168.680 271.600 C 168.966 271.600,169.200 271.780,169.200 272.000 C 169.200 272.220,169.725 272.400,170.367 272.400 C 171.008 272.400,171.593 272.541,171.667 272.713 C 171.868 273.187,178.292 275.200,179.604 275.200 C 180.236 275.200,180.864 275.380,181.000 275.600 C 181.136 275.820,181.867 276.000,182.624 276.000 C 183.381 276.000,184.000 276.180,184.000 276.400 C 184.000 276.629,185.200 276.800,186.800 276.800 C 188.400 276.800,189.600 276.971,189.600 277.200 C 189.600 277.420,190.590 277.600,191.800 277.600 L 194.000 277.600 194.000 285.000 C 194.000 289.667,194.148 292.400,194.400 292.400 C 194.620 292.400,194.800 292.683,194.800 293.029 C 194.800 294.148,196.943 295.600,198.595 295.600 C 199.148 295.600,199.600 295.780,199.600 296.000 C 199.600 296.220,200.039 296.400,200.576 296.400 C 201.113 296.400,201.664 296.220,201.800 296.000 C 201.936 295.780,202.507 295.600,203.070 295.600 C 206.084 295.600,207.247 292.510,207.473 283.900 L 207.638 277.600 209.419 277.600 C 210.399 277.600,211.200 277.420,211.200 277.200 C 211.200 276.971,212.400 276.800,214.000 276.800 C 215.600 276.800,216.800 276.629,216.800 276.400 C 216.800 276.180,217.520 276.000,218.400 276.000 C 219.280 276.000,220.000 275.843,220.000 275.652 C 220.000 275.460,221.075 275.182,222.388 275.033 C 223.701 274.885,224.882 274.591,225.011 274.382 C 225.141 274.172,225.676 274.000,226.200 274.000 C 226.724 274.000,227.242 273.856,227.351 273.679 C 227.460 273.503,228.461 273.110,229.575 272.807 C 230.689 272.504,231.600 272.108,231.600 271.928 C 231.600 271.747,231.935 271.600,232.344 271.600 C 233.146 271.600,238.113 269.195,238.333 268.700 C 238.407 268.535,238.812 268.400,239.233 268.400 C 239.655 268.400,240.000 268.220,240.000 268.000 C 240.000 267.780,240.236 267.600,240.525 267.600 C 240.813 267.600,241.398 267.285,241.825 266.900 C 242.251 266.515,243.095 265.945,243.700 265.632 C 244.305 265.320,244.800 264.915,244.800 264.732 C 244.800 264.550,245.120 264.400,245.512 264.400 C 245.903 264.400,246.483 264.040,246.800 263.600 C 247.117 263.160,247.606 262.800,247.886 262.800 C 248.167 262.800,249.315 261.900,250.439 260.800 C 251.562 259.700,252.687 258.800,252.939 258.800 C 253.496 258.800,262.800 249.295,262.800 248.726 C 262.800 248.503,263.340 247.817,264.000 247.200 C 264.660 246.583,265.200 245.868,265.200 245.611 C 265.200 244.940,266.234 244.000,266.971 244.000 C 267.317 244.000,267.600 244.180,267.600 244.400 C 267.600 244.620,267.960 244.800,268.400 244.800 C 268.840 244.800,269.200 244.980,269.200 245.200 C 269.200 245.420,269.478 245.600,269.817 245.600 C 270.156 245.600,270.820 245.960,271.292 246.400 C 271.764 246.840,272.387 247.200,272.675 247.200 C 272.964 247.200,273.200 247.380,273.200 247.600 C 273.200 247.820,273.560 248.000,274.000 248.000 C 274.440 248.000,274.800 248.180,274.800 248.400 C 274.800 248.620,275.070 248.800,275.400 248.800 C 275.730 248.800,276.000 248.980,276.000 249.200 C 276.000 249.420,276.349 249.600,276.776 249.600 C 277.203 249.600,277.664 249.780,277.800 250.000 C 277.936 250.220,279.027 250.400,280.224 250.400 C 281.421 250.400,282.400 250.220,282.400 250.000 C 282.400 249.780,282.676 249.600,283.013 249.600 C 284.907 249.600,286.400 246.961,286.400 243.613 C 286.400 241.738,286.233 240.400,286.000 240.400 C 285.780 240.400,285.600 240.140,285.600 239.823 C 285.600 239.505,285.060 238.926,284.400 238.536 C 283.740 238.146,283.200 237.686,283.200 237.514 C 283.200 237.341,282.880 237.200,282.488 237.200 C 282.097 237.200,281.517 236.840,281.200 236.400 C 280.883 235.960,280.303 235.600,279.912 235.600 C 279.520 235.600,279.200 235.420,279.200 235.200 C 279.200 234.980,278.840 234.800,278.400 234.800 C 277.960 234.800,277.600 234.642,277.600 234.449 C 277.600 234.255,277.060 233.873,276.400 233.600 C 275.740 233.327,275.200 232.966,275.200 232.798 C 275.200 232.630,274.847 232.401,274.416 232.288 C 273.587 232.072,273.710 230.836,274.756 228.882 C 275.000 228.426,275.200 227.591,275.200 227.026 C 275.200 226.462,275.380 226.000,275.600 226.000 C 275.820 226.000,276.000 225.640,276.000 225.200 C 276.000 224.760,276.180 224.400,276.400 224.400 C 276.620 224.400,276.800 223.770,276.800 223.000 C 276.800 222.230,276.980 221.600,277.200 221.600 C 277.420 221.600,277.600 220.970,277.600 220.200 C 277.600 219.430,277.780 218.800,278.000 218.800 C 278.220 218.800,278.400 218.170,278.400 217.400 C 278.400 216.630,278.580 216.000,278.800 216.000 C 279.039 216.000,279.200 214.467,279.200 212.200 C 279.200 209.933,279.039 208.400,278.800 208.400 C 278.580 208.400,278.400 208.117,278.400 207.771 C 278.400 206.963,277.437 206.000,276.629 206.000 C 276.283 206.000,276.000 205.820,276.000 205.600 C 276.000 205.369,274.733 205.200,273.000 205.200 C 271.267 205.200,270.000 205.369,270.000 205.600 C 270.000 205.820,269.722 206.000,269.382 206.000 C 268.501 206.000,266.800 207.817,266.800 208.758 C 266.800 209.195,266.620 209.664,266.400 209.800 C 266.180 209.936,266.000 210.656,266.000 211.400 C 266.000 212.144,265.820 212.864,265.600 213.000 C 265.380 213.136,265.200 213.867,265.200 214.624 C 265.200 215.381,265.020 216.000,264.800 216.000 C 264.580 216.000,264.400 216.540,264.400 217.200 C 264.400 217.860,264.220 218.400,264.000 218.400 C 263.780 218.400,263.600 218.940,263.600 219.600 C 263.600 220.260,263.453 220.800,263.272 220.800 C 263.092 220.800,262.700 221.700,262.400 222.800 C 262.100 223.900,261.708 224.800,261.528 224.800 C 261.347 224.800,261.200 225.145,261.200 225.567 C 261.200 225.988,261.058 226.393,260.885 226.467 C 260.495 226.632,258.400 230.909,258.400 231.540 C 258.400 231.793,258.220 232.000,258.000 232.000 C 257.780 232.000,257.600 232.270,257.600 232.600 C 257.600 232.930,257.420 233.200,257.200 233.200 C 256.980 233.200,256.800 233.436,256.800 233.725 C 256.800 234.013,256.440 234.636,256.000 235.108 C 255.560 235.580,255.200 236.132,255.200 236.335 C 255.200 236.538,254.480 237.445,253.600 238.352 C 252.720 239.259,252.000 240.231,252.000 240.512 C 252.000 240.793,251.612 241.288,251.137 241.612 C 250.662 241.935,248.595 243.865,246.542 245.900 C 244.490 247.935,242.700 249.600,242.566 249.600 C 242.431 249.600,241.817 250.140,241.200 250.800 C 240.583 251.460,239.831 252.000,239.528 252.000 C 239.225 252.000,238.717 252.360,238.400 252.800 C 238.083 253.240,237.543 253.600,237.200 253.600 C 236.857 253.600,236.317 253.960,236.000 254.400 C 235.683 254.840,235.103 255.200,234.712 255.200 C 234.320 255.200,234.000 255.380,234.000 255.600 C 234.000 255.820,233.640 256.000,233.200 256.000 C 232.760 256.000,232.400 256.180,232.400 256.400 C 232.400 256.620,232.040 256.800,231.600 256.800 C 231.160 256.800,230.800 256.938,230.800 257.106 C 230.800 257.417,228.997 258.267,226.300 259.227 C 225.475 259.520,224.800 259.905,224.800 260.080 C 224.800 260.256,224.260 260.400,223.600 260.400 C 222.940 260.400,222.400 260.580,222.400 260.800 C 222.400 261.020,221.860 261.200,221.200 261.200 C 220.540 261.200,220.000 261.380,220.000 261.600 C 220.000 261.820,219.471 262.000,218.824 262.000 C 218.177 262.000,217.536 262.180,217.400 262.400 C 217.264 262.620,216.454 262.800,215.600 262.800 C 214.746 262.800,213.936 262.980,213.800 263.200 C 213.664 263.420,212.573 263.600,211.376 263.600 C 210.179 263.600,209.200 263.780,209.200 264.000 C 209.200 264.255,206.000 264.400,200.400 264.400 C 194.800 264.400,191.600 264.255,191.600 264.000 C 191.600 263.780,190.621 263.600,189.424 263.600 C 188.227 263.600,187.136 263.420,187.000 263.200 C 186.864 262.980,186.133 262.800,185.376 262.800 C 184.619 262.800,184.000 262.620,184.000 262.400 C 184.000 262.180,183.280 262.000,182.400 262.000 C 181.520 262.000,180.800 261.853,180.800 261.672 C 180.800 261.492,179.889 261.096,178.775 260.793 C 177.661 260.490,176.660 260.097,176.551 259.921 C 176.442 259.744,175.958 259.594,175.476 259.587 C 174.994 259.580,174.251 259.310,173.824 258.987 C 173.396 258.664,172.721 258.400,172.324 258.400 C 171.926 258.400,171.600 258.220,171.600 258.000 C 171.600 257.780,171.240 257.600,170.800 257.600 C 170.360 257.600,170.000 257.420,170.000 257.200 C 170.000 256.980,169.640 256.800,169.200 256.800 C 168.760 256.800,168.400 256.620,168.400 256.400 C 168.400 256.180,168.080 256.000,167.688 256.000 C 167.297 256.000,166.717 255.640,166.400 255.200 C 166.083 254.760,165.503 254.400,165.112 254.400 C 164.720 254.400,164.400 254.250,164.400 254.068 C 164.400 253.885,163.905 253.481,163.300 253.170 C 162.695 252.860,161.909 252.289,161.553 251.903 C 161.197 251.516,160.726 251.200,160.507 251.200 C 159.581 251.200,147.200 238.876,147.200 237.955 C 147.200 237.716,146.660 237.017,146.000 236.400 C 145.340 235.783,144.800 234.991,144.800 234.640 C 144.800 234.288,144.620 234.000,144.400 234.000 C 144.180 234.000,144.000 233.764,144.000 233.475 C 144.000 233.187,143.640 232.564,143.200 232.092 C 142.760 231.620,142.400 230.956,142.400 230.617 C 142.400 230.278,142.220 230.000,142.000 230.000 C 141.780 230.000,141.600 229.819,141.600 229.598 C 141.600 229.377,141.150 228.263,140.600 227.123 C 140.050 225.983,139.600 224.814,139.600 224.525 C 139.600 224.236,139.420 224.000,139.200 224.000 C 138.980 224.000,138.800 223.640,138.800 223.200 C 138.800 222.760,138.620 222.400,138.400 222.400 C 138.180 222.400,138.000 221.860,138.000 221.200 C 138.000 220.540,137.820 220.000,137.600 220.000 C 137.380 220.000,137.200 219.561,137.200 219.024 C 137.200 218.487,137.020 217.936,136.800 217.800 C 136.580 217.664,136.400 217.023,136.400 216.376 C 136.400 215.729,136.220 215.200,136.000 215.200 C 135.780 215.200,135.600 214.480,135.600 213.600 C 135.600 212.720,135.420 212.000,135.200 212.000 C 134.980 212.000,134.800 211.111,134.800 210.024 C 134.800 208.937,134.620 207.936,134.400 207.800 C 134.179 207.664,134.000 205.870,134.000 203.800 C 134.000 201.730,133.821 199.936,133.600 199.800 C 133.380 199.664,133.200 198.674,133.200 197.600 C 133.200 196.526,133.380 195.536,133.600 195.400 C 133.820 195.264,134.000 193.554,134.000 191.600 C 134.000 189.646,134.180 187.936,134.400 187.800 C 134.620 187.664,134.800 186.573,134.800 185.376 C 134.800 184.179,134.980 183.200,135.200 183.200 C 135.420 183.200,135.600 182.581,135.600 181.824 C 135.600 181.067,135.780 180.336,136.000 180.200 C 136.220 180.064,136.400 179.423,136.400 178.776 C 136.400 178.129,136.580 177.600,136.800 177.600 C 137.020 177.600,137.200 177.060,137.200 176.400 C 137.200 175.740,137.380 175.200,137.600 175.200 C 137.820 175.200,138.000 174.893,138.000 174.518 C 138.000 174.144,138.810 172.172,139.800 170.137 C 140.790 168.102,141.600 166.158,141.600 165.818 C 141.600 165.478,141.780 165.200,142.000 165.200 C 142.220 165.200,142.400 164.880,142.400 164.488 C 142.400 164.097,142.760 163.517,143.200 163.200 C 143.640 162.883,144.000 162.303,144.000 161.912 C 144.000 161.520,144.180 161.200,144.400 161.200 C 144.620 161.200,144.800 160.957,144.800 160.659 C 144.800 160.362,145.340 159.554,146.000 158.863 C 146.660 158.172,147.200 157.521,147.200 157.417 C 147.200 157.312,148.280 156.105,149.600 154.735 C 150.920 153.365,152.004 152.054,152.009 151.822 C 152.013 151.590,152.675 150.860,153.478 150.200 C 154.282 149.540,155.910 148.055,157.096 146.900 C 158.282 145.745,159.438 144.800,159.666 144.800 C 159.893 144.800,160.583 144.260,161.200 143.600 C 161.817 142.940,162.609 142.400,162.960 142.400 C 163.312 142.400,163.600 142.259,163.600 142.086 C 163.600 141.914,164.677 141.239,165.993 140.586 C 167.310 139.934,168.390 139.265,168.393 139.100 C 168.397 138.935,168.760 138.800,169.200 138.800 C 169.640 138.800,170.000 138.620,170.000 138.400 C 170.000 138.180,170.345 138.000,170.767 138.000 C 171.188 138.000,171.593 137.865,171.667 137.700 C 171.888 137.201,175.222 135.600,176.038 135.600 C 176.457 135.600,176.800 135.420,176.800 135.200 C 176.800 134.980,177.340 134.800,178.000 134.800 C 178.660 134.800,179.200 134.620,179.200 134.400 C 179.200 134.180,179.740 134.000,180.400 134.000 C 181.060 134.000,181.600 133.820,181.600 133.600 C 181.600 133.380,182.230 133.200,183.000 133.200 C 183.770 133.200,184.400 133.020,184.400 132.800 C 184.400 132.580,185.030 132.400,185.800 132.400 C 186.570 132.400,187.200 132.220,187.200 132.000 C 187.200 131.774,188.333 131.600,189.800 131.600 C 191.267 131.600,192.400 131.426,192.400 131.200 C 192.400 130.946,195.467 130.800,200.800 130.800 C 206.133 130.800,209.200 130.946,209.200 131.200 C 209.200 131.420,210.010 131.600,211.000 131.600 C 211.990 131.600,212.800 131.780,212.800 132.000 C 212.800 132.220,213.700 132.400,214.800 132.400 C 215.900 132.400,216.800 132.580,216.800 132.800 C 216.800 133.020,217.340 133.200,218.000 133.200 C 218.660 133.200,219.200 133.380,219.200 133.600 C 219.200 133.820,219.740 134.000,220.400 134.000 C 221.060 134.000,221.600 134.180,221.600 134.400 C 221.600 134.620,222.140 134.800,222.800 134.800 C 223.460 134.800,224.000 134.980,224.000 135.200 C 224.000 135.420,224.343 135.600,224.762 135.600 C 225.578 135.600,228.912 137.201,229.133 137.700 C 229.207 137.865,229.612 138.000,230.033 138.000 C 230.455 138.000,230.800 138.180,230.800 138.400 C 230.800 138.620,231.160 138.800,231.600 138.800 C 232.040 138.800,232.400 138.980,232.400 139.200 C 232.400 139.420,232.760 139.600,233.200 139.600 C 233.640 139.600,234.000 139.753,234.000 139.939 C 234.000 140.126,234.720 140.603,235.600 141.000 C 236.480 141.397,237.200 141.874,237.200 142.061 C 237.200 142.247,237.520 142.400,237.912 142.400 C 238.303 142.400,238.883 142.760,239.200 143.200 C 239.517 143.640,240.004 144.000,240.282 144.000 C 240.560 144.000,241.697 144.855,242.809 145.900 C 247.345 150.165,250.400 153.174,250.400 153.376 C 250.400 153.665,251.518 155.017,253.100 156.640 C 253.815 157.373,254.400 158.120,254.400 158.298 C 254.400 158.477,254.760 158.883,255.200 159.200 C 255.640 159.517,256.000 160.057,256.000 160.400 C 256.000 160.743,256.360 161.283,256.800 161.600 C 257.240 161.917,257.600 162.482,257.600 162.855 C 257.600 163.228,257.746 163.593,257.925 163.667 C 258.337 163.836,261.200 169.638,261.200 170.304 C 261.200 170.577,261.380 170.800,261.600 170.800 C 261.820 170.800,262.000 171.149,262.000 171.576 C 262.000 172.003,262.180 172.464,262.400 172.600 C 262.620 172.736,262.800 173.197,262.800 173.624 C 262.800 174.051,262.980 174.400,263.200 174.400 C 263.420 174.400,263.600 174.940,263.600 175.600 C 263.600 176.260,263.780 176.800,264.000 176.800 C 264.220 176.800,264.400 177.340,264.400 178.000 C 264.400 178.660,264.580 179.200,264.800 179.200 C 265.020 179.200,265.200 179.920,265.200 180.800 C 265.200 181.680,265.380 182.400,265.600 182.400 C 265.820 182.400,266.000 183.120,266.000 184.000 C 266.000 184.880,266.180 185.600,266.400 185.600 C 266.620 185.600,266.800 186.005,266.800 186.500 C 266.801 187.596,268.447 189.600,269.347 189.600 C 269.706 189.600,270.000 189.780,270.000 190.000 C 270.000 190.231,271.267 190.400,273.000 190.400 C 274.650 190.400,276.001 190.265,276.003 190.100 C 276.004 189.935,276.544 189.493,277.203 189.119 C 277.861 188.744,278.400 188.159,278.400 187.819 C 278.400 187.478,278.580 187.200,278.800 187.200 C 279.039 187.200,279.200 185.667,279.200 183.400 C 279.200 181.133,279.039 179.600,278.800 179.600 C 278.580 179.600,278.400 178.970,278.400 178.200 C 278.400 177.430,278.220 176.800,278.000 176.800 C 277.780 176.800,277.600 176.170,277.600 175.400 C 277.600 174.630,277.420 174.000,277.200 174.000 C 276.980 174.000,276.800 173.381,276.800 172.624 C 276.800 171.867,276.620 171.136,276.400 171.000 C 276.180 170.864,276.000 170.403,276.000 169.976 C 276.000 169.549,275.820 169.200,275.600 169.200 C 275.380 169.200,275.200 168.926,275.200 168.590 C 275.200 168.255,274.870 167.040,274.466 165.890 C 273.680 163.653,273.727 162.800,274.633 162.800 C 274.945 162.800,275.200 162.620,275.200 162.400 C 275.200 162.180,275.520 162.000,275.912 162.000 C 276.303 162.000,276.883 161.640,277.200 161.200 C 277.517 160.760,278.097 160.400,278.488 160.400 C 278.880 160.400,279.200 160.220,279.200 160.000 C 279.200 159.780,279.560 159.600,280.000 159.600 C 280.440 159.600,280.800 159.420,280.800 159.200 C 280.800 158.980,281.160 158.800,281.600 158.800 C 282.040 158.800,282.405 158.665,282.411 158.500 C 282.417 158.335,283.137 157.759,284.011 157.220 C 284.885 156.680,285.600 156.005,285.600 155.720 C 285.600 155.434,285.780 155.200,286.000 155.200 C 287.107 155.200,286.440 148.560,285.203 147.266 C 283.218 145.189,279.887 144.209,278.095 145.174 C 277.713 145.379,276.815 145.783,276.100 146.071 C 275.385 146.360,274.800 146.731,274.800 146.898 C 274.800 147.064,274.480 147.200,274.088 147.200 C 273.697 147.200,273.117 147.560,272.800 148.000 C 272.483 148.440,271.903 148.800,271.512 148.800 C 271.120 148.800,270.800 148.980,270.800 149.200 C 270.800 149.420,270.440 149.600,270.000 149.600 C 269.560 149.600,269.199 149.735,269.197 149.900 C 269.194 150.214,267.294 151.200,266.692 151.200 C 266.242 151.200,265.200 150.161,265.200 149.713 C 265.200 149.523,264.480 148.572,263.600 147.600 C 262.720 146.628,261.996 145.645,261.991 145.416 C 261.986 145.187,261.241 144.370,260.336 143.600 C 259.431 142.830,258.490 141.962,258.245 141.670 C 256.866 140.028,253.072 136.400,252.734 136.400 C 252.516 136.400,251.676 135.725,250.869 134.900 C 250.061 134.075,248.905 133.145,248.300 132.832 C 247.695 132.520,247.200 132.115,247.200 131.932 C 247.200 131.750,246.964 131.600,246.675 131.600 C 246.387 131.600,245.764 131.240,245.292 130.800 C 244.820 130.360,244.222 130.000,243.964 130.000 C 243.705 130.000,243.203 129.680,242.847 129.290 C 241.997 128.357,233.372 124.000,232.374 124.000 C 231.949 124.000,231.600 123.820,231.600 123.600 C 231.600 123.380,231.060 123.200,230.400 123.200 C 229.740 123.200,229.200 123.020,229.200 122.800 C 229.200 122.580,228.840 122.400,228.400 122.400 C 227.960 122.400,227.600 122.220,227.600 122.000 C 227.600 121.780,227.060 121.600,226.400 121.600 C 225.740 121.600,225.200 121.420,225.200 121.200 C 225.200 120.980,224.570 120.800,223.800 120.800 C 223.030 120.800,222.400 120.620,222.400 120.400 C 222.400 120.180,221.781 120.000,221.024 120.000 C 220.267 120.000,219.536 119.820,219.400 119.600 C 219.264 119.380,218.544 119.200,217.800 119.200 C 217.056 119.200,216.336 119.020,216.200 118.800 C 216.064 118.580,214.703 118.400,213.176 118.400 C 211.592 118.400,210.400 118.228,210.400 118.000 C 210.400 117.780,209.779 117.600,209.019 117.600 L 207.638 117.600 207.473 111.300 C 207.238 102.334,206.095 99.600,202.584 99.600 C 201.849 99.600,201.136 99.420,201.000 99.200 C 200.864 98.980,200.594 98.800,200.400 98.800 C 200.206 98.800,199.936 98.980,199.800 99.200 M81.400 130.400 C 81.536 130.620,82.537 130.800,83.624 130.800 C 84.711 130.800,85.600 130.980,85.600 131.200 C 85.600 131.420,85.960 131.600,86.400 131.600 C 86.840 131.600,87.200 131.780,87.200 132.000 C 87.200 132.220,87.560 132.400,88.000 132.400 C 88.440 132.400,88.800 132.580,88.800 132.800 C 88.800 133.020,89.084 133.200,89.431 133.200 C 90.422 133.200,94.307 137.438,95.232 139.528 C 95.542 140.227,95.931 140.800,96.098 140.800 C 96.264 140.800,96.400 141.340,96.400 142.000 C 96.400 142.660,96.580 143.200,96.800 143.200 C 97.056 143.200,97.200 146.733,97.200 153.000 L 97.200 162.800 94.800 162.800 L 92.400 162.800 92.400 153.232 C 92.400 143.321,92.067 141.210,90.500 141.203 C 90.225 141.201,90.000 141.020,90.000 140.800 C 90.000 140.580,89.550 140.400,89.000 140.400 C 88.450 140.400,88.000 140.220,88.000 140.000 C 88.000 139.780,87.201 139.600,86.224 139.600 C 85.247 139.600,84.336 139.780,84.200 140.000 C 84.064 140.220,83.603 140.400,83.176 140.400 C 82.749 140.400,82.400 140.580,82.400 140.800 C 82.400 141.020,82.151 141.200,81.846 141.200 C 81.147 141.200,80.000 142.917,80.000 143.962 C 80.000 144.397,79.820 144.864,79.600 145.000 C 79.353 145.153,79.200 148.604,79.200 154.024 L 79.200 162.800 68.415 162.800 L 57.630 162.800 57.486 154.100 C 57.408 149.315,57.176 144.860,56.971 144.200 C 56.468 142.579,55.518 141.200,54.904 141.200 C 54.627 141.200,54.400 141.020,54.400 140.800 C 54.400 140.580,53.950 140.400,53.400 140.400 C 52.850 140.400,52.400 140.220,52.400 140.000 C 52.400 139.780,51.590 139.600,50.600 139.600 C 49.610 139.600,48.800 139.780,48.800 140.000 C 48.800 140.220,48.342 140.400,47.782 140.400 C 46.738 140.400,45.253 141.606,44.451 143.104 C 44.153 143.662,44.000 147.141,44.000 153.374 L 44.000 162.800 41.800 162.800 L 39.600 162.800 39.600 153.024 C 39.600 146.937,39.751 143.154,40.000 143.000 C 40.220 142.864,40.400 142.348,40.400 141.853 C 40.400 141.358,40.664 140.604,40.987 140.176 C 41.310 139.749,41.580 139.172,41.587 138.893 C 41.606 138.164,46.668 133.200,47.393 133.200 C 47.727 133.200,48.001 133.065,48.003 132.900 C 48.007 132.541,49.944 131.600,50.680 131.600 C 50.966 131.600,51.200 131.420,51.200 131.200 C 51.200 130.980,52.089 130.800,53.176 130.800 C 54.263 130.800,55.264 130.620,55.400 130.400 C 55.556 130.147,60.330 130.000,68.400 130.000 C 76.470 130.000,81.244 130.147,81.400 130.400 M345.600 130.400 C 345.600 130.620,346.500 130.800,347.600 130.800 C 348.700 130.800,349.600 130.980,349.600 131.200 C 349.600 131.420,350.140 131.600,350.800 131.600 C 351.460 131.600,352.000 131.780,352.000 132.000 C 352.000 132.220,352.272 132.400,352.604 132.400 C 352.936 132.400,353.772 132.940,354.463 133.600 C 355.154 134.260,355.885 134.800,356.088 134.800 C 356.526 134.800,357.600 135.818,357.600 136.234 C 357.600 136.394,358.009 137.081,358.508 137.762 C 359.008 138.443,359.659 139.540,359.955 140.200 C 360.251 140.860,360.652 141.713,360.847 142.095 C 361.041 142.477,361.200 143.501,361.200 144.371 C 361.200 145.241,361.380 146.064,361.600 146.200 C 361.846 146.352,362.000 149.604,362.000 154.624 L 362.000 162.800 359.815 162.800 L 357.630 162.800 357.473 154.100 C 357.276 143.111,356.432 140.400,353.211 140.400 C 352.765 140.400,352.400 140.220,352.400 140.000 C 352.400 139.780,351.590 139.600,350.600 139.600 C 349.610 139.600,348.800 139.780,348.800 140.000 C 348.800 140.220,348.329 140.400,347.754 140.400 C 347.059 140.400,346.254 140.896,345.354 141.878 L 344.000 143.356 344.000 153.078 L 344.000 162.800 332.800 162.800 L 321.600 162.800 321.600 153.200 C 321.600 147.920,321.464 143.600,321.298 143.600 C 321.131 143.600,320.756 143.060,320.464 142.400 C 320.141 141.669,319.633 141.200,319.166 141.200 C 318.745 141.200,318.400 141.020,318.400 140.800 C 318.400 140.580,318.040 140.400,317.600 140.400 C 317.160 140.400,316.800 140.220,316.800 140.000 C 316.800 139.780,315.900 139.600,314.800 139.600 C 313.700 139.600,312.800 139.780,312.800 140.000 C 312.800 140.220,312.440 140.400,312.000 140.400 C 311.560 140.400,311.200 140.580,311.200 140.800 C 311.200 141.020,310.945 141.200,310.633 141.200 C 308.801 141.200,308.400 143.383,308.400 153.347 L 308.400 162.800 306.000 162.800 L 303.600 162.800 303.600 153.400 C 303.600 147.400,303.745 144.000,304.000 144.000 C 304.220 144.000,304.400 143.564,304.400 143.032 C 304.400 140.741,309.669 133.243,311.300 133.213 C 311.685 133.206,312.000 133.020,312.000 132.800 C 312.000 132.580,312.360 132.400,312.800 132.400 C 313.240 132.400,313.600 132.220,313.600 132.000 C 313.600 131.780,314.039 131.600,314.576 131.600 C 315.113 131.600,315.664 131.420,315.800 131.200 C 315.936 130.980,316.836 130.800,317.800 130.800 C 318.764 130.800,319.664 130.620,319.800 130.400 C 319.956 130.147,324.737 130.000,332.824 130.000 C 341.075 130.000,345.600 130.142,345.600 130.400 M197.000 138.400 C 196.864 138.620,195.874 138.800,194.800 138.800 C 193.726 138.800,192.736 138.980,192.600 139.200 C 192.464 139.420,191.913 139.600,191.376 139.600 C 190.839 139.600,190.400 139.780,190.400 140.000 C 190.400 140.220,189.860 140.400,189.200 140.400 C 188.540 140.400,188.000 140.558,188.000 140.751 C 188.000 140.944,187.106 141.486,186.012 141.957 C 184.919 142.427,183.577 143.259,183.031 143.806 C 182.484 144.353,181.867 144.800,181.660 144.800 C 181.452 144.800,180.713 145.475,180.017 146.300 C 179.321 147.125,178.315 148.295,177.783 148.899 C 176.643 150.192,174.800 153.708,174.800 154.587 C 174.800 154.924,174.620 155.200,174.400 155.200 C 174.180 155.200,174.000 155.740,174.000 156.400 C 174.000 157.060,173.820 157.600,173.600 157.600 C 173.380 157.600,173.200 158.039,173.200 158.576 C 173.200 159.113,173.020 159.664,172.800 159.800 C 172.560 159.949,172.400 162.671,172.400 166.624 C 172.400 170.741,172.550 173.200,172.800 173.200 C 173.020 173.200,173.200 173.830,173.200 174.600 C 173.200 175.370,173.380 176.000,173.600 176.000 C 173.820 176.000,174.000 176.349,174.000 176.776 C 174.000 177.203,174.180 177.664,174.400 177.800 C 174.620 177.936,174.800 178.369,174.800 178.762 C 174.800 179.696,175.753 181.584,176.782 182.689 C 177.837 183.821,177.813 184.000,176.600 184.000 C 176.050 184.000,175.600 184.180,175.600 184.400 C 175.600 184.620,175.240 184.800,174.800 184.800 C 174.360 184.800,174.000 184.980,174.000 185.200 C 174.000 185.420,173.680 185.600,173.288 185.600 C 172.897 185.600,172.317 185.960,172.000 186.400 C 171.683 186.840,171.188 187.200,170.899 187.200 C 170.107 187.200,163.031 194.429,162.377 195.907 C 162.062 196.618,161.669 197.200,161.502 197.200 C 161.336 197.200,161.200 197.560,161.200 198.000 C 161.200 198.440,161.020 198.800,160.800 198.800 C 160.580 198.800,160.400 199.149,160.400 199.576 C 160.400 200.003,160.220 200.464,160.000 200.600 C 159.780 200.736,159.600 201.251,159.600 201.744 C 159.600 202.237,159.375 202.865,159.100 203.140 C 157.469 204.769,158.367 245.600,160.034 245.600 C 160.206 245.600,160.460 245.960,160.600 246.400 C 160.740 246.840,161.112 247.200,161.427 247.200 C 161.742 247.200,162.000 247.380,162.000 247.600 C 162.000 247.820,162.270 248.000,162.600 248.000 C 162.930 248.000,163.201 248.135,163.203 248.300 C 163.216 249.522,165.471 249.600,200.880 249.600 C 224.293 249.600,236.400 249.464,236.400 249.200 C 236.400 248.980,236.720 248.800,237.112 248.800 C 237.503 248.800,238.083 248.440,238.400 248.000 C 238.717 247.560,239.192 247.200,239.456 247.200 C 239.719 247.200,240.347 246.525,240.850 245.700 C 241.354 244.875,241.909 244.140,242.083 244.067 C 242.257 243.993,242.400 243.228,242.400 242.367 C 242.400 241.505,242.580 240.800,242.800 240.800 C 243.060 240.800,243.200 235.400,243.200 225.400 C 243.200 215.400,243.060 210.000,242.800 210.000 C 242.571 210.000,242.400 208.800,242.400 207.200 C 242.400 205.660,242.244 204.400,242.054 204.400 C 241.864 204.400,241.597 203.584,241.460 202.587 C 241.194 200.647,238.953 195.600,238.358 195.600 C 238.161 195.600,238.000 195.357,238.000 195.059 C 238.000 194.762,237.460 193.954,236.800 193.263 C 236.140 192.572,235.600 191.907,235.600 191.785 C 235.600 191.390,233.649 189.600,233.218 189.600 C 232.988 189.600,232.800 189.420,232.800 189.200 C 232.800 188.980,232.618 188.800,232.396 188.800 C 232.174 188.800,231.428 188.260,230.737 187.600 C 230.046 186.940,229.238 186.400,228.941 186.400 C 228.643 186.400,228.400 186.220,228.400 186.000 C 228.400 185.780,228.040 185.600,227.600 185.600 C 227.160 185.600,226.800 185.420,226.800 185.200 C 226.800 184.980,226.440 184.800,226.000 184.800 C 225.560 184.800,225.200 184.620,225.200 184.400 C 225.200 184.180,224.857 184.000,224.437 184.000 C 223.566 184.000,223.692 182.754,224.643 181.964 C 224.949 181.710,225.200 181.164,225.200 180.751 C 225.200 180.338,225.380 180.000,225.600 180.000 C 225.820 180.000,226.000 179.640,226.000 179.200 C 226.000 178.760,226.180 178.400,226.400 178.400 C 226.620 178.400,226.800 178.040,226.800 177.600 C 226.800 177.160,226.980 176.800,227.200 176.800 C 227.420 176.800,227.600 176.170,227.600 175.400 C 227.600 174.630,227.780 174.000,228.000 174.000 C 228.220 174.000,228.400 173.010,228.400 171.800 C 228.400 170.590,228.580 169.600,228.800 169.600 C 229.028 169.600,229.200 168.408,229.200 166.824 C 229.200 165.297,229.020 163.936,228.800 163.800 C 228.580 163.664,228.400 162.573,228.400 161.376 C 228.400 160.179,228.220 159.200,228.000 159.200 C 227.780 159.200,227.600 158.660,227.600 158.000 C 227.600 157.340,227.420 156.800,227.200 156.800 C 226.980 156.800,226.800 156.260,226.800 155.600 C 226.800 154.940,226.620 154.400,226.400 154.400 C 226.180 154.400,226.000 154.040,226.000 153.600 C 226.000 153.160,225.840 152.800,225.643 152.800 C 225.447 152.800,225.182 152.395,225.054 151.900 C 224.926 151.405,224.366 150.477,223.810 149.838 C 223.255 149.199,222.800 148.568,222.800 148.438 C 222.800 147.992,219.805 144.968,218.400 143.995 C 217.630 143.462,216.762 142.795,216.471 142.513 C 216.181 142.231,215.596 142.000,215.171 142.000 C 214.747 142.000,214.400 141.820,214.400 141.600 C 214.400 141.380,214.040 141.200,213.600 141.200 C 213.160 141.200,212.800 141.020,212.800 140.800 C 212.800 140.580,212.440 140.400,212.000 140.400 C 211.560 140.400,211.200 140.220,211.200 140.000 C 211.200 139.780,210.480 139.600,209.600 139.600 C 208.720 139.600,208.000 139.420,208.000 139.200 C 208.000 138.980,207.201 138.800,206.224 138.800 C 205.247 138.800,204.336 138.620,204.200 138.400 C 204.064 138.180,202.444 138.000,200.600 138.000 C 198.756 138.000,197.136 138.180,197.000 138.400 M202.000 151.600 C 202.000 151.820,202.720 152.000,203.600 152.000 C 204.480 152.000,205.200 152.157,205.200 152.350 C 205.200 152.542,205.718 152.804,206.352 152.930 C 206.985 153.057,207.782 153.440,208.123 153.780 C 208.464 154.121,208.898 154.400,209.088 154.400 C 209.613 154.400,212.800 157.762,212.800 158.315 C 212.800 158.582,212.980 158.800,213.200 158.800 C 213.420 158.800,213.600 159.160,213.600 159.600 C 213.600 160.040,213.780 160.400,214.000 160.400 C 214.220 160.400,214.400 160.760,214.400 161.200 C 214.400 161.640,214.580 162.000,214.800 162.000 C 215.020 162.000,215.200 162.885,215.200 163.967 C 215.200 165.176,215.393 166.004,215.700 166.117 C 216.100 166.263,216.100 166.406,215.700 166.830 C 215.425 167.122,215.200 168.134,215.200 169.080 C 215.200 170.026,215.020 170.800,214.800 170.800 C 214.580 170.800,214.400 171.340,214.400 172.000 C 214.400 172.660,214.220 173.200,214.000 173.200 C 213.780 173.200,213.600 173.491,213.600 173.846 C 213.600 174.597,208.887 179.200,208.119 179.200 C 207.833 179.200,207.599 179.335,207.597 179.500 C 207.592 179.947,205.574 180.800,204.520 180.800 C 204.014 180.800,203.600 180.980,203.600 181.200 C 203.600 181.433,202.267 181.600,200.400 181.600 C 198.533 181.600,197.200 181.433,197.200 181.200 C 197.200 180.980,196.660 180.800,196.000 180.800 C 195.340 180.800,194.800 180.620,194.800 180.400 C 194.800 180.180,194.440 180.000,194.000 180.000 C 193.560 180.000,193.200 179.820,193.200 179.600 C 193.200 179.380,192.943 179.200,192.628 179.200 C 191.942 179.200,188.021 175.211,188.009 174.500 C 188.004 174.225,187.820 174.000,187.600 174.000 C 187.380 174.000,187.200 173.640,187.200 173.200 C 187.200 172.760,187.020 172.400,186.800 172.400 C 186.580 172.400,186.400 171.961,186.400 171.424 C 186.400 170.887,186.220 170.336,186.000 170.200 C 185.780 170.064,185.600 168.343,185.600 166.376 C 185.600 164.259,185.763 162.800,186.000 162.800 C 186.220 162.800,186.400 162.260,186.400 161.600 C 186.400 160.940,186.580 160.400,186.800 160.400 C 187.020 160.400,187.200 160.106,187.200 159.747 C 187.200 159.388,187.524 158.803,187.919 158.447 C 188.314 158.091,189.047 157.215,189.546 156.500 C 190.046 155.785,190.672 155.200,190.939 155.200 C 191.205 155.200,191.683 154.840,192.000 154.400 C 192.317 153.960,192.897 153.600,193.288 153.600 C 193.680 153.600,194.000 153.420,194.000 153.200 C 194.000 152.980,194.360 152.800,194.800 152.800 C 195.240 152.800,195.600 152.620,195.600 152.400 C 195.600 152.180,196.309 152.000,197.176 152.000 C 198.043 152.000,198.864 151.820,199.000 151.600 C 199.136 151.380,199.867 151.200,200.624 151.200 C 201.381 151.200,202.000 151.380,202.000 151.600 M213.800 195.200 C 213.936 195.420,214.847 195.600,215.824 195.600 C 216.801 195.600,217.600 195.780,217.600 196.000 C 217.600 196.220,218.140 196.400,218.800 196.400 C 219.460 196.400,220.000 196.580,220.000 196.800 C 220.000 197.020,220.243 197.200,220.541 197.200 C 220.838 197.200,221.646 197.740,222.337 198.400 C 223.028 199.060,223.739 199.600,223.918 199.600 C 224.321 199.600,227.226 203.773,227.955 205.400 C 228.251 206.060,228.652 206.913,228.847 207.295 C 229.041 207.677,229.200 214.382,229.200 222.195 L 229.200 236.400 227.228 236.400 L 225.256 236.400 225.128 222.700 C 225.028 211.983,224.880 208.789,224.449 208.031 C 223.577 206.497,222.107 205.200,221.242 205.200 C 220.805 205.200,220.336 205.020,220.200 204.800 C 220.064 204.580,219.164 204.400,218.200 204.400 C 217.236 204.400,216.336 204.580,216.200 204.800 C 216.064 205.020,215.687 205.200,215.363 205.200 C 214.389 205.200,212.000 207.873,212.000 208.963 C 212.000 209.507,211.820 210.064,211.600 210.200 C 211.347 210.357,211.200 215.204,211.200 223.424 L 211.200 236.400 200.400 236.400 L 189.600 236.400 189.600 222.800 C 189.600 214.000,189.459 209.200,189.200 209.200 C 188.980 209.200,188.800 208.840,188.800 208.400 C 188.800 207.960,188.620 207.600,188.400 207.600 C 188.180 207.600,188.000 207.240,188.000 206.800 C 188.000 206.267,187.733 206.000,187.200 206.000 C 186.760 206.000,186.400 205.820,186.400 205.600 C 186.400 205.380,186.040 205.200,185.600 205.200 C 185.160 205.200,184.800 205.020,184.800 204.800 C 184.800 204.580,183.900 204.400,182.800 204.400 C 181.700 204.400,180.800 204.580,180.800 204.800 C 180.800 205.020,180.375 205.200,179.855 205.200 C 178.833 205.200,176.800 206.966,176.800 207.855 C 176.800 208.155,176.620 208.400,176.400 208.400 C 176.141 208.400,176.000 213.333,176.000 222.400 L 176.000 236.400 173.800 236.400 L 171.600 236.400 171.600 222.200 C 171.600 213.000,171.741 208.000,172.000 208.000 C 172.220 208.000,172.400 207.675,172.400 207.279 C 172.400 205.110,177.737 198.000,179.365 198.000 C 179.714 198.000,180.000 197.820,180.000 197.600 C 180.000 197.380,180.360 197.200,180.800 197.200 C 181.240 197.200,181.600 197.020,181.600 196.800 C 181.600 196.580,181.960 196.400,182.400 196.400 C 182.840 196.400,183.200 196.220,183.200 196.000 C 183.200 195.780,184.100 195.600,185.200 195.600 C 186.300 195.600,187.200 195.420,187.200 195.200 C 187.200 194.941,191.859 194.800,200.376 194.800 C 208.729 194.800,213.643 194.946,213.800 195.200 M62.200 211.600 C 62.064 211.820,61.434 212.000,60.800 212.000 C 60.166 212.000,59.536 212.180,59.400 212.400 C 59.264 212.620,58.623 212.800,57.976 212.800 C 57.329 212.800,56.800 212.980,56.800 213.200 C 56.800 213.420,56.564 213.600,56.275 213.600 C 55.987 213.600,55.364 213.960,54.892 214.400 C 54.420 214.840,53.756 215.200,53.417 215.200 C 53.078 215.200,52.800 215.380,52.800 215.600 C 52.800 215.820,52.527 216.000,52.194 216.000 C 49.518 216.000,41.230 227.690,41.206 231.500 C 41.203 231.995,41.020 232.400,40.800 232.400 C 40.572 232.400,40.400 233.592,40.400 235.176 C 40.400 236.703,40.220 238.064,40.000 238.200 C 39.780 238.336,39.600 238.977,39.600 239.624 C 39.600 240.271,39.780 240.800,40.000 240.800 C 40.228 240.800,40.400 241.992,40.400 243.576 C 40.400 245.103,40.580 246.464,40.800 246.600 C 41.020 246.736,41.200 247.431,41.200 248.144 C 41.200 248.857,41.355 249.611,41.544 249.820 C 41.733 250.029,42.219 251.145,42.623 252.300 C 43.027 253.455,43.502 254.400,43.679 254.400 C 43.856 254.400,44.000 254.648,44.000 254.951 C 44.000 255.254,44.265 255.722,44.589 255.991 C 45.283 256.567,44.539 257.600,43.429 257.600 C 43.083 257.600,42.800 257.780,42.800 258.000 C 42.800 258.220,42.513 258.400,42.162 258.400 C 41.572 258.400,39.262 259.513,38.800 260.019 C 38.690 260.140,37.970 260.673,37.200 261.205 C 35.560 262.337,31.600 266.343,31.600 266.870 C 31.600 267.070,31.240 267.620,30.800 268.092 C 30.360 268.564,30.000 269.187,30.000 269.475 C 30.000 269.764,29.820 270.000,29.600 270.000 C 29.380 270.000,29.200 270.360,29.200 270.800 C 29.200 271.240,29.020 271.600,28.800 271.600 C 28.580 271.600,28.400 271.960,28.400 272.400 C 28.400 272.840,28.220 273.200,28.000 273.200 C 27.780 273.200,27.600 273.639,27.600 274.176 C 27.600 274.713,27.440 275.252,27.244 275.373 C 25.629 276.371,25.586 308.800,27.200 308.800 C 27.367 308.800,27.717 309.316,27.978 309.947 C 28.239 310.577,28.936 311.342,29.526 311.647 C 30.117 311.951,30.949 312.515,31.375 312.900 C 31.861 313.339,32.795 313.600,33.875 313.600 C 34.824 313.600,35.600 313.780,35.600 314.000 C 35.600 314.263,46.800 314.400,68.400 314.400 C 90.000 314.400,101.200 314.263,101.200 314.000 C 101.200 313.780,101.976 313.600,102.925 313.600 C 104.096 313.600,104.924 313.344,105.508 312.800 C 105.980 312.360,106.472 312.000,106.601 312.000 C 107.101 312.000,108.800 310.005,108.800 309.418 C 108.800 309.078,108.980 308.800,109.200 308.800 C 109.420 308.800,109.600 308.530,109.600 308.200 C 109.600 307.870,109.780 307.600,110.000 307.600 C 110.259 307.600,110.400 302.400,110.400 292.800 C 110.400 283.200,110.259 278.000,110.000 278.000 C 109.780 278.000,109.600 277.370,109.600 276.600 C 109.600 275.830,109.420 275.200,109.200 275.200 C 108.980 275.200,108.800 274.838,108.800 274.395 C 108.800 273.952,108.635 273.277,108.433 272.895 C 108.231 272.513,107.578 271.210,106.982 270.000 C 106.385 268.790,105.777 267.710,105.629 267.600 C 105.482 267.490,104.927 266.770,104.397 266.000 C 103.198 264.261,100.028 261.200,99.425 261.200 C 99.178 261.200,98.717 260.840,98.400 260.400 C 98.083 259.960,97.580 259.600,97.283 259.600 C 96.986 259.600,96.473 259.330,96.143 259.000 C 95.813 258.670,95.196 258.400,94.771 258.400 C 94.347 258.400,94.000 258.220,94.000 258.000 C 94.000 257.780,93.544 257.600,92.987 257.600 C 91.936 257.600,91.076 256.375,91.928 256.091 C 92.188 256.004,92.400 255.588,92.400 255.167 C 92.400 254.745,92.535 254.399,92.700 254.397 C 93.059 254.393,94.000 252.456,94.000 251.720 C 94.000 251.434,94.180 251.200,94.400 251.200 C 94.620 251.200,94.800 250.840,94.800 250.400 C 94.800 249.960,94.980 249.600,95.200 249.600 C 95.420 249.600,95.600 248.880,95.600 248.000 C 95.600 247.120,95.780 246.400,96.000 246.400 C 96.229 246.400,96.400 245.200,96.400 243.600 C 96.400 242.000,96.571 240.800,96.800 240.800 C 97.020 240.800,97.200 240.271,97.200 239.624 C 97.200 238.977,97.020 238.336,96.800 238.200 C 96.580 238.064,96.400 236.703,96.400 235.176 C 96.400 233.592,96.228 232.400,96.000 232.400 C 95.780 232.400,95.600 231.860,95.600 231.200 C 95.600 230.540,95.420 230.000,95.200 230.000 C 94.980 230.000,94.800 229.460,94.800 228.800 C 94.800 228.140,94.654 227.600,94.475 227.600 C 94.296 227.600,93.902 226.970,93.600 226.200 C 93.298 225.430,92.948 224.800,92.823 224.800 C 92.698 224.800,92.358 224.263,92.067 223.606 C 91.410 222.122,85.391 216.000,84.589 216.000 C 84.265 216.000,84.000 215.820,84.000 215.600 C 84.000 215.380,83.640 215.200,83.200 215.200 C 82.760 215.200,82.400 215.048,82.400 214.863 C 82.400 214.175,76.985 212.000,75.272 212.000 C 74.792 212.000,74.400 211.820,74.400 211.600 C 74.400 211.351,72.141 211.200,68.424 211.200 C 64.871 211.200,62.347 211.362,62.200 211.600 M326.400 211.600 C 326.400 211.820,325.860 212.000,325.200 212.000 C 324.540 212.000,324.000 212.180,324.000 212.400 C 324.000 212.620,323.460 212.800,322.800 212.800 C 322.140 212.800,321.600 212.980,321.600 213.200 C 321.600 213.420,321.240 213.600,320.800 213.600 C 320.360 213.600,320.000 213.780,320.000 214.000 C 320.000 214.220,319.640 214.400,319.200 214.400 C 318.760 214.400,318.400 214.580,318.400 214.800 C 318.400 215.020,318.080 215.200,317.688 215.200 C 317.297 215.200,316.717 215.560,316.400 216.000 C 316.083 216.440,315.601 216.800,315.329 216.800 C 314.810 216.800,310.000 221.481,310.000 221.986 C 310.000 222.146,309.640 222.693,309.200 223.200 C 308.760 223.707,308.400 224.455,308.400 224.861 C 308.400 225.268,308.220 225.600,308.000 225.600 C 307.780 225.600,307.600 225.870,307.600 226.200 C 307.600 226.530,307.420 226.800,307.200 226.800 C 306.980 226.800,306.800 227.160,306.800 227.600 C 306.800 228.040,306.620 228.400,306.400 228.400 C 306.180 228.400,306.000 228.940,306.000 229.600 C 306.000 230.260,305.820 230.800,305.600 230.800 C 305.380 230.800,305.200 231.340,305.200 232.000 C 305.200 232.660,305.020 233.200,304.800 233.200 C 304.551 233.200,304.400 235.533,304.400 239.400 C 304.400 243.267,304.551 245.600,304.800 245.600 C 305.020 245.600,305.200 246.320,305.200 247.200 C 305.200 248.080,305.380 248.800,305.600 248.800 C 305.820 248.800,306.000 249.340,306.000 250.000 C 306.000 250.660,306.180 251.200,306.400 251.200 C 306.620 251.200,306.800 251.560,306.800 252.000 C 306.800 252.440,306.980 252.800,307.200 252.800 C 307.420 252.800,307.600 253.160,307.600 253.600 C 307.600 254.040,307.758 254.400,307.951 254.400 C 308.456 254.400,309.327 256.672,309.015 257.176 C 308.871 257.409,308.328 257.600,307.810 257.600 C 307.291 257.600,306.807 257.735,306.733 257.900 C 306.660 258.065,305.635 258.717,304.455 259.349 C 300.976 261.211,294.800 267.190,294.800 268.696 C 294.800 268.973,294.665 269.201,294.500 269.203 C 294.149 269.207,293.200 271.137,293.200 271.846 C 293.200 272.114,293.065 272.393,292.900 272.467 C 292.414 272.683,291.200 276.600,291.200 277.954 C 291.200 278.639,291.020 279.200,290.800 279.200 C 290.541 279.200,290.400 284.059,290.400 292.976 C 290.400 301.729,290.546 306.843,290.800 307.000 C 291.020 307.136,291.200 307.597,291.200 308.024 C 291.200 308.451,291.358 308.800,291.551 308.800 C 291.745 308.800,292.127 309.340,292.400 310.000 C 292.673 310.660,293.105 311.200,293.360 311.200 C 293.615 311.200,294.083 311.560,294.400 312.000 C 294.717 312.440,295.297 312.800,295.688 312.800 C 296.080 312.800,296.400 312.980,296.400 313.200 C 296.400 313.420,297.109 313.600,297.976 313.600 C 298.843 313.600,299.664 313.780,299.800 314.000 C 299.962 314.261,311.337 314.400,332.624 314.400 C 354.075 314.400,365.200 314.263,365.200 314.000 C 365.200 313.780,366.100 313.600,367.200 313.600 C 368.300 313.600,369.200 313.450,369.200 313.268 C 369.200 313.085,369.695 312.680,370.300 312.368 C 371.747 311.621,372.797 310.554,374.008 308.600 C 375.174 306.719,375.734 286.325,374.785 280.308 C 374.533 278.708,374.233 276.815,374.120 276.100 C 374.006 275.385,373.785 274.800,373.629 274.800 C 373.472 274.800,373.100 273.900,372.800 272.800 C 372.500 271.700,372.130 270.800,371.976 270.800 C 371.823 270.800,371.473 270.260,371.200 269.600 C 370.927 268.940,370.545 268.400,370.351 268.400 C 370.158 268.400,370.000 268.127,370.000 267.794 C 370.000 267.005,363.395 260.400,362.606 260.400 C 362.273 260.400,362.000 260.253,362.000 260.074 C 362.000 259.676,359.399 258.400,358.586 258.400 C 358.264 258.400,358.000 258.220,358.000 258.000 C 358.000 257.780,357.752 257.600,357.449 257.600 C 356.387 257.600,355.821 256.463,356.499 255.692 C 357.256 254.832,358.800 251.633,358.800 250.925 C 358.800 250.636,358.980 250.400,359.200 250.400 C 359.420 250.400,359.600 249.860,359.600 249.200 C 359.600 248.540,359.780 248.000,360.000 248.000 C 360.220 248.000,360.400 247.100,360.400 246.000 C 360.400 244.900,360.580 244.000,360.800 244.000 C 361.041 244.000,361.200 242.333,361.200 239.800 C 361.200 237.267,361.041 235.600,360.800 235.600 C 360.580 235.600,360.400 234.700,360.400 233.600 C 360.400 232.500,360.220 231.600,360.000 231.600 C 359.780 231.600,359.600 231.060,359.600 230.400 C 359.600 229.740,359.420 229.200,359.200 229.200 C 358.980 229.200,358.800 228.855,358.800 228.432 C 358.800 227.610,357.597 225.088,357.100 224.867 C 356.935 224.793,356.800 224.472,356.800 224.153 C 356.800 223.834,356.185 222.958,355.433 222.207 C 354.682 221.455,353.959 220.500,353.827 220.084 C 353.695 219.668,353.100 219.074,352.504 218.764 C 351.909 218.454,350.720 217.525,349.862 216.700 C 349.005 215.875,348.055 215.200,347.752 215.200 C 347.448 215.200,347.200 215.020,347.200 214.800 C 347.200 214.580,346.840 214.400,346.400 214.400 C 345.960 214.400,345.600 214.220,345.600 214.000 C 345.600 213.780,345.240 213.600,344.800 213.600 C 344.360 213.600,344.000 213.420,344.000 213.200 C 344.000 212.980,343.460 212.800,342.800 212.800 C 342.140 212.800,341.600 212.620,341.600 212.400 C 341.600 212.180,341.071 212.000,340.424 212.000 C 339.777 212.000,339.136 211.820,339.000 211.600 C 338.852 211.361,336.263 211.200,332.576 211.200 C 328.725 211.200,326.400 211.351,326.400 211.600 M73.920 225.561 C 74.001 225.803,74.412 226.000,74.833 226.000 C 75.255 226.000,75.600 226.180,75.600 226.400 C 75.600 226.620,75.784 226.800,76.009 226.800 C 76.656 226.800,80.800 231.117,80.800 231.791 C 80.800 232.126,80.935 232.401,81.100 232.403 C 81.459 232.407,82.400 234.344,82.400 235.080 C 82.400 235.366,82.580 235.600,82.800 235.600 C 83.040 235.600,83.200 237.200,83.200 239.600 C 83.200 242.000,83.040 243.600,82.800 243.600 C 82.580 243.600,82.400 244.050,82.400 244.600 C 82.400 245.150,82.220 245.600,82.000 245.600 C 81.780 245.600,81.600 245.960,81.600 246.400 C 81.600 246.840,81.450 247.200,81.268 247.200 C 81.085 247.200,80.680 247.695,80.368 248.300 C 79.784 249.431,78.219 251.200,77.801 251.200 C 77.672 251.200,77.180 251.560,76.708 252.000 C 76.236 252.440,75.613 252.800,75.325 252.800 C 75.036 252.800,74.800 252.980,74.800 253.200 C 74.800 253.420,74.440 253.600,74.000 253.600 C 73.560 253.600,73.200 253.780,73.200 254.000 C 73.200 254.220,72.491 254.400,71.624 254.400 C 70.757 254.400,69.936 254.580,69.800 254.800 C 69.664 255.020,68.933 255.200,68.176 255.200 C 67.419 255.200,66.800 255.020,66.800 254.800 C 66.800 254.580,66.080 254.400,65.200 254.400 C 64.320 254.400,63.600 254.220,63.600 254.000 C 63.600 253.780,63.240 253.600,62.800 253.600 C 62.360 253.600,62.000 253.420,62.000 253.200 C 62.000 252.980,61.722 252.800,61.383 252.800 C 61.044 252.800,60.380 252.440,59.908 252.000 C 59.436 251.560,58.825 251.200,58.552 251.200 C 58.278 251.200,57.940 250.840,57.800 250.400 C 57.660 249.960,57.400 249.600,57.222 249.600 C 57.043 249.600,56.673 249.060,56.400 248.400 C 56.127 247.740,55.789 247.200,55.649 247.200 C 55.510 247.200,55.160 246.615,54.871 245.900 C 54.583 245.185,54.179 244.287,53.974 243.905 C 53.465 242.959,53.488 235.600,54.000 235.600 C 54.220 235.600,54.400 235.250,54.400 234.823 C 54.400 232.990,59.153 226.800,60.560 226.800 C 60.912 226.800,61.200 226.620,61.200 226.400 C 61.200 226.180,61.560 226.000,62.000 226.000 C 62.440 226.000,62.800 225.831,62.800 225.625 C 62.800 224.759,73.632 224.697,73.920 225.561 M339.173 225.968 C 339.569 226.426,340.148 226.800,340.459 226.800 C 340.769 226.800,341.283 227.160,341.600 227.600 C 341.917 228.040,342.362 228.405,342.588 228.411 C 342.815 228.417,343.441 229.137,343.980 230.011 C 344.520 230.885,345.105 231.600,345.280 231.600 C 345.456 231.600,345.600 231.960,345.600 232.400 C 345.600 232.840,345.780 233.200,346.000 233.200 C 346.220 233.200,346.400 233.560,346.400 234.000 C 346.400 234.440,346.580 234.800,346.800 234.800 C 347.020 234.800,347.200 235.419,347.200 236.176 C 347.200 236.933,347.380 237.664,347.600 237.800 C 347.820 237.936,348.000 238.746,348.000 239.600 C 348.000 240.454,347.820 241.264,347.600 241.400 C 347.380 241.536,347.200 242.256,347.200 243.000 C 347.200 243.744,347.020 244.464,346.800 244.600 C 346.580 244.736,346.400 245.197,346.400 245.624 C 346.400 246.051,346.220 246.400,346.000 246.400 C 345.780 246.400,345.600 246.633,345.600 246.917 C 345.600 247.201,344.791 248.326,343.802 249.417 C 342.813 250.508,342.003 251.535,342.002 251.700 C 342.001 251.865,341.680 252.000,341.288 252.000 C 340.897 252.000,340.317 252.360,340.000 252.800 C 339.661 253.270,338.965 253.600,338.312 253.600 C 337.700 253.600,337.200 253.780,337.200 254.000 C 337.200 254.220,336.480 254.400,335.600 254.400 C 334.720 254.400,334.000 254.580,334.000 254.800 C 334.000 255.020,333.471 255.200,332.824 255.200 C 332.177 255.200,331.536 255.020,331.400 254.800 C 331.264 254.580,330.353 254.400,329.376 254.400 C 328.399 254.400,327.600 254.220,327.600 254.000 C 327.600 253.780,327.240 253.600,326.800 253.600 C 326.360 253.600,326.000 253.420,326.000 253.200 C 326.000 252.980,325.774 252.800,325.498 252.800 C 324.723 252.800,320.015 248.096,319.991 247.297 C 319.986 247.134,319.630 246.550,319.200 246.000 C 318.770 245.450,318.414 244.505,318.409 243.900 C 318.404 243.295,318.220 242.800,318.000 242.800 C 317.767 242.800,317.600 241.467,317.600 239.600 C 317.600 237.733,317.767 236.400,318.000 236.400 C 318.220 236.400,318.400 235.860,318.400 235.200 C 318.400 234.540,318.580 234.000,318.800 234.000 C 319.020 234.000,319.200 233.640,319.200 233.200 C 319.200 232.760,319.368 232.400,319.573 232.400 C 319.778 232.400,320.059 232.043,320.198 231.607 C 320.479 230.720,323.347 227.600,323.880 227.600 C 324.069 227.600,324.483 227.240,324.800 226.800 C 325.117 226.360,325.697 226.000,326.088 226.000 C 326.480 226.000,326.800 225.831,326.800 225.625 C 326.800 224.441,338.120 224.755,339.173 225.968 M84.000 268.800 C 84.000 269.020,84.433 269.200,84.962 269.200 C 85.934 269.200,88.976 270.600,89.902 271.474 C 90.179 271.734,90.719 272.056,91.102 272.189 C 91.886 272.460,94.505 275.715,95.245 277.338 C 95.511 277.922,95.880 278.400,96.064 278.400 C 96.249 278.400,96.400 278.929,96.400 279.576 C 96.400 280.223,96.580 280.864,96.800 281.000 C 97.049 281.154,97.200 284.871,97.200 290.824 L 97.200 300.400 94.800 300.400 L 92.400 300.400 92.400 290.777 L 92.400 281.153 90.735 279.377 L 89.070 277.600 86.135 277.600 C 84.521 277.600,83.200 277.736,83.200 277.902 C 83.200 278.069,82.705 278.424,82.100 278.693 C 81.481 278.967,80.770 279.754,80.474 280.490 C 80.184 281.211,79.779 282.113,79.574 282.495 C 79.368 282.877,79.200 287.062,79.200 291.795 L 79.200 300.400 68.400 300.400 L 57.600 300.400 57.600 292.346 C 57.600 282.735,56.537 278.400,54.180 278.400 C 53.861 278.400,53.600 278.220,53.600 278.000 C 53.600 277.769,52.344 277.600,50.632 277.600 L 47.663 277.600 45.832 279.432 L 44.000 281.263 44.000 290.832 L 44.000 300.400 41.800 300.400 L 39.600 300.400 39.600 290.600 C 39.600 284.333,39.744 280.800,40.000 280.800 C 40.220 280.800,40.400 280.260,40.400 279.600 C 40.400 278.940,40.580 278.400,40.800 278.400 C 41.020 278.400,41.200 278.053,41.200 277.629 C 41.200 277.204,41.470 276.587,41.800 276.257 C 42.130 275.927,42.400 275.540,42.400 275.397 C 42.400 275.020,45.603 272.000,46.004 272.000 C 46.190 272.000,46.581 271.775,46.871 271.500 C 47.817 270.605,50.852 269.200,51.838 269.200 C 52.367 269.200,52.800 269.020,52.800 268.800 C 52.800 268.540,58.267 268.400,68.400 268.400 C 78.533 268.400,84.000 268.540,84.000 268.800 M348.200 268.800 C 348.336 269.020,349.067 269.200,349.824 269.200 C 350.581 269.200,351.200 269.380,351.200 269.600 C 351.200 269.820,351.560 270.000,352.000 270.000 C 352.440 270.000,352.800 270.151,352.800 270.336 C 352.800 270.520,353.232 270.869,353.761 271.109 C 356.275 272.255,360.400 277.454,360.400 279.479 C 360.400 279.765,360.580 280.000,360.800 280.000 C 361.020 280.000,361.200 280.889,361.200 281.976 C 361.200 283.063,361.380 284.064,361.600 284.200 C 361.845 284.351,362.000 287.537,362.000 292.424 L 362.000 300.400 359.815 300.400 L 357.630 300.400 357.483 291.900 C 357.348 284.115,357.087 281.338,356.440 280.800 C 356.308 280.690,356.005 280.240,355.767 279.800 C 355.529 279.360,354.944 278.822,354.467 278.605 C 353.990 278.388,353.600 278.073,353.600 277.905 C 353.600 276.579,347.629 277.676,345.856 279.328 L 344.000 281.056 344.000 290.728 L 344.000 300.400 332.800 300.400 L 321.600 300.400 321.600 291.000 C 321.600 285.000,321.455 281.600,321.200 281.600 C 320.980 281.600,320.800 281.322,320.800 280.982 C 320.800 279.219,317.937 277.600,314.821 277.600 C 309.133 277.600,308.400 279.155,308.400 291.214 L 308.400 300.400 306.000 300.400 L 303.600 300.400 303.600 291.224 C 303.600 285.537,303.752 281.953,304.000 281.800 C 304.220 281.664,304.400 281.023,304.400 280.376 C 304.400 279.729,304.580 279.200,304.800 279.200 C 305.020 279.200,305.200 278.840,305.200 278.400 C 305.200 277.960,305.380 277.600,305.600 277.600 C 305.820 277.600,306.000 277.331,306.000 277.003 C 306.000 275.786,310.989 270.800,312.207 270.800 C 312.533 270.800,312.800 270.620,312.800 270.400 C 312.800 270.180,313.160 270.000,313.600 270.000 C 314.040 270.000,314.400 269.820,314.400 269.600 C 314.400 269.380,314.940 269.200,315.600 269.200 C 316.260 269.200,316.800 269.020,316.800 268.800 C 316.800 268.540,322.259 268.400,332.376 268.400 C 342.329 268.400,348.042 268.544,348.200 268.800 M194.000 298.400 C 194.000 298.620,193.471 298.800,192.824 298.800 C 192.177 298.800,191.536 298.980,191.400 299.200 C 191.264 299.420,190.623 299.600,189.976 299.600 C 189.329 299.600,188.800 299.780,188.800 300.000 C 188.800 300.220,188.564 300.400,188.275 300.400 C 187.987 300.400,187.364 300.760,186.892 301.200 C 186.420 301.640,185.756 302.000,185.417 302.000 C 185.078 302.000,184.800 302.180,184.800 302.400 C 184.800 302.620,184.538 302.800,184.217 302.800 C 183.143 302.800,177.066 309.314,175.800 311.823 C 175.140 313.130,174.465 314.260,174.300 314.333 C 174.135 314.407,174.000 314.992,174.000 315.633 C 174.000 316.275,173.820 316.800,173.600 316.800 C 173.380 316.800,173.200 317.329,173.200 317.976 C 173.200 318.623,173.020 319.264,172.800 319.400 C 172.559 319.549,172.400 322.337,172.400 326.424 C 172.400 330.675,172.549 333.200,172.800 333.200 C 173.020 333.200,173.200 333.830,173.200 334.600 C 173.200 335.370,173.380 336.000,173.600 336.000 C 173.820 336.000,174.000 336.450,174.000 337.000 C 174.000 337.550,174.180 338.000,174.400 338.000 C 174.620 338.000,174.800 338.273,174.800 338.606 C 174.800 338.939,175.340 340.169,176.000 341.339 C 177.272 343.593,177.231 344.000,175.733 344.000 C 175.220 344.000,174.800 344.180,174.800 344.400 C 174.800 344.620,174.480 344.800,174.088 344.800 C 173.697 344.800,173.117 345.160,172.800 345.600 C 172.483 346.040,171.943 346.400,171.600 346.400 C 171.257 346.400,170.717 346.760,170.400 347.200 C 170.083 347.640,169.605 348.000,169.338 348.000 C 168.740 348.000,164.400 352.288,164.400 352.879 C 164.400 353.114,164.084 353.597,163.697 353.953 C 163.311 354.309,162.740 355.095,162.430 355.700 C 162.119 356.305,161.715 356.800,161.532 356.800 C 161.350 356.800,161.200 357.145,161.200 357.567 C 161.200 357.988,161.065 358.393,160.900 358.467 C 157.948 359.778,157.138 396.400,160.061 396.400 C 160.247 396.400,160.400 396.676,160.400 397.013 C 160.400 397.349,160.715 397.742,161.100 397.885 C 161.485 398.028,162.130 398.517,162.534 398.972 C 163.449 400.005,236.588 400.527,237.663 399.508 C 237.959 399.229,238.677 398.754,239.260 398.454 C 239.843 398.153,240.635 397.208,241.021 396.354 C 241.406 395.499,241.874 394.800,242.061 394.800 C 242.247 394.800,242.400 394.080,242.400 393.200 C 242.400 392.320,242.580 391.600,242.800 391.600 C 243.057 391.600,243.200 387.733,243.200 380.800 C 243.200 373.867,243.057 370.000,242.800 370.000 C 242.571 370.000,242.400 368.800,242.400 367.200 C 242.400 365.600,242.229 364.400,242.000 364.400 C 241.780 364.400,241.600 363.767,241.600 362.993 C 241.600 361.531,239.715 356.800,239.132 356.800 C 238.950 356.800,238.800 356.440,238.800 356.000 C 238.800 355.560,238.632 355.200,238.427 355.200 C 238.222 355.200,237.938 354.833,237.795 354.385 C 237.490 353.424,231.431 347.200,230.800 347.200 C 230.562 347.200,229.980 346.840,229.508 346.400 C 229.036 345.960,228.413 345.600,228.125 345.600 C 227.836 345.600,227.600 345.420,227.600 345.200 C 227.600 344.980,227.240 344.800,226.800 344.800 C 226.360 344.800,226.000 344.633,226.000 344.428 C 226.000 344.223,225.597 343.998,225.104 343.928 C 224.058 343.779,223.734 342.742,224.480 341.933 C 225.279 341.067,226.000 339.677,226.000 339.005 C 226.000 338.672,226.180 338.400,226.400 338.400 C 226.620 338.400,226.800 337.950,226.800 337.400 C 226.800 336.850,226.980 336.400,227.200 336.400 C 227.420 336.400,227.600 335.860,227.600 335.200 C 227.600 334.540,227.780 334.000,228.000 334.000 C 228.222 334.000,228.400 332.933,228.400 331.600 C 228.400 330.267,228.578 329.200,228.800 329.200 C 229.026 329.200,229.200 328.067,229.200 326.600 C 229.200 325.133,229.026 324.000,228.800 324.000 C 228.575 324.000,228.400 322.875,228.400 321.424 C 228.400 320.007,228.220 318.736,228.000 318.600 C 227.780 318.464,227.600 317.823,227.600 317.176 C 227.600 316.529,227.420 316.000,227.200 316.000 C 226.980 316.000,226.800 315.640,226.800 315.200 C 226.800 314.760,226.620 314.400,226.400 314.400 C 226.180 314.400,226.000 314.040,226.000 313.600 C 226.000 313.160,225.820 312.800,225.600 312.800 C 225.380 312.800,225.200 312.524,225.200 312.186 C 225.200 311.378,224.087 309.661,222.707 308.340 C 222.098 307.756,221.600 307.121,221.600 306.928 C 221.600 306.577,220.163 305.200,219.796 305.200 C 219.689 305.200,218.859 304.480,217.952 303.600 C 217.045 302.720,216.055 302.000,215.752 302.000 C 215.448 302.000,215.200 301.820,215.200 301.600 C 215.200 301.380,214.840 301.200,214.400 301.200 C 213.960 301.200,213.600 301.020,213.600 300.800 C 213.600 300.580,213.240 300.400,212.800 300.400 C 212.360 300.400,212.000 300.220,212.000 300.000 C 212.000 299.780,211.460 299.600,210.800 299.600 C 210.140 299.600,209.600 299.420,209.600 299.200 C 209.600 298.980,209.060 298.800,208.400 298.800 C 207.740 298.800,207.200 298.620,207.200 298.400 C 207.200 298.149,204.733 298.000,200.600 298.000 C 196.467 298.000,194.000 298.149,194.000 298.400 M204.305 311.574 C 204.687 311.779,205.585 312.183,206.300 312.471 C 207.015 312.760,207.600 313.131,207.600 313.298 C 207.600 313.464,207.838 313.600,208.130 313.600 C 208.600 313.600,209.481 314.412,212.700 317.813 C 213.195 318.336,213.600 319.042,213.600 319.382 C 213.600 319.722,213.780 320.000,214.000 320.000 C 214.220 320.000,214.400 320.450,214.400 321.000 C 214.400 321.550,214.580 322.000,214.800 322.000 C 215.020 322.000,215.200 322.885,215.200 323.967 C 215.200 325.176,215.393 326.004,215.700 326.117 C 216.100 326.263,216.100 326.406,215.700 326.830 C 215.425 327.122,215.200 328.134,215.200 329.080 C 215.200 330.026,215.020 330.800,214.800 330.800 C 214.580 330.800,214.400 331.034,214.400 331.320 C 214.400 332.056,213.459 333.993,213.100 333.997 C 212.935 333.999,212.800 334.241,212.800 334.536 C 212.800 335.194,209.450 338.800,208.840 338.800 C 208.598 338.800,208.400 338.980,208.400 339.200 C 208.400 339.420,208.040 339.600,207.600 339.600 C 207.160 339.600,206.800 339.780,206.800 340.000 C 206.800 340.220,206.455 340.400,206.033 340.400 C 205.612 340.400,205.201 340.598,205.120 340.840 C 204.918 341.445,195.882 341.445,195.680 340.840 C 195.599 340.598,195.188 340.400,194.767 340.400 C 194.345 340.400,194.000 340.220,194.000 340.000 C 194.000 339.780,193.712 339.600,193.360 339.600 C 193.009 339.600,192.217 339.060,191.600 338.400 C 190.983 337.740,190.293 337.200,190.066 337.200 C 189.840 337.200,189.538 336.834,189.396 336.387 C 189.254 335.940,188.702 335.138,188.169 334.605 C 187.636 334.072,187.200 333.358,187.200 333.018 C 187.200 332.678,187.020 332.400,186.800 332.400 C 186.580 332.400,186.400 331.860,186.400 331.200 C 186.400 330.540,186.220 330.000,186.000 330.000 C 185.763 330.000,185.600 328.533,185.600 326.400 C 185.600 324.267,185.763 322.800,186.000 322.800 C 186.220 322.800,186.400 322.476,186.400 322.080 C 186.400 321.186,187.294 319.207,187.700 319.203 C 187.865 319.201,188.000 318.929,188.000 318.599 C 188.000 318.268,188.809 317.143,189.798 316.099 C 190.787 315.054,191.597 314.065,191.598 313.900 C 191.599 313.735,191.960 313.600,192.400 313.600 C 192.840 313.600,193.200 313.420,193.200 313.200 C 193.200 312.980,193.560 312.800,194.000 312.800 C 194.440 312.800,194.800 312.620,194.800 312.400 C 194.800 312.180,195.340 312.000,196.000 312.000 C 196.660 312.000,197.200 311.820,197.200 311.600 C 197.200 311.090,203.364 311.067,204.305 311.574 M217.700 355.786 C 218.525 355.952,219.200 356.248,219.200 356.444 C 219.200 356.640,219.560 356.800,220.000 356.800 C 220.440 356.800,220.800 356.962,220.800 357.161 C 220.800 357.359,221.313 357.701,221.940 357.919 C 223.553 358.481,226.800 361.878,226.800 363.003 C 226.800 363.331,226.980 363.600,227.200 363.600 C 227.420 363.600,227.600 363.960,227.600 364.400 C 227.600 364.840,227.780 365.200,228.000 365.200 C 228.220 365.200,228.400 365.639,228.400 366.176 C 228.400 366.713,228.580 367.264,228.800 367.400 C 229.049 367.554,229.200 371.337,229.200 377.424 L 229.200 387.200 227.232 387.200 L 225.264 387.200 225.132 377.900 C 224.991 367.957,224.317 365.200,222.029 365.200 C 221.793 365.200,221.600 365.020,221.600 364.800 C 221.600 364.567,220.267 364.400,218.400 364.400 C 216.640 364.400,215.200 364.536,215.200 364.702 C 215.200 364.869,214.660 365.244,214.000 365.536 C 213.269 365.859,212.800 366.367,212.800 366.834 C 212.800 367.255,212.620 367.600,212.400 367.600 C 212.180 367.600,212.000 368.140,212.000 368.800 C 212.000 369.460,211.820 370.000,211.600 370.000 C 211.346 370.000,211.200 373.133,211.200 378.600 L 211.200 387.200 200.400 387.200 L 189.600 387.200 189.600 378.528 C 189.600 368.590,188.791 365.200,186.418 365.200 C 186.188 365.200,186.000 365.020,186.000 364.800 C 186.000 363.600,179.598 364.375,178.232 365.741 C 176.017 367.957,176.000 368.048,176.000 377.974 L 176.000 387.200 173.800 387.200 L 171.600 387.200 171.600 377.824 C 171.600 372.004,171.752 368.353,172.000 368.200 C 172.220 368.064,172.400 367.597,172.400 367.163 C 172.400 366.264,174.321 362.269,174.851 362.067 C 175.043 361.993,175.200 361.670,175.200 361.348 C 175.200 360.591,176.991 358.800,177.748 358.800 C 178.070 358.800,178.393 358.643,178.467 358.451 C 178.669 357.921,182.664 356.000,183.563 356.000 C 183.997 356.000,184.467 355.816,184.606 355.591 C 184.898 355.118,215.263 355.297,217.700 355.786 " stroke="none" fill="#040404" fill-rule="evenodd"></path><path id="path1" d="" stroke="none" fill="#080404" fill-rule="evenodd"></path><path id="path2" d="" stroke="none" fill="#080404" fill-rule="evenodd"></path><path id="path3" d="" stroke="none" fill="#080404" fill-rule="evenodd"></path><path id="path4" d="" stroke="none" fill="#080404" fill-rule="evenodd"></path></g></svg>