<svg id="svg" version="1.1" xmlns="http://www.w3.org/2000/svg" xmlns:xlink="http://www.w3.org/1999/xlink" width="400" height="400" viewBox="0, 0, 400,400"><g id="svgg"><path id="path0" d="M280.100 0.272 C 279.165 0.368,278.400 0.616,278.400 0.823 C 278.400 1.030,277.770 1.200,277.000 1.200 C 276.230 1.200,275.600 1.380,275.600 1.600 C 275.600 1.820,275.060 2.000,274.400 2.000 C 273.740 2.000,273.200 2.180,273.200 2.400 C 273.200 2.620,272.851 2.800,272.424 2.800 C 271.997 2.800,271.536 2.980,271.400 3.200 C 271.264 3.420,270.713 3.600,270.176 3.600 C 269.639 3.600,269.200 3.780,269.200 4.000 C 269.200 4.220,268.840 4.400,268.400 4.400 C 267.960 4.400,267.600 4.580,267.600 4.800 C 267.600 5.020,267.280 5.200,266.888 5.200 C 266.497 5.200,265.917 5.560,265.600 6.000 C 265.283 6.440,264.703 6.800,264.312 6.800 C 263.920 6.800,263.600 6.980,263.600 7.200 C 263.600 7.420,263.399 7.600,263.154 7.600 C 261.480 7.600,203.279 64.988,203.739 66.185 C 203.855 66.488,203.036 67.776,201.907 69.067 C 189.725 82.985,204.659 102.908,221.128 94.710 C 223.227 93.666,225.315 91.797,233.406 83.726 C 241.064 76.086,243.375 74.000,244.181 74.000 C 244.978 74.000,246.628 72.552,251.589 67.500 C 259.386 59.559,259.600 59.345,266.800 52.235 C 269.990 49.085,273.867 45.179,275.417 43.554 C 279.021 39.774,282.827 36.400,283.486 36.400 C 283.769 36.400,284.000 36.220,284.000 36.000 C 284.000 35.780,284.349 35.600,284.776 35.600 C 285.203 35.600,285.664 35.420,285.800 35.200 C 285.936 34.980,286.566 34.800,287.200 34.800 C 287.834 34.800,288.464 34.620,288.600 34.400 C 288.736 34.180,289.917 34.000,291.224 34.000 C 292.541 34.000,293.600 34.178,293.600 34.400 C 293.600 34.620,294.230 34.800,295.000 34.800 C 295.770 34.800,296.400 34.980,296.400 35.200 C 296.400 35.420,296.760 35.600,297.200 35.600 C 297.640 35.600,298.000 35.780,298.000 36.000 C 298.000 36.220,298.264 36.400,298.587 36.400 C 299.416 36.400,300.686 37.589,313.613 50.471 C 319.945 56.780,325.232 61.835,325.362 61.704 C 325.493 61.574,325.600 61.686,325.600 61.953 C 325.600 62.588,337.412 74.400,338.047 74.400 C 338.314 74.400,338.426 74.507,338.296 74.638 C 338.165 74.768,343.220 80.055,349.529 86.387 C 362.411 99.314,363.600 100.584,363.600 101.413 C 363.600 101.736,363.780 102.000,364.000 102.000 C 364.220 102.000,364.400 102.360,364.400 102.800 C 364.400 103.240,364.580 103.600,364.800 103.600 C 365.020 103.600,365.200 104.230,365.200 105.000 C 365.200 105.770,365.380 106.400,365.600 106.400 C 365.822 106.400,366.000 107.459,366.000 108.776 C 366.000 110.083,365.820 111.264,365.600 111.400 C 365.380 111.536,365.200 112.166,365.200 112.800 C 365.200 113.434,365.020 114.064,364.800 114.200 C 364.580 114.336,364.400 114.797,364.400 115.224 C 364.400 115.651,364.220 116.000,364.000 116.000 C 363.780 116.000,363.600 116.231,363.600 116.514 C 363.600 117.185,360.249 120.949,356.061 124.984 C 351.798 129.090,346.391 134.484,341.759 139.252 C 339.756 141.313,335.975 145.070,333.356 147.600 C 327.451 153.306,326.000 154.985,325.999 156.114 C 325.997 157.852,236.379 246.878,233.074 248.424 C 228.387 250.617,223.131 250.671,218.364 248.575 C 216.012 247.541,214.408 246.066,199.000 230.773 C 182.018 213.918,180.974 213.022,176.847 211.769 C 169.220 209.454,157.200 215.966,157.200 222.414 C 157.200 222.820,157.020 223.264,156.800 223.400 C 156.249 223.740,156.294 230.504,156.857 231.881 C 158.958 237.031,158.844 236.899,176.372 254.414 C 195.416 273.442,198.733 276.159,206.700 279.251 C 207.195 279.443,208.005 279.764,208.500 279.964 C 217.535 283.615,232.944 283.729,242.000 280.212 C 246.573 278.435,249.168 277.210,251.072 275.927 C 251.992 275.307,252.937 274.800,253.172 274.800 C 253.407 274.800,253.600 274.659,253.600 274.486 C 253.600 274.314,254.132 273.858,254.783 273.474 C 256.865 272.244,259.520 269.649,296.499 232.700 C 320.529 208.690,333.101 196.400,333.632 196.400 C 335.324 196.400,392.400 138.561,392.400 136.846 C 392.400 136.601,392.580 136.400,392.800 136.400 C 393.020 136.400,393.200 136.080,393.200 135.688 C 393.200 135.297,393.560 134.717,394.000 134.400 C 394.440 134.083,394.800 133.503,394.800 133.112 C 394.800 132.720,394.980 132.400,395.200 132.400 C 395.420 132.400,395.600 132.040,395.600 131.600 C 395.600 131.160,395.780 130.800,396.000 130.800 C 396.220 130.800,396.400 130.361,396.400 129.824 C 396.400 129.287,396.580 128.736,396.800 128.600 C 397.020 128.464,397.200 128.003,397.200 127.576 C 397.200 127.149,397.380 126.800,397.600 126.800 C 397.820 126.800,398.000 126.260,398.000 125.600 C 398.000 124.940,398.180 124.400,398.400 124.400 C 398.620 124.400,398.800 123.785,398.800 123.033 C 398.800 122.282,399.025 121.592,399.300 121.500 C 399.685 121.372,399.800 118.528,399.800 109.087 C 399.800 99.823,399.678 96.718,399.300 96.340 C 399.025 96.065,398.800 95.246,398.800 94.520 C 398.800 93.794,398.620 93.200,398.400 93.200 C 398.180 93.200,398.000 92.750,398.000 92.200 C 398.000 91.650,397.820 91.200,397.600 91.200 C 397.380 91.200,397.200 90.660,397.200 90.000 C 397.200 89.340,397.020 88.800,396.800 88.800 C 396.580 88.800,396.400 88.440,396.400 88.000 C 396.400 87.560,396.220 87.200,396.000 87.200 C 395.780 87.200,395.600 86.840,395.600 86.400 C 395.600 85.960,395.420 85.600,395.200 85.600 C 394.980 85.600,394.800 85.240,394.800 84.800 C 394.800 84.360,394.620 84.000,394.400 84.000 C 394.180 84.000,394.000 83.764,394.000 83.475 C 394.000 83.187,393.640 82.564,393.200 82.092 C 392.760 81.620,392.400 80.956,392.400 80.617 C 392.400 80.278,392.253 80.000,392.074 80.000 C 391.894 80.000,391.362 79.314,390.890 78.475 C 390.419 77.636,388.991 75.995,387.716 74.828 C 386.442 73.661,385.400 72.592,385.400 72.453 C 385.400 72.314,385.265 72.245,385.100 72.300 C 384.935 72.355,384.845 72.175,384.900 71.900 C 384.955 71.625,384.775 71.445,384.500 71.500 C 384.225 71.555,384.045 71.375,384.100 71.100 C 384.155 70.825,383.975 70.645,383.700 70.700 C 383.425 70.755,383.245 70.575,383.300 70.300 C 383.355 70.025,383.175 69.845,382.900 69.900 C 382.625 69.955,382.445 69.775,382.500 69.500 C 382.555 69.225,382.375 69.045,382.100 69.100 C 381.825 69.155,381.645 68.975,381.700 68.700 C 381.755 68.425,381.575 68.245,381.300 68.300 C 381.025 68.355,380.845 68.175,380.900 67.900 C 380.955 67.625,380.775 67.445,380.500 67.500 C 380.225 67.555,380.045 67.375,380.100 67.100 C 380.155 66.825,379.975 66.645,379.700 66.700 C 379.425 66.755,379.245 66.575,379.300 66.300 C 379.355 66.025,379.175 65.845,378.900 65.900 C 378.625 65.955,378.445 65.775,378.500 65.500 C 378.555 65.225,378.375 65.045,378.100 65.100 C 377.825 65.155,377.645 64.975,377.700 64.700 C 377.755 64.425,377.575 64.245,377.300 64.300 C 377.025 64.355,376.800 64.119,376.800 63.776 C 376.800 63.433,376.620 63.264,376.400 63.400 C 376.180 63.536,376.000 63.356,376.000 63.000 C 376.000 62.644,375.820 62.464,375.600 62.600 C 375.380 62.736,375.200 62.646,375.200 62.400 C 375.200 61.735,371.958 58.400,371.311 58.400 C 371.004 58.400,370.864 58.220,371.000 58.000 C 371.136 57.780,370.956 57.600,370.600 57.600 C 370.244 57.600,370.064 57.420,370.200 57.200 C 370.336 56.980,370.156 56.800,369.800 56.800 C 369.444 56.800,369.264 56.620,369.400 56.400 C 369.536 56.180,369.367 56.000,369.024 56.000 C 368.681 56.000,368.445 55.775,368.500 55.500 C 368.555 55.225,368.375 55.045,368.100 55.100 C 367.825 55.155,367.645 54.975,367.700 54.700 C 367.755 54.425,367.575 54.245,367.300 54.300 C 367.025 54.355,366.845 54.175,366.900 53.900 C 366.955 53.625,366.775 53.445,366.500 53.500 C 366.225 53.555,366.045 53.375,366.100 53.100 C 366.155 52.825,365.975 52.645,365.700 52.700 C 365.425 52.755,365.245 52.575,365.300 52.300 C 365.355 52.025,365.175 51.845,364.900 51.900 C 364.625 51.955,364.445 51.775,364.500 51.500 C 364.555 51.225,364.375 51.045,364.100 51.100 C 363.825 51.155,363.645 50.975,363.700 50.700 C 363.755 50.425,363.575 50.245,363.300 50.300 C 363.025 50.355,362.845 50.175,362.900 49.900 C 362.955 49.625,362.775 49.445,362.500 49.500 C 362.225 49.555,362.045 49.375,362.100 49.100 C 362.155 48.825,361.975 48.645,361.700 48.700 C 361.425 48.755,361.245 48.575,361.300 48.300 C 361.355 48.025,361.175 47.845,360.900 47.900 C 360.625 47.955,360.400 47.719,360.400 47.376 C 360.400 47.033,360.220 46.864,360.000 47.000 C 359.780 47.136,359.600 46.956,359.600 46.600 C 359.600 46.244,359.420 46.064,359.200 46.200 C 358.980 46.336,358.800 46.156,358.800 45.800 C 358.800 45.444,358.620 45.264,358.400 45.400 C 358.180 45.536,358.000 45.402,358.000 45.102 C 358.000 44.424,355.544 42.000,354.857 42.000 C 354.580 42.000,354.464 41.820,354.600 41.600 C 354.736 41.380,354.556 41.200,354.200 41.200 C 353.844 41.200,353.664 41.020,353.800 40.800 C 353.936 40.580,353.756 40.400,353.400 40.400 C 353.044 40.400,352.864 40.220,353.000 40.000 C 353.136 39.780,352.967 39.600,352.624 39.600 C 352.281 39.600,352.045 39.375,352.100 39.100 C 352.155 38.825,351.975 38.645,351.700 38.700 C 351.425 38.755,351.245 38.575,351.300 38.300 C 351.355 38.025,351.175 37.845,350.900 37.900 C 350.625 37.955,350.445 37.775,350.500 37.500 C 350.555 37.225,350.375 37.045,350.100 37.100 C 349.825 37.155,349.645 36.975,349.700 36.700 C 349.755 36.425,349.575 36.245,349.300 36.300 C 349.025 36.355,348.845 36.175,348.900 35.900 C 348.955 35.625,348.775 35.445,348.500 35.500 C 348.225 35.555,348.045 35.375,348.100 35.100 C 348.155 34.825,347.975 34.645,347.700 34.700 C 347.425 34.755,347.245 34.575,347.300 34.300 C 347.355 34.025,347.175 33.845,346.900 33.900 C 346.625 33.955,346.445 33.775,346.500 33.500 C 346.555 33.225,346.375 33.045,346.100 33.100 C 345.825 33.155,345.645 32.975,345.700 32.700 C 345.755 32.425,345.575 32.245,345.300 32.300 C 345.025 32.355,344.845 32.175,344.900 31.900 C 344.955 31.625,344.775 31.445,344.500 31.500 C 344.225 31.555,344.000 31.319,344.000 30.976 C 344.000 30.633,343.820 30.464,343.600 30.600 C 343.380 30.736,343.200 30.556,343.200 30.200 C 343.200 29.844,343.020 29.664,342.800 29.800 C 342.580 29.936,342.400 29.756,342.400 29.400 C 342.400 29.044,342.220 28.864,342.000 29.000 C 341.780 29.136,341.600 28.996,341.600 28.689 C 341.600 28.042,338.265 24.800,337.600 24.800 C 337.354 24.800,337.264 24.620,337.400 24.400 C 337.536 24.180,337.356 24.000,337.000 24.000 C 336.644 24.000,336.464 23.820,336.600 23.600 C 336.736 23.380,336.567 23.200,336.224 23.200 C 335.881 23.200,335.645 22.975,335.700 22.700 C 335.755 22.425,335.575 22.245,335.300 22.300 C 335.025 22.355,334.845 22.175,334.900 21.900 C 334.955 21.625,334.775 21.445,334.500 21.500 C 334.225 21.555,334.045 21.375,334.100 21.100 C 334.155 20.825,333.975 20.645,333.700 20.700 C 333.425 20.755,333.245 20.575,333.300 20.300 C 333.355 20.025,333.175 19.845,332.900 19.900 C 332.625 19.955,332.445 19.775,332.500 19.500 C 332.555 19.225,332.375 19.045,332.100 19.100 C 331.825 19.155,331.645 18.975,331.700 18.700 C 331.755 18.425,331.575 18.245,331.300 18.300 C 331.025 18.355,330.845 18.175,330.900 17.900 C 330.955 17.625,330.775 17.445,330.500 17.500 C 330.225 17.555,330.045 17.375,330.100 17.100 C 330.155 16.825,329.975 16.645,329.700 16.700 C 329.425 16.755,329.245 16.575,329.300 16.300 C 329.355 16.025,329.175 15.845,328.900 15.900 C 328.625 15.955,328.445 15.775,328.500 15.500 C 328.555 15.225,328.375 15.045,328.100 15.100 C 327.825 15.155,327.645 15.065,327.700 14.900 C 327.755 14.735,327.654 14.565,327.476 14.522 C 327.297 14.480,326.229 13.437,325.101 12.206 C 323.973 10.974,322.364 9.581,321.525 9.110 C 320.686 8.638,320.000 8.106,320.000 7.926 C 320.000 7.747,319.722 7.600,319.383 7.600 C 319.044 7.600,318.380 7.240,317.908 6.800 C 317.436 6.360,316.813 6.000,316.525 6.000 C 316.236 6.000,316.000 5.820,316.000 5.600 C 316.000 5.380,315.640 5.200,315.200 5.200 C 314.760 5.200,314.400 5.020,314.400 4.800 C 314.400 4.580,314.040 4.400,313.600 4.400 C 313.160 4.400,312.800 4.220,312.800 4.000 C 312.800 3.780,312.440 3.600,312.000 3.600 C 311.560 3.600,311.200 3.420,311.200 3.200 C 311.200 2.980,310.660 2.800,310.000 2.800 C 309.340 2.800,308.800 2.620,308.800 2.400 C 308.800 2.180,308.350 2.000,307.800 2.000 C 307.250 2.000,306.800 1.820,306.800 1.600 C 306.800 1.380,306.206 1.200,305.480 1.200 C 304.754 1.200,303.935 0.975,303.660 0.700 C 303.162 0.202,284.166 -0.143,280.100 0.272 M167.552 117.381 C 167.453 117.481,166.388 117.741,165.186 117.960 C 160.643 118.788,159.068 119.261,154.900 121.044 C 151.631 122.442,150.486 123.023,148.928 124.073 C 148.008 124.693,147.063 125.200,146.828 125.200 C 146.593 125.200,146.400 125.341,146.400 125.514 C 146.400 125.686,145.868 126.142,145.217 126.526 C 143.135 127.756,140.480 130.351,103.501 167.300 C 79.471 191.310,66.899 203.600,66.368 203.600 C 64.676 203.600,7.600 261.439,7.600 263.154 C 7.600 263.399,7.420 263.600,7.200 263.600 C 6.980 263.600,6.800 263.920,6.800 264.312 C 6.800 264.703,6.440 265.283,6.000 265.600 C 5.560 265.917,5.200 266.497,5.200 266.888 C 5.200 267.280,5.020 267.600,4.800 267.600 C 4.580 267.600,4.400 267.960,4.400 268.400 C 4.400 268.840,4.220 269.200,4.000 269.200 C 3.780 269.200,3.600 269.639,3.600 270.176 C 3.600 270.713,3.420 271.264,3.200 271.400 C 2.980 271.536,2.800 271.997,2.800 272.424 C 2.800 272.851,2.620 273.200,2.400 273.200 C 2.180 273.200,2.000 273.740,2.000 274.400 C 2.000 275.060,1.820 275.600,1.600 275.600 C 1.380 275.600,1.200 276.215,1.200 276.967 C 1.200 277.718,0.975 278.408,0.700 278.500 C -0.024 278.741,-0.024 302.936,0.700 303.660 C 0.975 303.935,1.200 304.754,1.200 305.480 C 1.200 306.206,1.380 306.800,1.600 306.800 C 1.820 306.800,2.000 307.250,2.000 307.800 C 2.000 308.350,2.180 308.800,2.400 308.800 C 2.620 308.800,2.800 309.340,2.800 310.000 C 2.800 310.660,2.980 311.200,3.200 311.200 C 3.420 311.200,3.600 311.560,3.600 312.000 C 3.600 312.440,3.780 312.800,4.000 312.800 C 4.220 312.800,4.400 313.160,4.400 313.600 C 4.400 314.040,4.580 314.400,4.800 314.400 C 5.020 314.400,5.200 314.760,5.200 315.200 C 5.200 315.640,5.380 316.000,5.600 316.000 C 5.820 316.000,6.000 316.236,6.000 316.525 C 6.000 316.813,6.360 317.436,6.800 317.908 C 7.240 318.380,7.600 319.044,7.600 319.383 C 7.600 319.722,7.747 320.000,7.926 320.000 C 8.106 320.000,8.638 320.686,9.110 321.525 C 9.581 322.364,11.009 324.005,12.284 325.172 C 13.558 326.339,14.600 327.408,14.600 327.547 C 14.600 327.686,14.735 327.755,14.900 327.700 C 15.065 327.645,15.155 327.825,15.100 328.100 C 15.045 328.375,15.225 328.555,15.500 328.500 C 15.775 328.445,15.955 328.625,15.900 328.900 C 15.845 329.175,16.025 329.355,16.300 329.300 C 16.575 329.245,16.755 329.425,16.700 329.700 C 16.645 329.975,16.825 330.155,17.100 330.100 C 17.375 330.045,17.555 330.225,17.500 330.500 C 17.445 330.775,17.625 330.955,17.900 330.900 C 18.175 330.845,18.355 331.025,18.300 331.300 C 18.245 331.575,18.425 331.755,18.700 331.700 C 18.975 331.645,19.155 331.825,19.100 332.100 C 19.045 332.375,19.225 332.555,19.500 332.500 C 19.775 332.445,19.955 332.625,19.900 332.900 C 19.845 333.175,20.025 333.355,20.300 333.300 C 20.575 333.245,20.755 333.425,20.700 333.700 C 20.645 333.975,20.825 334.155,21.100 334.100 C 21.375 334.045,21.555 334.225,21.500 334.500 C 21.445 334.775,21.625 334.955,21.900 334.900 C 22.175 334.845,22.355 335.025,22.300 335.300 C 22.245 335.575,22.425 335.755,22.700 335.700 C 22.975 335.645,23.200 335.881,23.200 336.224 C 23.200 336.567,23.380 336.736,23.600 336.600 C 23.820 336.464,24.000 336.644,24.000 337.000 C 24.000 337.356,24.180 337.536,24.400 337.400 C 24.620 337.264,24.800 337.354,24.800 337.600 C 24.800 338.265,28.042 341.600,28.689 341.600 C 28.996 341.600,29.136 341.780,29.000 342.000 C 28.864 342.220,29.044 342.400,29.400 342.400 C 29.756 342.400,29.936 342.580,29.800 342.800 C 29.664 343.020,29.844 343.200,30.200 343.200 C 30.556 343.200,30.736 343.380,30.600 343.600 C 30.464 343.820,30.633 344.000,30.976 344.000 C 31.319 344.000,31.555 344.225,31.500 344.500 C 31.445 344.775,31.625 344.955,31.900 344.900 C 32.175 344.845,32.355 345.025,32.300 345.300 C 32.245 345.575,32.425 345.755,32.700 345.700 C 32.975 345.645,33.155 345.825,33.100 346.100 C 33.045 346.375,33.225 346.555,33.500 346.500 C 33.775 346.445,33.955 346.625,33.900 346.900 C 33.845 347.175,34.025 347.355,34.300 347.300 C 34.575 347.245,34.755 347.425,34.700 347.700 C 34.645 347.975,34.825 348.155,35.100 348.100 C 35.375 348.045,35.555 348.225,35.500 348.500 C 35.445 348.775,35.625 348.955,35.900 348.900 C 36.175 348.845,36.355 349.025,36.300 349.300 C 36.245 349.575,36.425 349.755,36.700 349.700 C 36.975 349.645,37.155 349.825,37.100 350.100 C 37.045 350.375,37.225 350.555,37.500 350.500 C 37.775 350.445,37.955 350.625,37.900 350.900 C 37.845 351.175,38.025 351.355,38.300 351.300 C 38.575 351.245,38.755 351.425,38.700 351.700 C 38.645 351.975,38.825 352.155,39.100 352.100 C 39.375 352.045,39.600 352.281,39.600 352.624 C 39.600 352.967,39.780 353.136,40.000 353.000 C 40.220 352.864,40.400 353.044,40.400 353.400 C 40.400 353.756,40.580 353.936,40.800 353.800 C 41.020 353.664,41.200 353.844,41.200 354.200 C 41.200 354.556,41.380 354.736,41.600 354.600 C 41.820 354.464,42.000 354.598,42.000 354.898 C 42.000 355.576,44.456 358.000,45.143 358.000 C 45.420 358.000,45.536 358.180,45.400 358.400 C 45.264 358.620,45.444 358.800,45.800 358.800 C 46.156 358.800,46.336 358.980,46.200 359.200 C 46.064 359.420,46.244 359.600,46.600 359.600 C 46.956 359.600,47.136 359.780,47.000 360.000 C 46.864 360.220,47.033 360.400,47.376 360.400 C 47.719 360.400,47.955 360.625,47.900 360.900 C 47.845 361.175,48.025 361.355,48.300 361.300 C 48.575 361.245,48.755 361.425,48.700 361.700 C 48.645 361.975,48.825 362.155,49.100 362.100 C 49.375 362.045,49.555 362.225,49.500 362.500 C 49.445 362.775,49.625 362.955,49.900 362.900 C 50.175 362.845,50.355 363.025,50.300 363.300 C 50.245 363.575,50.425 363.755,50.700 363.700 C 50.975 363.645,51.155 363.825,51.100 364.100 C 51.045 364.375,51.225 364.555,51.500 364.500 C 51.775 364.445,51.955 364.625,51.900 364.900 C 51.845 365.175,52.025 365.355,52.300 365.300 C 52.575 365.245,52.755 365.425,52.700 365.700 C 52.645 365.975,52.825 366.155,53.100 366.100 C 53.375 366.045,53.555 366.225,53.500 366.500 C 53.445 366.775,53.625 366.955,53.900 366.900 C 54.175 366.845,54.355 367.025,54.300 367.300 C 54.245 367.575,54.425 367.755,54.700 367.700 C 54.975 367.645,55.155 367.825,55.100 368.100 C 55.045 368.375,55.225 368.555,55.500 368.500 C 55.775 368.445,56.000 368.681,56.000 369.024 C 56.000 369.367,56.180 369.536,56.400 369.400 C 56.620 369.264,56.800 369.444,56.800 369.800 C 56.800 370.156,56.980 370.336,57.200 370.200 C 57.420 370.064,57.600 370.244,57.600 370.600 C 57.600 370.956,57.780 371.136,58.000 371.000 C 58.220 370.864,58.400 371.004,58.400 371.311 C 58.400 371.958,61.735 375.200,62.400 375.200 C 62.646 375.200,62.736 375.380,62.600 375.600 C 62.464 375.820,62.644 376.000,63.000 376.000 C 63.356 376.000,63.536 376.180,63.400 376.400 C 63.264 376.620,63.433 376.800,63.776 376.800 C 64.119 376.800,64.355 377.025,64.300 377.300 C 64.245 377.575,64.425 377.755,64.700 377.700 C 64.975 377.645,65.155 377.825,65.100 378.100 C 65.045 378.375,65.225 378.555,65.500 378.500 C 65.775 378.445,65.955 378.625,65.900 378.900 C 65.845 379.175,66.025 379.355,66.300 379.300 C 66.575 379.245,66.755 379.425,66.700 379.700 C 66.645 379.975,66.825 380.155,67.100 380.100 C 67.375 380.045,67.555 380.225,67.500 380.500 C 67.445 380.775,67.625 380.955,67.900 380.900 C 68.175 380.845,68.355 381.025,68.300 381.300 C 68.245 381.575,68.425 381.755,68.700 381.700 C 68.975 381.645,69.155 381.825,69.100 382.100 C 69.045 382.375,69.225 382.555,69.500 382.500 C 69.775 382.445,69.955 382.625,69.900 382.900 C 69.845 383.175,70.025 383.355,70.300 383.300 C 70.575 383.245,70.755 383.425,70.700 383.700 C 70.645 383.975,70.825 384.155,71.100 384.100 C 71.375 384.045,71.555 384.225,71.500 384.500 C 71.445 384.775,71.625 384.955,71.900 384.900 C 72.175 384.845,72.355 384.935,72.300 385.100 C 72.245 385.265,72.314 385.400,72.453 385.400 C 72.592 385.400,73.661 386.442,74.828 387.716 C 75.995 388.991,77.636 390.419,78.475 390.890 C 79.314 391.362,80.000 391.894,80.000 392.074 C 80.000 392.253,80.278 392.400,80.617 392.400 C 80.956 392.400,81.620 392.760,82.092 393.200 C 82.564 393.640,83.187 394.000,83.475 394.000 C 83.764 394.000,84.000 394.180,84.000 394.400 C 84.000 394.620,84.360 394.800,84.800 394.800 C 85.240 394.800,85.600 394.980,85.600 395.200 C 85.600 395.420,85.960 395.600,86.400 395.600 C 86.840 395.600,87.200 395.780,87.200 396.000 C 87.200 396.220,87.560 396.400,88.000 396.400 C 88.440 396.400,88.800 396.580,88.800 396.800 C 88.800 397.020,89.340 397.200,90.000 397.200 C 90.660 397.200,91.200 397.380,91.200 397.600 C 91.200 397.820,91.650 398.000,92.200 398.000 C 92.750 398.000,93.200 398.180,93.200 398.400 C 93.200 398.620,93.905 398.800,94.767 398.800 C 95.664 398.800,96.405 399.013,96.500 399.300 C 96.629 399.686,99.489 399.800,109.000 399.800 C 118.511 399.800,121.372 399.686,121.500 399.300 C 121.592 399.025,122.282 398.800,123.033 398.800 C 123.785 398.800,124.400 398.620,124.400 398.400 C 124.400 398.180,124.940 398.000,125.600 398.000 C 126.260 398.000,126.800 397.820,126.800 397.600 C 126.800 397.380,127.149 397.200,127.576 397.200 C 128.003 397.200,128.464 397.020,128.600 396.800 C 128.736 396.580,129.287 396.400,129.824 396.400 C 130.361 396.400,130.800 396.220,130.800 396.000 C 130.800 395.780,131.160 395.600,131.600 395.600 C 132.040 395.600,132.400 395.420,132.400 395.200 C 132.400 394.980,132.720 394.800,133.112 394.800 C 133.503 394.800,134.083 394.440,134.400 394.000 C 134.717 393.560,135.297 393.200,135.688 393.200 C 136.080 393.200,136.400 393.020,136.400 392.800 C 136.400 392.580,136.601 392.400,136.846 392.400 C 138.421 392.400,196.400 335.349,196.400 333.800 C 196.400 333.451,197.272 332.117,198.339 330.835 C 209.832 317.025,195.707 297.514,179.600 304.950 C 177.078 306.114,177.256 305.957,166.589 316.500 C 159.784 323.227,156.717 326.000,156.080 326.000 C 155.012 326.000,152.867 327.878,147.202 333.771 C 144.891 336.175,141.313 339.775,139.252 341.771 C 134.227 346.636,128.892 351.974,124.984 356.048 C 120.980 360.221,117.191 363.600,116.514 363.600 C 116.231 363.600,116.000 363.780,116.000 364.000 C 116.000 364.220,115.651 364.400,115.224 364.400 C 114.797 364.400,114.336 364.580,114.200 364.800 C 114.064 365.020,113.434 365.200,112.800 365.200 C 112.166 365.200,111.536 365.380,111.400 365.600 C 111.264 365.820,110.083 366.000,108.776 366.000 C 107.459 366.000,106.400 365.822,106.400 365.600 C 106.400 365.380,105.770 365.200,105.000 365.200 C 104.230 365.200,103.600 365.020,103.600 364.800 C 103.600 364.580,103.240 364.400,102.800 364.400 C 102.360 364.400,102.000 364.220,102.000 364.000 C 102.000 363.780,101.736 363.600,101.413 363.600 C 100.584 363.600,99.314 362.411,86.387 349.529 C 80.055 343.220,74.768 338.165,74.638 338.296 C 74.507 338.426,74.400 338.314,74.400 338.047 C 74.400 337.412,62.588 325.600,61.953 325.600 C 61.686 325.600,61.574 325.493,61.704 325.362 C 61.835 325.232,56.780 319.945,50.471 313.613 C 37.589 300.686,36.400 299.416,36.400 298.587 C 36.400 298.264,36.220 298.000,36.000 298.000 C 35.780 298.000,35.600 297.640,35.600 297.200 C 35.600 296.760,35.420 296.400,35.200 296.400 C 34.980 296.400,34.800 295.770,34.800 295.000 C 34.800 294.230,34.620 293.600,34.400 293.600 C 34.178 293.600,34.000 292.541,34.000 291.224 C 34.000 289.917,34.180 288.736,34.400 288.600 C 34.620 288.464,34.800 287.834,34.800 287.200 C 34.800 286.566,34.980 285.936,35.200 285.800 C 35.420 285.664,35.600 285.203,35.600 284.776 C 35.600 284.349,35.780 284.000,36.000 284.000 C 36.220 284.000,36.400 283.769,36.400 283.486 C 36.400 282.805,39.802 278.994,43.964 275.016 C 45.814 273.247,49.504 269.577,52.164 266.859 C 54.824 264.142,58.507 260.452,60.348 258.659 C 71.224 248.072,74.000 245.104,74.007 244.057 C 74.020 242.174,163.391 153.230,166.937 151.571 C 171.674 149.354,176.817 149.307,181.661 151.436 C 183.980 152.456,185.654 153.995,201.000 169.227 C 211.589 179.738,218.415 186.212,219.463 186.740 C 227.187 190.634,234.653 189.093,240.489 182.400 C 240.776 182.070,241.443 180.900,241.969 179.800 C 242.495 178.700,243.078 177.487,243.263 177.105 C 243.739 176.124,243.685 168.500,243.200 168.200 C 242.980 168.064,242.800 167.620,242.800 167.214 C 242.800 165.116,240.402 162.387,224.691 146.600 C 215.714 137.580,207.190 129.300,205.750 128.200 C 204.309 127.100,202.889 125.975,202.594 125.700 C 202.299 125.425,201.942 125.200,201.801 125.200 C 201.660 125.200,200.792 124.698,199.872 124.084 C 198.313 123.044,195.387 121.560,193.300 120.749 C 192.805 120.557,191.995 120.238,191.500 120.040 C 189.654 119.303,188.144 118.847,186.200 118.441 C 185.100 118.211,183.355 117.838,182.323 117.611 C 180.503 117.213,167.917 117.016,167.552 117.381 " stroke="none" fill="#042c54" fill-rule="evenodd"></path><path id="path1" d="M189.600 66.400 C 189.600 66.638,188.075 66.800,185.824 66.800 C 183.737 66.800,181.937 66.979,181.800 67.200 C 181.664 67.420,180.483 67.600,179.176 67.600 C 177.859 67.600,176.800 67.778,176.800 68.000 C 176.800 68.222,175.741 68.400,174.424 68.400 C 173.117 68.400,171.936 68.580,171.800 68.800 C 171.664 69.020,171.023 69.200,170.376 69.200 C 169.729 69.200,169.200 69.380,169.200 69.600 C 169.200 69.820,168.581 70.000,167.824 70.000 C 167.067 70.000,166.336 70.180,166.200 70.400 C 166.064 70.620,165.243 70.800,164.376 70.800 C 163.509 70.800,162.800 70.980,162.800 71.200 C 162.800 71.420,162.181 71.600,161.424 71.600 C 160.667 71.600,159.936 71.780,159.800 72.000 C 159.664 72.220,159.113 72.400,158.576 72.400 C 158.039 72.400,157.600 72.580,157.600 72.800 C 157.600 73.020,157.161 73.200,156.624 73.200 C 156.087 73.200,155.536 73.380,155.400 73.600 C 155.264 73.820,154.803 74.000,154.376 74.000 C 153.949 74.000,153.600 74.180,153.600 74.400 C 153.600 74.620,153.162 74.800,152.626 74.800 C 152.090 74.800,151.145 75.010,150.526 75.266 C 149.907 75.523,149.265 75.771,149.100 75.816 C 148.935 75.862,148.710 75.945,148.600 76.000 C 148.490 76.055,148.265 76.128,148.100 76.163 C 147.935 76.197,146.057 77.075,143.927 78.113 C 141.796 79.151,139.861 80.000,139.627 80.000 C 139.392 80.000,139.200 80.180,139.200 80.400 C 139.200 80.620,138.851 80.800,138.424 80.800 C 137.997 80.800,137.536 80.980,137.400 81.200 C 137.264 81.420,136.870 81.600,136.523 81.600 C 136.177 81.600,135.601 81.915,135.243 82.300 C 134.468 83.133,132.993 84.000,132.352 84.000 C 132.100 84.000,131.603 84.318,131.247 84.707 C 130.891 85.096,129.745 85.844,128.700 86.370 C 127.655 86.896,126.800 87.477,126.800 87.663 C 126.800 87.848,126.530 88.000,126.200 88.000 C 125.870 88.000,125.600 88.180,125.600 88.400 C 125.600 88.620,125.357 88.800,125.059 88.800 C 124.762 88.800,123.954 89.340,123.263 90.000 C 122.572 90.660,121.903 91.200,121.775 91.200 C 121.558 91.200,116.919 94.416,115.600 95.482 C 115.270 95.748,114.331 96.490,113.513 97.129 C 112.695 97.769,112.140 98.406,112.279 98.546 C 112.419 98.686,112.315 98.800,112.048 98.800 C 111.782 98.800,111.114 99.250,110.564 99.800 C 110.014 100.350,109.670 100.800,109.800 100.800 C 109.930 100.800,109.586 101.250,109.036 101.800 C 108.486 102.350,107.860 102.800,107.644 102.800 C 107.133 102.800,102.800 107.133,102.800 107.644 C 102.800 107.860,102.350 108.486,101.800 109.036 C 101.250 109.586,100.800 109.930,100.800 109.800 C 100.800 109.670,100.350 110.014,99.800 110.564 C 99.250 111.114,98.800 111.782,98.800 112.048 C 98.800 112.315,98.686 112.419,98.546 112.279 C 98.406 112.140,97.769 112.695,97.129 113.513 C 96.490 114.331,95.748 115.270,95.482 115.600 C 94.416 116.919,91.200 121.558,91.200 121.775 C 91.200 121.903,90.660 122.572,90.000 123.263 C 89.340 123.954,88.800 124.762,88.800 125.059 C 88.800 125.357,88.620 125.600,88.400 125.600 C 88.180 125.600,88.000 125.870,88.000 126.200 C 88.000 126.530,87.848 126.800,87.663 126.800 C 87.477 126.800,86.896 127.655,86.370 128.700 C 85.844 129.745,85.096 130.891,84.707 131.247 C 84.318 131.603,84.000 132.100,84.000 132.352 C 84.000 132.993,83.133 134.468,82.300 135.243 C 81.915 135.601,81.600 136.177,81.600 136.523 C 81.600 136.870,81.420 137.264,81.200 137.400 C 80.980 137.536,80.800 137.997,80.800 138.424 C 80.800 138.851,80.620 139.200,80.400 139.200 C 80.180 139.200,80.000 139.392,80.000 139.627 C 80.000 139.861,79.151 141.796,78.113 143.927 C 77.075 146.057,76.197 147.935,76.163 148.100 C 76.128 148.265,76.055 148.490,76.000 148.600 C 75.945 148.710,75.862 148.935,75.816 149.100 C 75.771 149.265,75.523 149.907,75.266 150.526 C 75.010 151.145,74.800 152.090,74.800 152.626 C 74.800 153.162,74.620 153.600,74.400 153.600 C 74.180 153.600,74.000 153.949,74.000 154.376 C 74.000 154.803,73.820 155.264,73.600 155.400 C 73.380 155.536,73.200 156.087,73.200 156.624 C 73.200 157.161,73.020 157.600,72.800 157.600 C 72.580 157.600,72.400 158.039,72.400 158.576 C 72.400 159.113,72.220 159.664,72.000 159.800 C 71.780 159.936,71.600 160.667,71.600 161.424 C 71.600 162.181,71.420 162.800,71.200 162.800 C 70.980 162.800,70.800 163.509,70.800 164.376 C 70.800 165.243,70.620 166.064,70.400 166.200 C 70.180 166.336,70.000 167.067,70.000 167.824 C 70.000 168.581,69.820 169.200,69.600 169.200 C 69.380 169.200,69.200 169.729,69.200 170.376 C 69.200 171.023,69.020 171.664,68.800 171.800 C 68.580 171.936,68.400 173.117,68.400 174.424 C 68.400 175.741,68.222 176.800,68.000 176.800 C 67.778 176.800,67.600 177.859,67.600 179.176 C 67.600 180.483,67.420 181.664,67.200 181.800 C 66.979 181.937,66.800 183.737,66.800 185.824 C 66.800 188.075,66.638 189.600,66.400 189.600 C 66.149 189.600,66.000 192.067,66.000 196.200 C 66.000 201.193,66.121 202.800,66.497 202.800 C 66.770 202.800,83.465 186.368,103.597 166.284 C 140.144 129.823,141.767 128.237,144.400 126.410 C 145.170 125.876,145.890 125.316,146.000 125.166 C 146.783 124.100,154.571 120.310,159.017 118.831 C 173.346 114.066,193.310 117.104,203.496 125.600 C 203.892 125.930,205.056 126.830,206.083 127.600 C 211.198 131.433,241.421 162.543,242.806 165.400 C 244.279 168.436,244.813 175.366,243.751 177.639 C 241.916 181.563,241.249 182.618,239.464 184.422 C 237.483 186.425,235.584 187.643,232.800 188.699 C 231.002 189.380,224.413 189.453,222.708 188.811 C 218.490 187.221,217.725 186.558,201.000 169.982 C 182.714 151.860,182.402 151.608,177.035 150.689 C 173.717 150.120,170.176 150.667,166.920 152.249 C 163.309 154.004,74.000 243.295,74.000 245.150 C 74.000 245.838,74.180 246.400,74.400 246.400 C 74.620 246.400,74.800 246.838,74.800 247.374 C 74.800 247.910,75.010 248.855,75.266 249.474 C 75.523 250.093,75.771 250.735,75.816 250.900 C 75.862 251.065,75.945 251.290,76.000 251.400 C 76.055 251.510,76.128 251.735,76.163 251.900 C 76.197 252.065,77.075 253.943,78.113 256.073 C 79.151 258.204,80.000 260.139,80.000 260.373 C 80.000 260.608,80.180 260.800,80.400 260.800 C 80.620 260.800,80.800 261.149,80.800 261.576 C 80.800 262.003,80.980 262.464,81.200 262.600 C 81.420 262.736,81.600 263.130,81.600 263.477 C 81.600 263.823,81.915 264.399,82.300 264.757 C 83.133 265.532,84.000 267.007,84.000 267.648 C 84.000 267.900,84.329 268.397,84.730 268.753 C 85.132 269.109,85.716 269.985,86.028 270.700 C 86.340 271.415,86.731 272.000,86.898 272.000 C 87.064 272.000,87.200 272.270,87.200 272.600 C 87.200 272.930,87.380 273.200,87.600 273.200 C 87.820 273.200,88.000 273.470,88.000 273.800 C 88.000 274.130,88.180 274.400,88.400 274.400 C 88.620 274.400,88.800 274.643,88.800 274.941 C 88.800 275.238,89.340 276.046,90.000 276.737 C 90.660 277.428,91.200 278.097,91.200 278.225 C 91.200 278.442,94.416 283.081,95.482 284.400 C 95.748 284.730,96.490 285.669,97.129 286.487 C 97.769 287.305,98.406 287.860,98.546 287.721 C 98.686 287.581,98.800 287.685,98.800 287.952 C 98.800 288.218,99.250 288.886,99.800 289.436 C 100.350 289.986,100.800 290.330,100.800 290.200 C 100.800 290.070,101.250 290.414,101.800 290.964 C 102.350 291.514,102.800 292.140,102.800 292.356 C 102.800 292.867,107.133 297.200,107.644 297.200 C 107.860 297.200,108.486 297.650,109.036 298.200 C 109.586 298.750,109.930 299.200,109.800 299.200 C 109.670 299.200,110.014 299.650,110.564 300.200 C 111.114 300.750,111.782 301.200,112.048 301.200 C 112.315 301.200,112.419 301.314,112.279 301.454 C 112.140 301.594,112.695 302.231,113.513 302.871 C 114.331 303.510,115.270 304.252,115.600 304.518 C 116.919 305.584,121.558 308.800,121.775 308.800 C 121.903 308.800,122.572 309.340,123.263 310.000 C 123.954 310.660,124.762 311.200,125.059 311.200 C 125.357 311.200,125.600 311.380,125.600 311.600 C 125.600 311.820,125.870 312.000,126.200 312.000 C 126.530 312.000,126.800 312.180,126.800 312.400 C 126.800 312.620,127.070 312.800,127.400 312.800 C 127.730 312.800,128.000 312.936,128.000 313.102 C 128.000 313.269,128.585 313.660,129.300 313.972 C 130.015 314.284,130.891 314.868,131.247 315.270 C 131.603 315.671,132.100 316.000,132.352 316.000 C 132.993 316.000,134.468 316.867,135.243 317.700 C 135.601 318.085,136.177 318.400,136.523 318.400 C 136.870 318.400,137.264 318.580,137.400 318.800 C 137.536 319.020,137.997 319.200,138.424 319.200 C 138.851 319.200,139.200 319.380,139.200 319.600 C 139.200 319.820,139.392 320.000,139.627 320.000 C 139.861 320.000,141.796 320.849,143.927 321.887 C 146.057 322.925,147.935 323.803,148.100 323.837 C 148.265 323.872,148.490 323.945,148.600 324.000 C 148.710 324.055,148.935 324.138,149.100 324.184 C 149.265 324.229,149.907 324.477,150.526 324.734 C 151.145 324.990,152.090 325.200,152.626 325.200 C 153.162 325.200,153.600 325.380,153.600 325.600 C 153.600 325.820,154.168 326.000,154.862 326.000 C 155.976 326.000,157.327 324.808,166.362 315.857 C 178.387 303.943,180.129 302.809,186.400 302.809 C 201.032 302.809,208.622 320.167,198.841 331.261 C 196.375 334.058,196.338 334.038,203.800 333.980 C 207.473 333.952,210.400 333.768,210.400 333.565 C 210.400 333.364,212.099 333.200,214.176 333.200 C 216.263 333.200,218.063 333.021,218.200 332.800 C 218.336 332.580,219.517 332.400,220.824 332.400 C 222.141 332.400,223.200 332.222,223.200 332.000 C 223.200 331.778,224.259 331.600,225.576 331.600 C 226.883 331.600,228.064 331.420,228.200 331.200 C 228.336 330.980,228.977 330.800,229.624 330.800 C 230.271 330.800,230.800 330.620,230.800 330.400 C 230.800 330.180,231.419 330.000,232.176 330.000 C 232.933 330.000,233.664 329.820,233.800 329.600 C 233.936 329.380,234.757 329.200,235.624 329.200 C 236.491 329.200,237.200 329.020,237.200 328.800 C 237.200 328.580,237.819 328.400,238.576 328.400 C 239.333 328.400,240.064 328.220,240.200 328.000 C 240.336 327.780,240.887 327.600,241.424 327.600 C 241.961 327.600,242.400 327.420,242.400 327.200 C 242.400 326.980,242.839 326.800,243.376 326.800 C 243.913 326.800,244.464 326.620,244.600 326.400 C 244.736 326.180,245.197 326.000,245.624 326.000 C 246.051 326.000,246.400 325.820,246.400 325.600 C 246.400 325.380,246.838 325.200,247.374 325.200 C 247.910 325.200,248.855 324.990,249.474 324.734 C 250.093 324.477,250.735 324.229,250.900 324.184 C 251.065 324.138,251.290 324.055,251.400 324.000 C 251.510 323.945,251.735 323.872,251.900 323.837 C 252.065 323.803,253.943 322.925,256.073 321.887 C 258.204 320.849,260.139 320.000,260.373 320.000 C 260.608 320.000,260.800 319.820,260.800 319.600 C 260.800 319.380,261.149 319.200,261.576 319.200 C 262.003 319.200,262.464 319.020,262.600 318.800 C 262.736 318.580,263.130 318.400,263.477 318.400 C 263.823 318.400,264.399 318.085,264.757 317.700 C 265.532 316.867,267.007 316.000,267.648 316.000 C 267.900 316.000,268.397 315.682,268.753 315.293 C 269.109 314.904,270.255 314.156,271.300 313.630 C 272.345 313.104,273.200 312.523,273.200 312.337 C 273.200 312.152,273.470 312.000,273.800 312.000 C 274.130 312.000,274.400 311.820,274.400 311.600 C 274.400 311.380,274.643 311.200,274.941 311.200 C 275.238 311.200,276.046 310.660,276.737 310.000 C 277.428 309.340,278.097 308.800,278.225 308.800 C 278.442 308.800,283.081 305.584,284.400 304.518 C 284.730 304.252,285.669 303.510,286.487 302.871 C 287.305 302.231,287.860 301.594,287.721 301.454 C 287.581 301.314,287.685 301.200,287.952 301.200 C 288.218 301.200,288.886 300.750,289.436 300.200 C 289.986 299.650,290.330 299.200,290.200 299.200 C 290.070 299.200,290.414 298.750,290.964 298.200 C 291.514 297.650,292.140 297.200,292.356 297.200 C 292.867 297.200,297.200 292.867,297.200 292.356 C 297.200 292.140,297.650 291.514,298.200 290.964 C 298.750 290.414,299.200 290.070,299.200 290.200 C 299.200 290.330,299.650 289.986,300.200 289.436 C 300.750 288.886,301.200 288.218,301.200 287.952 C 301.200 287.685,301.314 287.581,301.454 287.721 C 301.594 287.860,302.231 287.305,302.871 286.487 C 303.510 285.669,304.252 284.730,304.518 284.400 C 305.584 283.081,308.800 278.442,308.800 278.225 C 308.800 278.097,309.340 277.428,310.000 276.737 C 310.660 276.046,311.200 275.238,311.200 274.941 C 311.200 274.643,311.380 274.400,311.600 274.400 C 311.820 274.400,312.000 274.130,312.000 273.800 C 312.000 273.470,312.152 273.200,312.337 273.200 C 312.523 273.200,313.104 272.345,313.630 271.300 C 314.156 270.255,314.904 269.109,315.293 268.753 C 315.682 268.397,316.000 267.900,316.000 267.648 C 316.000 267.007,316.867 265.532,317.700 264.757 C 318.085 264.399,318.400 263.823,318.400 263.477 C 318.400 263.130,318.580 262.736,318.800 262.600 C 319.020 262.464,319.200 262.003,319.200 261.576 C 319.200 261.149,319.380 260.800,319.600 260.800 C 319.820 260.800,320.000 260.608,320.000 260.373 C 320.000 260.139,320.849 258.204,321.887 256.073 C 322.925 253.943,323.803 252.065,323.837 251.900 C 323.872 251.735,323.945 251.510,324.000 251.400 C 324.055 251.290,324.138 251.065,324.184 250.900 C 324.229 250.735,324.477 250.093,324.734 249.474 C 324.990 248.855,325.200 247.910,325.200 247.374 C 325.200 246.838,325.380 246.400,325.600 246.400 C 325.820 246.400,326.000 246.051,326.000 245.624 C 326.000 245.197,326.180 244.736,326.400 244.600 C 326.620 244.464,326.800 243.913,326.800 243.376 C 326.800 242.839,326.980 242.400,327.200 242.400 C 327.420 242.400,327.600 241.961,327.600 241.424 C 327.600 240.887,327.780 240.336,328.000 240.200 C 328.220 240.064,328.400 239.333,328.400 238.576 C 328.400 237.819,328.580 237.200,328.800 237.200 C 329.020 237.200,329.200 236.491,329.200 235.624 C 329.200 234.757,329.380 233.936,329.600 233.800 C 329.820 233.664,330.000 232.933,330.000 232.176 C 330.000 231.419,330.180 230.800,330.400 230.800 C 330.620 230.800,330.800 230.271,330.800 229.624 C 330.800 228.977,330.980 228.336,331.200 228.200 C 331.420 228.064,331.600 226.883,331.600 225.576 C 331.600 224.259,331.778 223.200,332.000 223.200 C 332.222 223.200,332.400 222.141,332.400 220.824 C 332.400 219.517,332.580 218.336,332.800 218.200 C 333.021 218.063,333.200 216.263,333.200 214.176 C 333.200 212.099,333.364 210.400,333.565 210.400 C 333.768 210.400,333.952 207.473,333.980 203.800 C 334.020 198.674,333.916 197.200,333.518 197.200 C 333.237 197.200,316.535 213.632,296.403 233.716 C 259.856 270.177,258.233 271.763,255.600 273.590 C 254.830 274.124,254.110 274.684,254.000 274.834 C 253.690 275.256,250.493 277.067,247.400 278.573 C 229.616 287.232,208.096 284.481,193.016 271.622 C 192.127 270.864,184.020 262.854,175.000 253.822 C 158.662 237.462,157.965 236.663,156.368 232.442 C 155.749 230.803,155.684 223.986,156.277 222.710 C 158.187 218.592,158.861 217.532,160.796 215.596 C 162.789 213.604,164.424 212.578,167.719 211.251 C 168.334 211.003,170.531 210.800,172.600 210.800 C 179.635 210.800,179.533 210.726,199.000 230.018 C 217.286 248.140,217.598 248.392,222.965 249.311 C 226.278 249.879,229.817 249.335,233.080 247.756 C 236.767 245.972,326.000 156.798,326.000 154.897 C 326.000 154.184,325.820 153.600,325.600 153.600 C 325.380 153.600,325.200 153.162,325.200 152.626 C 325.200 152.090,324.990 151.145,324.734 150.526 C 324.477 149.907,324.229 149.265,324.184 149.100 C 324.138 148.935,324.055 148.710,324.000 148.600 C 323.945 148.490,323.872 148.265,323.837 148.100 C 323.803 147.935,322.925 146.057,321.887 143.927 C 320.849 141.796,320.000 139.861,320.000 139.627 C 320.000 139.392,319.820 139.200,319.600 139.200 C 319.380 139.200,319.200 138.851,319.200 138.424 C 319.200 137.997,319.020 137.536,318.800 137.400 C 318.580 137.264,318.400 136.870,318.400 136.523 C 318.400 136.177,318.085 135.601,317.700 135.243 C 316.867 134.468,316.000 132.993,316.000 132.352 C 316.000 132.100,315.671 131.603,315.270 131.247 C 314.868 130.891,314.284 130.015,313.972 129.300 C 313.660 128.585,313.269 128.000,313.102 128.000 C 312.936 128.000,312.800 127.730,312.800 127.400 C 312.800 127.070,312.620 126.800,312.400 126.800 C 312.180 126.800,312.000 126.530,312.000 126.200 C 312.000 125.870,311.820 125.600,311.600 125.600 C 311.380 125.600,311.200 125.357,311.200 125.059 C 311.200 124.762,310.660 123.954,310.000 123.263 C 309.340 122.572,308.800 121.903,308.800 121.775 C 308.800 121.558,305.584 116.919,304.518 115.600 C 304.252 115.270,303.510 114.331,302.871 113.513 C 302.231 112.695,301.594 112.140,301.454 112.279 C 301.314 112.419,301.200 112.315,301.200 112.048 C 301.200 111.782,300.750 111.114,300.200 110.564 C 299.650 110.014,299.200 109.670,299.200 109.800 C 299.200 109.930,298.750 109.586,298.200 109.036 C 297.650 108.486,297.200 107.860,297.200 107.644 C 297.200 107.133,292.867 102.800,292.356 102.800 C 292.140 102.800,291.514 102.350,290.964 101.800 C 290.414 101.250,290.070 100.800,290.200 100.800 C 290.330 100.800,289.986 100.350,289.436 99.800 C 288.886 99.250,288.218 98.800,287.952 98.800 C 287.685 98.800,287.581 98.686,287.721 98.546 C 287.860 98.406,287.305 97.769,286.487 97.129 C 285.669 96.490,284.730 95.748,284.400 95.482 C 283.081 94.416,278.442 91.200,278.225 91.200 C 278.097 91.200,277.428 90.660,276.737 90.000 C 276.046 89.340,275.238 88.800,274.941 88.800 C 274.643 88.800,274.400 88.620,274.400 88.400 C 274.400 88.180,274.130 88.000,273.800 88.000 C 273.470 88.000,273.200 87.820,273.200 87.600 C 273.200 87.380,272.930 87.200,272.600 87.200 C 272.270 87.200,272.000 87.064,272.000 86.898 C 272.000 86.731,271.415 86.340,270.700 86.028 C 269.985 85.716,269.109 85.132,268.753 84.730 C 268.397 84.329,267.900 84.000,267.648 84.000 C 267.007 84.000,265.532 83.133,264.757 82.300 C 264.399 81.915,263.823 81.600,263.477 81.600 C 263.130 81.600,262.736 81.420,262.600 81.200 C 262.464 80.980,262.003 80.800,261.576 80.800 C 261.149 80.800,260.800 80.620,260.800 80.400 C 260.800 80.180,260.608 80.000,260.373 80.000 C 260.139 80.000,258.204 79.151,256.073 78.113 C 253.943 77.075,252.065 76.197,251.900 76.163 C 251.735 76.128,251.510 76.055,251.400 76.000 C 251.290 75.945,251.065 75.862,250.900 75.816 C 250.735 75.771,250.093 75.523,249.474 75.266 C 248.855 75.010,247.910 74.800,247.374 74.800 C 246.838 74.800,246.400 74.620,246.400 74.400 C 246.400 74.180,245.862 74.000,245.204 74.000 C 244.177 74.000,242.707 75.301,234.813 83.196 C 225.479 92.531,222.986 94.742,220.684 95.727 C 204.119 102.819,189.708 84.003,200.678 69.605 C 203.562 65.819,203.786 66.000,196.200 66.000 C 192.067 66.000,189.600 66.149,189.600 66.400 " stroke="none" fill="#4cd3e3" fill-rule="evenodd"></path><path id="path2" d="M202.800 66.459 C 202.800 66.711,202.138 67.746,201.328 68.759 C 199.858 70.597,199.858 70.598,201.164 69.400 C 202.614 68.069,203.860 66.000,203.210 66.000 C 202.985 66.000,202.800 66.206,202.800 66.459 M241.393 76.007 C 240.537 76.883,239.970 77.600,240.132 77.600 C 240.540 77.600,243.319 74.786,243.114 74.581 C 243.023 74.489,242.248 75.131,241.393 76.007 M197.049 76.615 C 196.912 76.973,196.820 77.836,196.844 78.533 C 196.882 79.637,196.933 79.571,197.236 78.025 C 197.593 76.205,197.494 75.457,197.049 76.615 M196.828 82.233 C 196.844 82.875,197.016 83.760,197.210 84.200 C 197.447 84.734,197.486 84.402,197.327 83.200 C 197.046 81.080,196.788 80.580,196.828 82.233 M199.250 89.084 C 199.734 90.011,200.757 91.361,201.522 92.084 C 202.784 93.276,202.750 93.190,201.158 91.164 C 200.191 89.934,199.168 88.584,198.885 88.164 C 198.602 87.744,198.766 88.158,199.250 89.084 M224.571 92.903 L 223.400 94.197 224.600 93.199 C 225.260 92.649,225.875 92.155,225.967 92.100 C 226.058 92.045,226.045 91.912,225.938 91.804 C 225.830 91.696,225.215 92.191,224.571 92.903 M203.600 94.022 C 204.633 94.726,207.200 96.025,207.200 95.842 C 207.200 95.633,203.605 93.597,203.250 93.606 C 203.112 93.609,203.270 93.796,203.600 94.022 M221.289 95.017 C 220.348 95.558,219.268 96.014,218.889 96.032 C 218.418 96.053,218.369 96.131,218.735 96.277 C 219.265 96.488,222.659 94.952,223.046 94.326 C 223.330 93.866,223.208 93.914,221.289 95.017 M209.738 96.894 C 209.992 97.056,211.730 97.188,213.600 97.188 C 215.470 97.188,217.208 97.056,217.462 96.894 C 217.716 96.732,215.978 96.600,213.600 96.600 C 211.222 96.600,209.484 96.732,209.738 96.894 M167.800 116.757 C 166.920 116.891,169.890 117.000,174.400 117.000 C 178.910 117.000,181.790 116.878,180.800 116.730 C 178.617 116.402,170.017 116.420,167.800 116.757 M163.200 117.600 C 162.408 117.854,162.367 117.920,163.000 117.920 C 163.440 117.920,164.250 117.776,164.800 117.600 C 165.592 117.346,165.633 117.280,165.000 117.280 C 164.560 117.280,163.750 117.424,163.200 117.600 M184.000 117.600 C 184.550 117.776,185.360 117.920,185.800 117.920 C 186.433 117.920,186.392 117.854,185.600 117.600 C 185.050 117.424,184.240 117.280,183.800 117.280 C 183.167 117.280,183.208 117.346,184.000 117.600 M160.200 118.400 C 159.696 118.617,159.622 118.744,160.000 118.744 C 160.330 118.744,160.960 118.589,161.400 118.400 C 161.904 118.183,161.978 118.056,161.600 118.056 C 161.270 118.056,160.640 118.211,160.200 118.400 M188.800 118.790 C 190.010 119.223,191.180 119.575,191.400 119.573 C 192.124 119.565,189.354 118.496,187.962 118.247 C 187.083 118.089,187.380 118.282,188.800 118.790 M192.000 119.734 C 192.000 119.837,192.581 120.124,193.291 120.372 C 194.001 120.619,194.406 120.657,194.191 120.456 C 193.735 120.029,192.000 119.458,192.000 119.734 M154.093 120.580 C 152.847 121.268,152.456 121.706,153.412 121.343 C 154.903 120.775,156.199 120.005,155.600 120.042 C 155.270 120.062,154.592 120.304,154.093 120.580 M150.100 122.626 C 147.771 124.022,147.942 124.296,150.300 122.946 C 152.572 121.645,152.635 121.599,152.167 121.604 C 151.965 121.606,151.035 122.066,150.100 122.626 M196.433 121.749 C 196.845 122.117,199.200 123.200,199.200 123.021 C 199.200 122.790,196.982 121.600,196.553 121.600 C 196.396 121.600,196.342 121.667,196.433 121.749 M200.833 124.116 C 200.925 124.180,201.675 124.729,202.500 125.337 C 203.325 125.944,203.998 126.297,203.995 126.120 C 203.990 125.787,201.415 124.000,200.939 124.000 C 200.789 124.000,200.742 124.052,200.833 124.116 M206.400 128.294 C 207.610 129.406,208.674 130.245,208.765 130.159 C 208.956 129.979,207.130 128.326,205.400 127.114 C 204.740 126.652,205.190 127.183,206.400 128.294 M104.422 165.353 C 83.840 185.898,66.730 202.814,66.400 202.946 C 65.947 203.127,65.970 203.163,66.493 203.093 C 67.100 203.011,142.572 128.000,142.047 128.000 C 141.935 128.000,125.003 144.809,104.422 165.353 M215.000 136.400 C 218.294 139.700,221.080 142.400,221.190 142.400 C 221.300 142.400,218.694 139.700,215.400 136.400 C 212.106 133.100,209.320 130.400,209.210 130.400 C 209.100 130.400,211.706 133.100,215.000 136.400 M231.000 152.400 C 234.515 155.920,237.481 158.800,237.591 158.800 C 237.701 158.800,234.915 155.920,231.400 152.400 C 227.885 148.880,224.919 146.000,224.809 146.000 C 224.699 146.000,227.485 148.880,231.000 152.400 M171.115 150.328 C 170.738 150.478,172.216 150.600,174.400 150.600 C 176.584 150.600,178.062 150.478,177.685 150.328 C 177.308 150.179,175.830 150.056,174.400 150.056 C 172.970 150.056,171.492 150.179,171.115 150.328 M164.487 153.500 C 163.530 154.435,163.514 154.481,164.381 153.806 C 166.088 152.476,166.169 152.400,165.886 152.400 C 165.736 152.400,165.106 152.895,164.487 153.500 M184.000 153.432 C 184.770 154.035,192.555 161.652,201.300 170.358 C 210.045 179.064,217.173 186.010,217.141 185.793 C 217.045 185.156,184.695 153.355,183.600 152.822 C 182.915 152.488,183.041 152.681,184.000 153.432 M118.384 199.016 C 94.083 223.317,74.315 243.200,74.453 243.200 C 74.795 243.200,162.872 155.138,162.701 154.968 C 162.627 154.893,142.684 174.715,118.384 199.016 M281.490 200.557 C 257.120 224.953,237.237 244.971,237.307 245.041 C 237.377 245.110,257.399 225.202,281.800 200.800 C 306.201 176.398,326.084 156.380,325.983 156.316 C 325.882 156.252,305.861 176.161,281.490 200.557 M241.104 163.156 C 241.707 164.012,242.258 164.659,242.329 164.594 C 242.531 164.409,240.635 161.610,240.304 161.605 C 240.141 161.602,240.501 162.300,241.104 163.156 M243.444 167.800 C 243.773 169.271,244.002 169.590,243.994 168.567 C 243.991 168.145,243.805 167.530,243.582 167.200 C 243.285 166.762,243.248 166.924,243.444 167.800 M244.131 172.600 C 244.133 174.140,244.205 174.721,244.292 173.891 C 244.379 173.061,244.377 171.801,244.289 171.091 C 244.200 170.381,244.129 171.060,244.131 172.600 M240.874 182.299 C 240.145 183.280,239.605 184.136,239.674 184.203 C 239.744 184.269,240.410 183.525,241.155 182.550 C 241.901 181.575,242.441 180.719,242.355 180.647 C 242.270 180.575,241.604 181.319,240.874 182.299 M237.987 185.334 C 237.430 185.810,236.530 186.519,235.987 186.909 L 235.000 187.618 236.200 187.017 C 237.569 186.332,239.391 184.857,239.157 184.624 C 239.070 184.538,238.544 184.858,237.987 185.334 M231.000 188.800 L 230.200 189.144 231.000 189.166 C 231.440 189.178,232.070 189.013,232.400 188.800 C 233.195 188.286,232.196 188.286,231.000 188.800 M295.375 234.404 C 274.681 255.082,257.842 272.000,257.953 272.000 C 258.065 272.000,274.997 255.191,295.578 234.647 C 316.160 214.102,333.270 197.197,333.600 197.078 C 334.133 196.887,334.133 196.860,333.600 196.836 C 333.270 196.820,316.069 213.726,295.375 234.404 M168.000 211.218 C 167.562 211.515,167.724 211.552,168.600 211.356 C 170.071 211.027,170.390 210.798,169.367 210.806 C 168.945 210.809,168.330 210.995,168.000 211.218 M175.233 210.944 C 175.325 211.023,175.940 211.208,176.600 211.356 C 177.476 211.552,177.638 211.515,177.200 211.218 C 176.660 210.853,174.832 210.598,175.233 210.944 M160.574 215.707 L 159.000 217.399 160.596 215.999 C 161.473 215.230,162.268 214.555,162.362 214.500 C 162.456 214.445,162.447 214.313,162.341 214.207 C 162.235 214.101,161.440 214.776,160.574 215.707 M182.859 214.207 C 182.955 214.844,215.305 246.645,216.400 247.178 C 217.085 247.512,216.959 247.319,216.000 246.568 C 215.230 245.965,207.445 238.348,198.700 229.642 C 189.955 220.936,182.827 213.990,182.859 214.207 M156.154 222.977 C 156.032 223.294,156.003 223.879,156.089 224.277 C 156.187 224.728,156.324 224.512,156.454 223.700 C 156.671 222.338,156.530 221.996,156.154 222.977 M155.701 227.400 C 155.705 228.280,155.787 228.593,155.883 228.095 C 155.979 227.598,155.975 226.878,155.875 226.495 C 155.775 226.113,155.696 226.520,155.701 227.400 M156.006 230.833 C 156.009 231.365,156.189 232.070,156.406 232.400 C 156.682 232.822,156.723 232.585,156.542 231.600 C 156.225 229.875,155.998 229.549,156.006 230.833 M157.604 235.469 C 157.606 235.651,158.236 236.590,159.004 237.556 C 160.823 239.845,160.820 239.357,159.000 236.973 C 158.230 235.964,157.602 235.288,157.604 235.469 M169.000 248.000 C 171.854 250.860,174.278 253.200,174.388 253.200 C 174.498 253.200,172.254 250.860,169.400 248.000 C 166.546 245.140,164.122 242.800,164.012 242.800 C 163.902 242.800,166.146 245.140,169.000 248.000 M235.200 246.483 C 234.430 247.146,234.160 247.491,234.600 247.251 C 235.809 246.590,236.963 245.629,236.771 245.443 C 236.677 245.352,235.970 245.820,235.200 246.483 M222.476 249.660 C 222.984 249.803,224.390 249.920,225.600 249.920 C 226.810 249.920,228.216 249.803,228.724 249.660 C 229.232 249.517,227.826 249.400,225.600 249.400 C 223.374 249.400,221.968 249.517,222.476 249.660 M185.000 264.000 C 187.633 266.640,189.877 268.800,189.987 268.800 C 190.097 268.800,188.033 266.640,185.400 264.000 C 182.767 261.360,180.523 259.200,180.413 259.200 C 180.303 259.200,182.367 261.360,185.000 264.000 M191.200 269.761 C 191.200 270.059,193.690 272.311,194.961 273.162 C 195.950 273.824,195.651 273.510,193.100 271.211 C 192.055 270.269,191.200 269.617,191.200 269.761 M196.005 273.874 C 196.010 274.230,198.796 276.138,199.005 275.929 C 199.075 275.858,198.428 275.293,197.567 274.674 C 196.705 274.055,196.002 273.695,196.005 273.874 M199.600 276.183 C 199.600 276.457,203.212 278.521,203.386 278.347 C 203.468 278.265,202.650 277.703,201.568 277.099 C 200.486 276.495,199.600 276.083,199.600 276.183 M249.400 277.217 C 248.300 277.864,247.564 278.395,247.765 278.397 C 248.206 278.401,251.600 276.442,251.600 276.183 C 251.600 275.922,251.604 275.920,249.400 277.217 M245.400 279.200 C 244.520 279.625,243.997 279.979,244.239 279.986 C 244.742 280.002,247.200 278.827,247.200 278.571 C 247.200 278.332,247.187 278.337,245.400 279.200 M205.600 279.431 C 205.600 279.701,207.678 280.456,207.876 280.257 C 207.967 280.167,207.492 279.901,206.820 279.667 C 206.149 279.433,205.600 279.327,205.600 279.431 M209.438 280.970 C 210.119 281.267,211.289 281.619,212.038 281.753 C 212.917 281.911,212.620 281.718,211.200 281.210 C 208.695 280.313,207.581 280.162,209.438 280.970 M238.600 281.600 C 238.096 281.817,238.022 281.944,238.400 281.944 C 238.730 281.944,239.360 281.789,239.800 281.600 C 240.304 281.383,240.378 281.256,240.000 281.256 C 239.670 281.256,239.040 281.411,238.600 281.600 M213.633 282.147 C 213.725 282.228,214.520 282.404,215.400 282.538 C 216.515 282.707,216.758 282.671,216.200 282.419 C 215.432 282.071,213.290 281.844,213.633 282.147 M235.000 282.419 C 234.442 282.671,234.685 282.707,235.800 282.538 C 236.680 282.404,237.475 282.228,237.567 282.147 C 237.910 281.844,235.768 282.071,235.000 282.419 M219.442 283.277 C 221.457 283.635,229.743 283.635,231.758 283.277 C 232.615 283.125,229.844 283.000,225.600 283.000 C 221.356 283.000,218.585 283.125,219.442 283.277 M181.778 303.391 C 179.478 304.118,177.043 305.417,176.380 306.271 C 175.845 306.960,175.857 306.965,176.607 306.348 C 181.170 302.598,188.971 302.192,194.719 305.404 C 195.711 305.958,196.585 306.348,196.663 306.271 C 196.921 306.013,192.878 303.985,190.924 303.392 C 188.603 302.688,184.006 302.688,181.778 303.391 M165.783 316.402 C 160.494 321.681,156.265 326.000,156.386 326.000 C 156.507 326.000,160.923 321.680,166.200 316.400 C 171.477 311.120,175.705 306.801,175.597 306.802 C 175.489 306.804,171.072 311.124,165.783 316.402 M198.788 308.700 C 199.744 309.855,200.599 310.800,200.690 310.800 C 201.010 310.800,199.263 308.586,198.165 307.600 C 197.531 307.031,197.800 307.505,198.788 308.700 M202.658 316.400 C 202.975 318.125,203.202 318.451,203.194 317.167 C 203.191 316.635,203.011 315.930,202.794 315.600 C 202.518 315.178,202.477 315.415,202.658 316.400 M202.854 321.800 C 202.819 322.240,202.689 323.050,202.567 323.600 C 202.375 324.463,202.407 324.503,202.798 323.890 C 203.047 323.499,203.177 322.689,203.086 322.090 C 202.978 321.379,202.897 321.279,202.854 321.800 M199.851 329.352 C 199.035 330.536,198.015 331.824,197.584 332.214 C 197.153 332.605,196.814 333.211,196.832 333.562 C 196.858 334.105,196.897 334.111,197.093 333.600 C 197.220 333.270,198.034 332.190,198.902 331.200 C 200.314 329.589,201.852 327.200,201.477 327.200 C 201.398 327.200,200.666 328.169,199.851 329.352 " stroke="none" fill="#2d88a1" fill-rule="evenodd"></path><path id="path3" d="M103.599 166.700 L 67.400 203.000 103.700 166.801 C 137.446 133.148,140.179 130.400,139.899 130.400 C 139.844 130.400,123.509 146.735,103.599 166.700 M295.999 233.500 L 259.800 269.800 296.100 233.601 C 316.065 213.691,332.400 197.356,332.400 197.301 C 332.400 197.021,329.652 199.754,295.999 233.500 " stroke="none" fill="#247c94" fill-rule="evenodd"></path><path id="path4" d="M201.775 68.900 L 200.600 70.200 201.900 69.025 C 203.112 67.930,203.384 67.600,203.075 67.600 C 203.006 67.600,202.421 68.185,201.775 68.900 M233.789 83.300 L 231.000 86.200 233.900 83.411 C 235.495 81.877,236.800 80.572,236.800 80.511 C 236.800 80.217,236.380 80.606,233.789 83.300 M200.754 90.736 C 201.199 91.360,201.879 92.125,202.265 92.436 C 202.652 92.746,202.360 92.235,201.617 91.300 C 200.091 89.380,199.525 89.010,200.754 90.736 M209.600 96.382 C 209.930 96.605,210.545 96.791,210.967 96.794 C 211.990 96.802,211.671 96.573,210.200 96.244 C 209.324 96.048,209.162 96.085,209.600 96.382 M216.400 96.400 C 215.576 96.664,215.541 96.726,216.200 96.754 C 216.640 96.773,217.270 96.613,217.600 96.400 C 218.301 95.947,217.814 95.947,216.400 96.400 M172.100 117.096 C 173.365 117.175,175.435 117.175,176.700 117.096 C 177.965 117.016,176.930 116.951,174.400 116.951 C 171.870 116.951,170.835 117.016,172.100 117.096 M165.200 117.600 C 164.408 117.854,164.367 117.920,165.000 117.920 C 165.440 117.920,166.250 117.776,166.800 117.600 C 167.592 117.346,167.633 117.280,167.000 117.280 C 166.560 117.280,165.750 117.424,165.200 117.600 M182.000 117.600 C 182.550 117.776,183.360 117.920,183.800 117.920 C 184.433 117.920,184.392 117.854,183.600 117.600 C 183.050 117.424,182.240 117.280,181.800 117.280 C 181.167 117.280,181.208 117.346,182.000 117.600 M200.400 124.364 C 200.950 124.814,201.580 125.183,201.800 125.185 C 202.228 125.188,201.505 124.634,200.200 123.960 C 199.669 123.685,199.736 123.821,200.400 124.364 M140.981 129.700 L 139.400 131.400 141.194 129.800 C 142.180 128.920,143.065 128.155,143.161 128.100 C 143.256 128.045,143.160 128.000,142.948 128.000 C 142.736 128.000,141.851 128.765,140.981 129.700 M220.422 142.276 C 222.255 144.240,222.396 144.377,224.224 145.994 C 225.091 146.761,224.364 145.906,222.609 144.094 C 219.449 140.831,217.768 139.435,220.422 142.276 M183.601 152.423 C 183.712 152.520,191.272 159.977,200.401 168.993 L 217.000 185.386 201.800 170.067 C 193.440 161.642,185.880 154.185,185.000 153.497 C 184.120 152.809,183.491 152.325,183.601 152.423 M237.220 159.021 C 238.199 160.133,239.081 160.981,239.181 160.907 C 239.280 160.833,238.479 159.923,237.401 158.886 L 235.440 157.000 237.220 159.021 M316.596 166.100 L 309.000 173.800 316.700 166.204 C 320.935 162.026,324.400 158.561,324.400 158.504 C 324.400 158.219,323.654 158.946,316.596 166.100 M150.200 166.800 C 146.906 170.100,144.300 172.800,144.410 172.800 C 144.520 172.800,147.306 170.100,150.600 166.800 C 153.894 163.500,156.500 160.800,156.390 160.800 C 156.280 160.800,153.494 163.500,150.200 166.800 M243.734 172.800 C 243.734 174.450,243.805 175.125,243.891 174.300 C 243.978 173.475,243.978 172.125,243.891 171.300 C 243.805 170.475,243.734 171.150,243.734 172.800 M299.396 183.300 L 291.800 191.000 299.500 183.404 C 306.654 176.346,307.381 175.600,307.096 175.600 C 307.039 175.600,303.574 179.065,299.396 183.300 M133.800 183.200 C 130.506 186.500,127.900 189.200,128.010 189.200 C 128.120 189.200,130.906 186.500,134.200 183.200 C 137.494 179.900,140.100 177.200,139.990 177.200 C 139.880 177.200,137.094 179.900,133.800 183.200 M231.200 188.418 C 230.762 188.715,230.924 188.752,231.800 188.556 C 233.271 188.227,233.590 187.998,232.567 188.006 C 232.145 188.009,231.530 188.195,231.200 188.418 M226.300 189.089 C 227.015 189.178,228.185 189.178,228.900 189.089 C 229.615 189.001,229.030 188.928,227.600 188.928 C 226.170 188.928,225.585 189.001,226.300 189.089 M282.996 199.700 L 275.400 207.400 283.100 199.804 C 287.335 195.626,290.800 192.161,290.800 192.104 C 290.800 191.819,290.054 192.546,282.996 199.700 M116.600 200.400 C 113.306 203.700,110.700 206.400,110.810 206.400 C 110.920 206.400,113.706 203.700,117.000 200.400 C 120.294 197.100,122.900 194.400,122.790 194.400 C 122.680 194.400,119.894 197.100,116.600 200.400 M266.196 216.500 L 259.000 223.800 266.300 216.604 C 270.315 212.646,273.600 209.361,273.600 209.304 C 273.600 209.019,272.881 209.718,266.196 216.500 M99.795 217.300 L 93.400 223.800 99.900 217.405 C 103.475 213.887,106.400 210.962,106.400 210.905 C 106.400 210.619,105.737 211.261,99.795 217.300 M171.705 211.087 C 172.314 211.179,173.214 211.177,173.705 211.082 C 174.197 210.987,173.700 210.911,172.600 210.914 C 171.500 210.917,171.097 210.995,171.705 211.087 M160.801 215.798 C 160.286 216.348,159.939 216.864,160.032 216.946 C 160.124 217.028,160.619 216.578,161.130 215.947 C 162.276 214.535,162.074 214.444,160.801 215.798 M198.200 229.933 C 206.560 238.358,214.120 245.815,215.000 246.503 C 215.880 247.191,216.509 247.675,216.399 247.577 C 216.288 247.480,208.728 240.023,199.599 231.007 L 183.000 214.614 198.200 229.933 M156.114 227.400 C 156.117 228.500,156.195 228.903,156.287 228.295 C 156.379 227.686,156.377 226.786,156.282 226.295 C 156.187 225.803,156.111 226.300,156.114 227.400 M249.796 232.900 L 242.600 240.200 249.900 233.004 C 256.682 226.319,257.381 225.600,257.096 225.600 C 257.039 225.600,253.754 228.885,249.796 232.900 M83.395 233.700 L 77.000 240.200 83.500 233.805 C 87.075 230.287,90.000 227.362,90.000 227.305 C 90.000 227.019,89.337 227.661,83.395 233.700 M238.378 244.300 L 237.000 245.800 238.500 244.422 C 239.896 243.138,240.184 242.800,239.878 242.800 C 239.812 242.800,239.137 243.475,238.378 244.300 M221.000 249.600 C 221.440 249.789,222.070 249.944,222.400 249.944 C 222.778 249.944,222.704 249.817,222.200 249.600 C 221.760 249.411,221.130 249.256,220.800 249.256 C 220.422 249.256,220.496 249.383,221.000 249.600 M176.996 255.596 C 177.626 256.254,178.219 256.714,178.313 256.620 C 178.522 256.412,176.556 254.400,176.143 254.400 C 175.982 254.400,176.366 254.938,176.996 255.596 M258.515 270.410 C 257.589 271.285,256.967 272.000,257.134 272.000 C 257.301 272.000,258.141 271.280,259.000 270.400 C 261.010 268.341,260.700 268.348,258.515 270.410 M192.400 270.600 C 193.146 271.370,193.847 272.000,193.957 272.000 C 194.067 272.000,193.546 271.370,192.800 270.600 C 192.054 269.830,191.353 269.200,191.243 269.200 C 191.133 269.200,191.654 269.830,192.400 270.600 M196.894 274.090 C 198.082 275.100,200.400 276.547,200.400 276.279 C 200.400 276.188,199.365 275.449,198.100 274.637 C 196.835 273.825,196.292 273.579,196.894 274.090 M216.400 282.400 C 216.950 282.576,217.850 282.717,218.400 282.713 C 219.298 282.706,219.278 282.674,218.200 282.400 C 216.508 281.969,215.056 281.969,216.400 282.400 M233.000 282.400 C 231.922 282.674,231.902 282.706,232.800 282.713 C 233.350 282.717,234.250 282.576,234.800 282.400 C 236.144 281.969,234.692 281.969,233.000 282.400 M223.500 283.095 C 224.655 283.176,226.545 283.176,227.700 283.095 C 228.855 283.014,227.910 282.948,225.600 282.948 C 223.290 282.948,222.345 283.014,223.500 283.095 M182.800 303.606 C 182.378 303.882,182.615 303.923,183.600 303.742 C 185.325 303.425,185.651 303.198,184.367 303.206 C 183.835 303.209,183.130 303.389,182.800 303.606 M187.633 303.343 C 187.725 303.421,188.430 303.601,189.200 303.742 C 190.185 303.923,190.422 303.882,190.000 303.606 C 189.458 303.250,187.237 303.003,187.633 303.343 M165.997 316.700 L 156.600 326.200 166.100 316.803 C 171.325 311.635,175.600 307.360,175.600 307.303 C 175.600 307.020,174.729 307.872,165.997 316.700 M198.383 308.700 C 199.126 309.635,199.806 310.400,199.894 310.400 C 200.177 310.400,198.463 308.149,197.735 307.564 C 197.348 307.254,197.640 307.765,198.383 308.700 M197.227 332.171 C 196.725 332.706,196.409 333.381,196.526 333.671 C 196.689 334.082,196.744 334.071,196.768 333.626 C 196.786 333.310,197.191 332.635,197.670 332.126 C 198.148 331.617,198.449 331.200,198.339 331.200 C 198.229 331.200,197.729 331.637,197.227 332.171 " stroke="none" fill="#247494" fill-rule="evenodd"></path></g></svg>