<svg id="svg" version="1.1" xmlns="http://www.w3.org/2000/svg" xmlns:xlink="http://www.w3.org/1999/xlink" width="400" height="400" viewBox="0, 0, 400,400"><g id="svgg"><path id="path0" d="M247.800 98.427 C 234.274 102.958,225.877 115.158,226.973 128.684 C 227.400 133.947,226.028 136.949,222.338 138.832 C 220.842 139.595,219.947 142.400,221.200 142.400 C 221.420 142.400,221.600 142.760,221.600 143.200 C 221.600 143.640,221.780 144.000,222.000 144.000 C 222.220 144.000,222.400 144.283,222.400 144.629 C 222.400 146.450,223.759 146.673,227.172 145.410 C 233.785 142.963,240.277 150.810,236.784 157.028 C 235.935 158.540,236.209 159.600,237.449 159.600 C 237.752 159.600,238.000 159.780,238.000 160.000 C 238.000 160.220,238.360 160.400,238.800 160.400 C 239.240 160.400,239.600 160.580,239.600 160.800 C 239.600 161.020,239.945 161.200,240.367 161.200 C 240.788 161.200,241.197 161.390,241.274 161.623 C 241.546 162.438,242.616 161.572,243.577 159.760 C 245.341 156.436,247.194 155.743,255.243 155.398 C 258.965 155.239,262.108 154.949,262.228 154.754 C 262.349 154.559,262.889 154.400,263.429 154.400 C 263.969 154.400,264.723 154.241,265.105 154.047 C 265.487 153.852,266.340 153.471,267.000 153.200 C 268.139 152.732,268.757 152.427,270.600 151.422 C 275.341 148.838,279.684 144.089,282.038 138.915 C 282.717 137.422,283.436 135.887,283.636 135.505 C 283.836 135.123,284.000 134.279,284.000 133.629 C 284.000 132.979,284.180 132.336,284.400 132.200 C 284.634 132.055,284.800 129.737,284.800 126.600 C 284.800 123.463,284.634 121.145,284.400 121.000 C 284.180 120.864,284.000 120.221,284.000 119.571 C 284.000 118.921,283.836 118.077,283.636 117.695 C 283.436 117.313,282.726 115.796,282.057 114.325 C 278.970 107.534,274.208 103.005,267.000 100.006 C 266.340 99.731,265.487 99.348,265.105 99.153 C 264.723 98.959,264.037 98.800,263.579 98.800 C 263.122 98.800,262.444 98.642,262.074 98.449 C 260.440 97.598,250.322 97.583,247.800 98.427 M80.400 234.928 C 80.400 279.173,80.328 277.600,82.347 277.600 C 82.596 277.600,82.800 277.780,82.800 278.000 C 82.800 278.220,83.070 278.400,83.400 278.400 C 83.730 278.400,84.000 278.580,84.000 278.800 C 84.000 279.020,84.278 279.200,84.617 279.200 C 84.956 279.200,85.620 279.560,86.092 280.000 C 86.564 280.440,87.187 280.800,87.475 280.800 C 87.764 280.800,88.000 280.980,88.000 281.200 C 88.000 281.420,88.278 281.600,88.617 281.600 C 88.956 281.600,89.620 281.960,90.092 282.400 C 90.564 282.840,91.187 283.200,91.475 283.200 C 91.764 283.200,92.000 283.380,92.000 283.600 C 92.000 283.820,92.270 284.000,92.600 284.000 C 92.930 284.000,93.200 284.180,93.200 284.400 C 93.200 284.620,93.470 284.800,93.800 284.800 C 94.130 284.800,94.400 284.980,94.400 285.200 C 94.400 285.420,94.670 285.600,95.000 285.600 C 95.330 285.600,95.600 285.780,95.600 286.000 C 95.600 286.220,95.878 286.400,96.217 286.400 C 96.556 286.400,97.220 286.760,97.692 287.200 C 98.164 287.640,98.787 288.000,99.075 288.000 C 99.364 288.000,99.600 288.180,99.600 288.400 C 99.600 288.620,99.960 288.800,100.400 288.800 C 100.840 288.800,101.200 288.949,101.200 289.130 C 101.200 289.312,102.280 289.987,103.599 290.630 C 104.919 291.274,105.999 291.935,105.999 292.100 C 106.000 292.265,106.360 292.400,106.800 292.400 C 107.240 292.400,107.600 292.546,107.600 292.725 C 107.600 292.904,108.230 293.298,109.000 293.600 C 109.770 293.902,110.400 294.296,110.400 294.475 C 110.400 294.654,110.670 294.800,111.000 294.800 C 111.330 294.800,111.600 294.980,111.600 295.200 C 111.600 295.420,111.865 295.600,112.188 295.600 C 112.511 295.600,113.417 295.960,114.200 296.400 C 114.983 296.840,115.889 297.200,116.212 297.200 C 116.535 297.200,116.800 297.380,116.800 297.600 C 116.800 297.820,117.160 298.000,117.600 298.000 C 118.040 298.000,118.400 298.180,118.400 298.400 C 118.400 298.620,118.760 298.800,119.200 298.800 C 119.640 298.800,120.000 298.980,120.000 299.200 C 120.000 299.420,120.540 299.600,121.200 299.600 C 121.860 299.600,122.400 299.780,122.400 300.000 C 122.400 300.220,122.749 300.400,123.176 300.400 C 123.603 300.400,124.064 300.580,124.200 300.800 C 124.336 301.020,124.887 301.200,125.424 301.200 C 125.961 301.200,126.400 301.380,126.400 301.600 C 126.400 301.820,126.839 302.000,127.376 302.000 C 127.913 302.000,128.464 302.180,128.600 302.400 C 128.736 302.620,129.366 302.800,130.000 302.800 C 130.634 302.800,131.264 302.980,131.400 303.200 C 131.536 303.420,132.166 303.600,132.800 303.600 C 133.434 303.600,134.064 303.780,134.200 304.000 C 134.336 304.220,135.056 304.400,135.800 304.400 C 136.544 304.400,137.264 304.580,137.400 304.800 C 137.536 305.020,138.447 305.200,139.424 305.200 C 140.401 305.200,141.200 305.363,141.200 305.563 C 141.200 305.763,142.145 306.028,143.300 306.152 C 144.455 306.277,146.840 306.586,148.600 306.839 C 152.786 307.442,290.201 307.812,291.400 307.224 C 291.840 307.008,293.370 306.742,294.800 306.633 C 298.992 306.313,301.373 305.948,301.780 305.561 C 301.989 305.363,302.743 305.200,303.456 305.200 C 304.169 305.200,304.864 305.020,305.000 304.800 C 305.136 304.580,305.867 304.400,306.624 304.400 C 307.381 304.400,308.000 304.220,308.000 304.000 C 308.000 303.780,308.540 303.600,309.200 303.600 C 309.860 303.600,310.400 303.420,310.400 303.200 C 310.400 302.980,310.940 302.800,311.600 302.800 C 312.260 302.800,312.800 302.620,312.800 302.400 C 312.800 302.180,313.340 302.000,314.000 302.000 C 314.660 302.000,315.200 301.820,315.200 301.600 C 315.200 301.380,315.549 301.200,315.976 301.200 C 316.403 301.200,316.864 301.020,317.000 300.800 C 317.136 300.580,317.687 300.400,318.224 300.400 C 318.761 300.400,319.200 300.220,319.200 300.000 C 319.200 299.780,319.560 299.600,320.000 299.600 C 320.440 299.600,320.800 299.420,320.800 299.200 C 320.800 298.980,321.160 298.800,321.600 298.800 C 322.040 298.800,322.400 298.620,322.400 298.400 C 322.400 298.180,322.760 298.000,323.200 298.000 C 323.640 298.000,324.000 297.820,324.000 297.600 C 324.000 297.380,324.270 297.200,324.600 297.200 C 324.930 297.200,325.200 297.020,325.200 296.800 C 325.200 296.580,325.560 296.400,326.000 296.400 C 326.440 296.400,326.800 296.220,326.800 296.000 C 326.800 295.780,327.160 295.600,327.600 295.600 C 328.040 295.600,328.400 295.420,328.400 295.200 C 328.400 294.980,328.720 294.800,329.112 294.800 C 329.503 294.800,330.083 294.440,330.400 294.000 C 330.717 293.560,331.297 293.200,331.688 293.200 C 332.080 293.200,332.400 293.050,332.400 292.868 C 332.400 292.685,332.895 292.281,333.500 291.971 C 335.405 290.993,339.741 287.885,341.111 286.516 C 341.835 285.792,342.582 285.200,342.771 285.200 C 342.961 285.200,343.974 284.390,345.022 283.400 C 346.070 282.410,347.093 281.600,347.295 281.600 C 347.497 281.600,348.354 280.880,349.200 280.000 C 350.046 279.120,350.946 278.400,351.200 278.400 C 351.454 278.400,352.354 277.680,353.200 276.800 C 354.046 275.920,354.894 275.200,355.085 275.200 C 355.276 275.200,356.228 274.480,357.200 273.600 C 358.172 272.720,359.091 272.000,359.242 272.000 C 359.393 272.000,360.374 271.190,361.422 270.200 C 362.470 269.210,363.493 268.400,363.695 268.400 C 363.897 268.400,364.754 267.680,365.600 266.800 C 366.446 265.920,367.310 265.200,367.520 265.200 C 367.731 265.200,368.645 264.480,369.552 263.600 C 370.459 262.720,371.289 262.000,371.396 262.000 C 371.629 262.000,372.968 260.919,374.149 259.777 C 374.617 259.324,375.675 258.459,376.500 257.856 C 378.395 256.470,378.395 255.564,376.500 254.330 C 371.244 250.909,361.420 251.792,358.000 255.993 C 357.890 256.128,357.170 256.671,356.400 257.200 C 355.630 257.729,354.910 258.263,354.800 258.387 C 354.690 258.511,349.290 262.597,342.800 267.468 C 336.310 272.339,326.775 279.505,321.611 283.393 C 312.166 290.503,310.276 291.669,306.600 292.655 C 304.038 293.341,199.383 293.464,195.920 292.784 C 187.458 291.124,183.888 289.559,174.049 283.200 C 150.434 267.937,149.952 267.592,148.967 265.251 C 146.133 258.512,152.870 251.463,159.513 254.216 C 160.331 254.555,163.160 256.239,165.800 257.957 C 168.440 259.675,174.225 263.441,178.656 266.325 C 188.092 272.467,189.976 273.597,192.400 274.566 C 197.138 276.459,195.245 276.400,250.766 276.400 L 303.092 276.400 304.157 275.562 C 308.497 272.148,307.994 262.291,303.282 258.407 C 300.897 256.441,300.065 256.400,262.393 256.400 C 243.102 256.400,226.798 256.241,226.160 256.047 C 225.522 255.852,224.190 255.462,223.200 255.179 C 220.825 254.499,216.644 252.549,214.400 251.073 C 213.410 250.422,201.530 238.869,188.000 225.400 C 162.924 200.437,161.758 199.378,156.698 196.992 C 150.490 194.064,152.819 194.225,114.700 194.095 L 80.400 193.979 80.400 234.928 " stroke="none" fill="#f9cb84" fill-rule="evenodd"></path><path id="path1" d="M37.472 181.461 C 37.322 181.611,37.200 184.943,37.200 188.867 L 37.200 196.000 38.996 196.000 C 50.414 196.000,51.559 211.589,40.200 212.400 L 37.400 212.600 37.298 262.100 L 37.197 311.600 50.400 311.600 L 63.602 311.600 63.501 246.500 L 63.400 181.400 50.572 181.295 C 43.517 181.237,37.622 181.312,37.472 181.461 " stroke="none" fill="#e21c13" fill-rule="evenodd"></path><path id="path2" d="M245.000 54.000 C 244.864 54.220,243.874 54.400,242.800 54.400 C 241.726 54.400,240.736 54.580,240.600 54.800 C 240.464 55.020,239.643 55.200,238.776 55.200 C 237.909 55.200,237.200 55.380,237.200 55.600 C 237.200 55.820,236.660 56.000,236.000 56.000 C 235.340 56.000,234.800 56.180,234.800 56.400 C 234.800 56.620,234.260 56.800,233.600 56.800 C 232.940 56.800,232.400 56.980,232.400 57.200 C 232.400 57.420,231.860 57.600,231.200 57.600 C 230.540 57.600,230.000 57.780,230.000 58.000 C 230.000 58.220,229.685 58.399,229.300 58.398 C 228.291 58.395,224.800 59.699,224.800 60.079 C 224.800 60.256,224.440 60.400,224.000 60.400 C 223.560 60.400,223.200 60.580,223.200 60.800 C 223.200 61.020,222.840 61.200,222.400 61.200 C 221.960 61.200,221.600 61.380,221.600 61.600 C 221.600 61.820,221.240 62.000,220.800 62.000 C 220.360 62.000,220.000 62.180,220.000 62.400 C 220.000 62.620,219.764 62.800,219.475 62.800 C 219.187 62.800,218.564 63.160,218.092 63.600 C 217.620 64.040,216.956 64.400,216.617 64.400 C 216.278 64.400,216.000 64.550,216.000 64.732 C 216.000 64.915,215.505 65.319,214.900 65.630 C 214.295 65.940,213.509 66.511,213.153 66.897 C 212.797 67.284,212.324 67.600,212.101 67.600 C 211.879 67.600,210.955 68.320,210.048 69.200 C 209.141 70.080,208.312 70.800,208.205 70.800 C 207.910 70.800,200.400 78.251,200.400 78.543 C 200.400 78.684,199.680 79.541,198.800 80.448 C 197.920 81.355,197.200 82.279,197.200 82.501 C 197.200 82.724,196.884 83.197,196.497 83.553 C 196.111 83.909,195.540 84.695,195.230 85.300 C 194.919 85.905,194.515 86.400,194.332 86.400 C 194.150 86.400,194.000 86.760,194.000 87.200 C 194.000 87.640,193.846 88.000,193.657 88.000 C 193.469 88.000,192.794 89.170,192.157 90.599 C 191.521 92.029,190.865 93.199,190.700 93.199 C 190.535 93.200,190.400 93.560,190.400 94.000 C 190.400 94.440,190.220 94.800,190.000 94.800 C 189.780 94.800,189.600 95.160,189.600 95.600 C 189.600 96.040,189.420 96.400,189.200 96.400 C 188.980 96.400,188.800 96.760,188.800 97.200 C 188.800 97.640,188.620 98.000,188.400 98.000 C 188.180 98.000,188.000 98.540,188.000 99.200 C 188.000 99.860,187.820 100.400,187.600 100.400 C 187.380 100.400,187.200 100.749,187.200 101.176 C 187.200 101.603,187.020 102.064,186.800 102.200 C 186.580 102.336,186.400 102.876,186.400 103.400 C 186.400 103.924,186.220 104.464,186.000 104.600 C 185.780 104.736,185.600 105.467,185.600 106.224 C 185.600 106.981,185.420 107.600,185.200 107.600 C 184.980 107.600,184.800 108.320,184.800 109.200 C 184.800 110.080,184.620 110.800,184.400 110.800 C 184.180 110.800,184.000 111.689,184.000 112.776 C 184.000 113.863,183.820 114.864,183.600 115.000 C 183.373 115.140,183.200 117.130,183.200 119.600 C 183.200 122.070,183.027 124.060,182.800 124.200 C 182.580 124.336,182.400 125.416,182.400 126.600 C 182.400 127.784,182.580 128.864,182.800 129.000 C 183.027 129.140,183.200 131.137,183.200 133.624 C 183.200 136.275,183.358 138.000,183.600 138.000 C 183.820 138.000,184.000 138.990,184.000 140.200 C 184.000 141.410,184.180 142.400,184.400 142.400 C 184.620 142.400,184.800 143.120,184.800 144.000 C 184.800 144.880,184.980 145.600,185.200 145.600 C 185.420 145.600,185.600 146.219,185.600 146.976 C 185.600 147.733,185.780 148.464,186.000 148.600 C 186.220 148.736,186.400 149.276,186.400 149.800 C 186.400 150.324,186.580 150.864,186.800 151.000 C 187.020 151.136,187.200 151.597,187.200 152.024 C 187.200 152.451,187.380 152.800,187.600 152.800 C 187.820 152.800,188.000 153.340,188.000 154.000 C 188.000 154.660,188.180 155.200,188.400 155.200 C 188.620 155.200,188.800 155.560,188.800 156.000 C 188.800 156.440,188.980 156.800,189.200 156.800 C 189.420 156.800,189.600 157.070,189.600 157.400 C 189.600 157.730,189.780 158.000,190.000 158.000 C 190.220 158.000,190.400 158.360,190.400 158.800 C 190.400 159.240,190.580 159.600,190.800 159.600 C 191.020 159.600,191.200 159.856,191.200 160.168 C 191.200 160.942,193.998 166.414,194.885 167.375 C 195.278 167.802,195.600 168.347,195.600 168.587 C 195.600 168.827,195.960 169.283,196.400 169.600 C 196.840 169.917,197.200 170.385,197.200 170.640 C 197.200 170.895,197.920 171.845,198.800 172.752 C 199.680 173.659,200.400 174.493,200.400 174.606 C 200.400 174.873,207.927 182.400,208.194 182.400 C 208.307 182.400,209.141 183.120,210.048 184.000 C 210.955 184.880,211.879 185.600,212.101 185.600 C 212.324 185.600,212.797 185.916,213.153 186.303 C 213.509 186.689,214.295 187.260,214.900 187.570 C 215.505 187.881,216.000 188.285,216.000 188.468 C 216.000 188.650,216.360 188.800,216.800 188.800 C 217.240 188.800,217.600 188.959,217.600 189.153 C 217.600 189.595,221.647 191.600,222.540 191.600 C 222.903 191.600,223.200 191.780,223.200 192.000 C 223.200 192.220,223.560 192.400,224.000 192.400 C 224.440 192.400,224.800 192.580,224.800 192.800 C 224.800 193.020,225.070 193.200,225.400 193.200 C 225.730 193.200,226.000 193.380,226.000 193.600 C 226.000 193.820,226.349 194.000,226.776 194.000 C 227.203 194.000,227.664 194.180,227.800 194.400 C 227.936 194.620,228.487 194.800,229.024 194.800 C 229.561 194.800,230.000 194.980,230.000 195.200 C 230.000 195.420,230.450 195.600,231.000 195.600 C 231.550 195.600,232.000 195.780,232.000 196.000 C 232.000 196.220,232.630 196.400,233.400 196.400 C 234.170 196.400,234.800 196.580,234.800 196.800 C 234.800 197.020,235.340 197.200,236.000 197.200 C 236.660 197.200,237.200 197.380,237.200 197.600 C 237.200 197.820,237.920 198.000,238.800 198.000 C 239.680 198.000,240.400 198.180,240.400 198.400 C 240.400 198.620,241.379 198.800,242.576 198.800 C 243.773 198.800,244.864 198.980,245.000 199.200 C 245.143 199.432,247.337 199.600,250.224 199.600 C 253.275 199.600,255.200 199.755,255.200 200.000 C 255.200 200.220,255.650 200.400,256.200 200.400 C 256.750 200.400,257.200 200.220,257.200 200.000 C 257.200 199.754,259.200 199.600,262.400 199.600 C 265.600 199.600,267.600 199.446,267.600 199.200 C 267.600 198.980,268.590 198.800,269.800 198.800 C 271.010 198.800,272.000 198.620,272.000 198.400 C 272.000 198.180,272.720 198.000,273.600 198.000 C 274.480 198.000,275.200 197.820,275.200 197.600 C 275.200 197.380,275.740 197.200,276.400 197.200 C 277.060 197.200,277.600 197.020,277.600 196.800 C 277.600 196.580,278.140 196.400,278.800 196.400 C 279.460 196.400,280.000 196.220,280.000 196.000 C 280.000 195.780,280.540 195.600,281.200 195.600 C 281.860 195.600,282.400 195.420,282.400 195.200 C 282.400 194.980,282.940 194.800,283.600 194.800 C 284.260 194.800,284.800 194.620,284.800 194.400 C 284.800 194.180,285.160 194.000,285.600 194.000 C 286.040 194.000,286.400 193.820,286.400 193.600 C 286.400 193.380,286.760 193.200,287.200 193.200 C 287.640 193.200,288.000 193.020,288.000 192.800 C 288.000 192.580,288.360 192.400,288.800 192.400 C 289.240 192.400,289.600 192.220,289.600 192.000 C 289.600 191.780,289.807 191.600,290.060 191.600 C 290.753 191.600,294.800 189.480,294.800 189.116 C 294.800 188.942,295.160 188.800,295.600 188.800 C 296.040 188.800,296.400 188.650,296.400 188.468 C 296.400 188.285,296.895 187.881,297.500 187.570 C 298.105 187.260,298.891 186.689,299.247 186.303 C 299.603 185.916,300.079 185.600,300.306 185.600 C 300.533 185.600,301.638 184.700,302.761 183.600 C 303.885 182.500,304.910 181.600,305.041 181.600 C 305.344 181.600,311.200 175.676,311.200 175.369 C 311.200 175.241,311.920 174.446,312.800 173.600 C 313.680 172.754,314.400 171.869,314.400 171.631 C 314.400 171.394,314.580 171.200,314.800 171.200 C 315.020 171.200,315.200 170.970,315.200 170.688 C 315.200 170.407,315.560 169.917,316.000 169.600 C 316.440 169.283,316.800 168.743,316.800 168.400 C 316.800 168.057,317.160 167.517,317.600 167.200 C 318.040 166.883,318.400 166.386,318.400 166.095 C 318.400 165.804,318.760 165.180,319.200 164.708 C 319.640 164.236,320.000 163.613,320.000 163.325 C 320.000 163.036,320.180 162.800,320.400 162.800 C 320.620 162.800,320.800 162.440,320.800 162.000 C 320.800 161.560,320.980 161.200,321.200 161.200 C 321.420 161.200,321.600 160.840,321.600 160.400 C 321.600 159.960,321.780 159.600,322.000 159.600 C 322.220 159.600,322.400 159.255,322.400 158.833 C 322.400 158.412,322.547 158.007,322.726 157.933 C 323.228 157.728,325.200 152.518,325.200 151.396 C 325.200 150.848,325.380 150.400,325.600 150.400 C 325.820 150.400,326.000 149.860,326.000 149.200 C 326.000 148.540,326.180 148.000,326.400 148.000 C 326.620 148.000,326.800 147.460,326.800 146.800 C 326.800 146.140,326.980 145.600,327.200 145.600 C 327.420 145.600,327.600 144.700,327.600 143.600 C 327.600 142.500,327.780 141.600,328.000 141.600 C 328.220 141.600,328.400 140.711,328.400 139.624 C 328.400 138.537,328.580 137.536,328.800 137.400 C 329.050 137.245,329.200 133.204,329.200 126.600 C 329.200 119.996,329.050 115.955,328.800 115.800 C 328.580 115.664,328.400 114.573,328.400 113.376 C 328.400 112.179,328.220 111.200,328.000 111.200 C 327.780 111.200,327.600 110.390,327.600 109.400 C 327.600 108.410,327.420 107.600,327.200 107.600 C 326.980 107.600,326.800 107.060,326.800 106.400 C 326.800 105.740,326.620 105.200,326.400 105.200 C 326.180 105.200,326.000 104.660,326.000 104.000 C 326.000 103.340,325.820 102.800,325.600 102.800 C 325.380 102.800,325.200 102.357,325.200 101.815 C 325.200 100.284,321.895 92.397,321.115 92.067 C 320.942 91.993,320.800 91.588,320.800 91.167 C 320.800 90.745,320.620 90.400,320.400 90.400 C 320.180 90.400,320.000 90.164,320.000 89.875 C 320.000 89.587,319.640 88.964,319.200 88.492 C 318.760 88.020,318.400 87.396,318.400 87.105 C 318.400 86.814,318.040 86.317,317.600 86.000 C 317.160 85.683,316.800 85.143,316.800 84.800 C 316.800 84.457,316.440 83.917,316.000 83.600 C 315.560 83.283,315.200 82.828,315.200 82.590 C 315.200 81.407,301.393 67.600,300.210 67.600 C 299.972 67.600,299.517 67.240,299.200 66.800 C 298.883 66.360,298.343 66.000,298.000 66.000 C 297.657 66.000,297.117 65.640,296.800 65.200 C 296.483 64.760,295.903 64.400,295.512 64.400 C 295.120 64.400,294.800 64.250,294.800 64.068 C 294.800 63.885,294.305 63.480,293.700 63.168 C 293.095 62.856,292.510 62.500,292.400 62.376 C 291.832 61.737,284.294 58.400,283.418 58.400 C 282.858 58.400,282.400 58.220,282.400 58.000 C 282.400 57.780,281.860 57.600,281.200 57.600 C 280.540 57.600,280.000 57.420,280.000 57.200 C 280.000 56.980,279.460 56.800,278.800 56.800 C 278.140 56.800,277.600 56.620,277.600 56.400 C 277.600 56.180,277.060 56.000,276.400 56.000 C 275.740 56.000,275.200 55.820,275.200 55.600 C 275.200 55.380,274.390 55.200,273.400 55.200 C 272.410 55.200,271.600 55.020,271.600 54.800 C 271.600 54.580,270.711 54.400,269.624 54.400 C 268.537 54.400,267.536 54.220,267.400 54.000 C 267.245 53.749,263.070 53.600,256.200 53.600 C 249.330 53.600,245.155 53.749,245.000 54.000 M264.800 70.587 C 271.076 71.644,275.875 73.163,281.200 75.778 C 283.892 77.100,290.687 81.445,291.830 82.575 C 292.066 82.809,293.273 83.874,294.511 84.942 C 300.477 90.089,307.364 100.673,309.904 108.600 C 312.052 115.302,312.800 119.932,312.800 126.521 C 312.800 132.564,312.428 135.324,310.754 141.700 C 308.321 150.966,301.185 162.563,294.400 168.279 C 293.410 169.113,292.240 170.131,291.800 170.540 C 282.673 179.030,258.352 186.249,253.420 181.933 C 253.211 181.750,251.647 181.600,249.944 181.600 C 248.241 181.600,246.736 181.420,246.600 181.200 C 246.464 180.980,245.643 180.800,244.776 180.800 C 243.909 180.800,243.200 180.620,243.200 180.400 C 243.200 180.180,242.581 180.000,241.824 180.000 C 241.067 180.000,240.336 179.820,240.200 179.600 C 240.064 179.380,239.601 179.200,239.171 179.200 C 238.741 179.200,238.032 179.020,237.595 178.800 C 237.158 178.580,236.442 178.220,236.005 178.000 C 235.568 177.780,234.938 177.600,234.605 177.600 C 234.272 177.600,234.000 177.420,234.000 177.200 C 234.000 176.980,233.744 176.800,233.432 176.800 C 232.731 176.800,227.051 173.963,226.867 173.521 C 226.793 173.344,226.428 173.200,226.055 173.200 C 225.682 173.200,225.117 172.840,224.800 172.400 C 224.483 171.960,224.069 171.600,223.880 171.600 C 223.692 171.600,222.876 170.919,222.069 170.087 C 221.261 169.255,219.970 168.137,219.200 167.603 C 217.490 166.416,214.400 163.172,214.400 162.564 C 214.400 162.439,213.680 161.646,212.800 160.800 C 211.920 159.954,211.200 159.108,211.200 158.920 C 211.200 158.731,210.840 158.317,210.400 158.000 C 209.960 157.683,209.600 157.103,209.600 156.712 C 209.600 156.320,209.457 156.000,209.282 156.000 C 208.926 156.000,206.000 150.002,206.000 149.270 C 206.000 149.012,205.820 148.800,205.600 148.800 C 205.380 148.800,205.200 148.528,205.200 148.195 C 205.200 147.862,205.020 147.232,204.800 146.795 C 204.580 146.358,204.220 145.642,204.000 145.205 C 203.780 144.768,203.600 144.048,203.600 143.605 C 203.600 143.162,203.420 142.800,203.200 142.800 C 202.980 142.800,202.800 142.181,202.800 141.424 C 202.800 140.667,202.620 139.936,202.400 139.800 C 202.180 139.664,202.000 138.854,202.000 138.000 C 202.000 137.146,201.820 136.336,201.600 136.200 C 201.380 136.064,201.200 134.613,201.200 132.976 C 201.200 131.259,201.031 130.000,200.800 130.000 C 200.565 130.000,200.400 128.608,200.400 126.624 C 200.400 124.767,200.580 123.136,200.800 123.000 C 201.020 122.864,201.200 121.514,201.200 120.000 C 201.200 118.486,201.380 117.136,201.600 117.000 C 201.820 116.864,202.000 116.054,202.000 115.200 C 202.000 114.346,202.180 113.536,202.400 113.400 C 202.620 113.264,202.800 112.533,202.800 111.776 C 202.800 111.019,202.980 110.400,203.200 110.400 C 203.420 110.400,203.600 109.860,203.600 109.200 C 203.600 108.540,203.780 108.000,204.000 108.000 C 204.220 108.000,204.400 107.728,204.400 107.395 C 204.400 107.062,204.566 106.477,204.769 106.095 C 204.972 105.713,205.985 103.600,207.020 101.400 C 208.056 99.200,209.059 97.340,209.251 97.267 C 209.443 97.193,209.600 96.877,209.600 96.563 C 209.600 96.249,210.140 95.428,210.800 94.737 C 211.460 94.046,212.000 93.314,212.000 93.109 C 212.000 92.905,212.720 92.046,213.600 91.200 C 214.480 90.354,215.200 89.553,215.200 89.418 C 215.200 89.091,217.574 86.738,218.686 85.962 C 219.681 85.269,223.193 82.275,224.626 80.900 C 225.142 80.405,225.842 80.000,226.182 80.000 C 226.522 80.000,226.800 79.820,226.800 79.600 C 226.800 79.380,227.036 79.200,227.325 79.200 C 227.613 79.200,228.236 78.840,228.708 78.400 C 229.180 77.960,229.844 77.600,230.183 77.600 C 230.522 77.600,230.800 77.420,230.800 77.200 C 230.800 76.980,231.160 76.800,231.600 76.800 C 232.040 76.800,232.400 76.620,232.400 76.400 C 232.400 76.180,232.760 76.000,233.200 76.000 C 233.640 76.000,234.000 75.820,234.000 75.600 C 234.000 75.380,234.315 75.201,234.700 75.202 C 235.448 75.204,238.943 74.135,240.095 73.552 C 240.477 73.358,241.206 73.200,241.715 73.200 C 242.224 73.200,242.811 73.038,243.020 72.841 C 243.469 72.416,245.926 72.025,249.800 71.762 C 251.340 71.657,252.960 71.419,253.400 71.233 C 253.840 71.048,254.650 70.706,255.200 70.475 C 256.632 69.872,260.852 69.922,264.800 70.587 M251.000 81.443 C 248.648 81.789,243.772 82.878,242.086 83.434 C 240.076 84.098,239.053 84.161,239.400 83.600 C 239.536 83.380,239.277 83.200,238.824 83.200 C 238.371 83.200,238.000 83.380,238.000 83.600 C 238.000 83.820,237.640 84.000,237.200 84.000 C 236.760 84.000,236.400 84.180,236.400 84.400 C 236.400 84.620,236.040 84.800,235.600 84.800 C 235.160 84.800,234.800 84.980,234.800 85.200 C 234.800 85.420,234.440 85.600,234.000 85.600 C 233.560 85.600,233.200 85.780,233.200 86.000 C 233.200 86.220,232.880 86.400,232.488 86.400 C 232.097 86.400,231.517 86.760,231.200 87.200 C 230.883 87.640,230.343 88.000,230.000 88.000 C 229.657 88.000,229.117 88.360,228.800 88.800 C 228.483 89.240,228.078 89.600,227.901 89.600 C 227.180 89.600,219.200 97.381,219.200 98.084 C 219.200 98.316,218.884 98.797,218.497 99.153 C 218.111 99.509,217.540 100.295,217.230 100.900 C 216.919 101.505,216.515 102.000,216.332 102.000 C 216.150 102.000,216.000 102.360,216.000 102.800 C 216.000 103.240,215.820 103.600,215.600 103.600 C 215.380 103.600,215.200 103.960,215.200 104.400 C 215.200 104.840,215.020 105.200,214.800 105.200 C 214.580 105.200,214.400 105.560,214.400 106.000 C 214.400 106.440,214.220 106.800,214.000 106.800 C 213.780 106.800,213.600 107.160,213.600 107.600 C 213.600 108.040,213.420 108.400,213.200 108.400 C 212.980 108.400,212.800 108.749,212.800 109.176 C 212.800 109.603,212.620 110.064,212.400 110.200 C 212.180 110.336,212.000 110.876,212.000 111.400 C 212.000 111.924,211.820 112.464,211.600 112.600 C 211.380 112.736,211.200 113.341,211.200 113.944 C 211.200 114.547,211.037 115.211,210.839 115.420 C 209.959 116.345,209.185 132.145,209.980 132.940 C 210.211 133.171,210.400 133.864,210.400 134.480 C 210.400 135.096,210.580 135.600,210.800 135.600 C 211.020 135.600,211.200 135.825,211.200 136.100 C 211.201 136.948,212.916 138.642,214.684 139.543 C 216.708 140.573,220.400 140.751,220.400 139.819 C 220.400 139.499,220.985 138.953,221.700 138.605 C 225.724 136.646,226.328 135.314,226.523 127.967 C 226.726 120.333,226.981 119.034,229.341 113.600 C 238.969 91.440,272.556 91.530,282.941 113.745 C 284.790 117.701,286.000 122.658,286.000 126.277 C 286.000 139.510,276.599 151.947,264.200 155.118 C 259.861 156.228,258.182 156.413,253.060 156.351 C 249.852 156.312,247.410 156.447,247.260 156.671 C 247.117 156.884,246.702 157.168,246.338 157.302 C 244.172 158.100,242.382 162.961,243.173 165.899 C 244.404 170.471,247.193 171.738,256.000 171.723 C 289.845 171.664,311.541 137.369,297.070 106.800 C 296.394 105.370,295.696 104.140,295.520 104.067 C 295.344 103.993,295.200 103.756,295.200 103.539 C 295.200 103.178,293.531 100.591,292.019 98.609 C 283.026 86.818,265.199 79.357,251.000 81.443 M225.639 146.454 C 224.623 147.050,224.203 147.129,223.980 146.767 C 223.611 146.170,221.600 148.041,221.600 148.982 C 221.600 149.322,221.420 149.600,221.200 149.600 C 220.965 149.600,220.800 151.000,220.800 153.000 C 220.800 155.000,220.965 156.400,221.200 156.400 C 221.420 156.400,221.600 156.675,221.600 157.011 C 221.600 157.910,225.047 161.200,225.989 161.200 C 226.435 161.200,226.800 161.380,226.800 161.600 C 226.800 161.829,228.000 162.000,229.600 162.000 C 231.272 162.000,232.400 161.832,232.400 161.584 C 232.400 161.355,233.107 160.500,233.972 159.684 C 241.203 152.857,234.062 141.518,225.639 146.454 M15.400 164.000 C 15.264 164.220,14.263 164.400,13.176 164.400 C 12.089 164.400,11.200 164.580,11.200 164.800 C 11.200 165.020,10.750 165.200,10.200 165.200 C 9.650 165.200,9.200 165.380,9.200 165.600 C 9.200 165.820,8.880 166.000,8.488 166.000 C 8.097 166.000,7.517 166.360,7.200 166.800 C 6.883 167.240,6.387 167.600,6.098 167.600 C 5.416 167.600,2.800 170.216,2.800 170.898 C 2.800 171.187,2.440 171.683,2.000 172.000 C 1.560 172.317,1.200 172.882,1.200 173.255 C 1.200 173.628,0.975 174.008,0.700 174.100 C 0.302 174.233,0.200 189.016,0.200 246.233 L 0.200 318.200 1.073 319.664 C 2.589 322.207,5.345 325.200,6.171 325.200 C 6.420 325.200,6.883 325.560,7.200 326.000 C 7.517 326.440,8.097 326.800,8.488 326.800 C 8.880 326.800,9.200 326.980,9.200 327.200 C 9.200 327.420,9.650 327.600,10.200 327.600 C 10.750 327.600,11.200 327.780,11.200 328.000 C 11.200 328.263,21.000 328.400,39.800 328.400 C 58.600 328.400,68.400 328.263,68.400 328.000 C 68.400 327.780,68.940 327.600,69.600 327.600 C 70.260 327.600,70.800 327.420,70.800 327.200 C 70.800 326.980,71.160 326.800,71.600 326.800 C 72.040 326.800,72.400 326.620,72.400 326.400 C 72.400 326.180,72.579 326.000,72.797 326.000 C 73.656 326.000,77.600 322.174,77.600 321.341 C 77.600 321.043,77.780 320.800,78.000 320.800 C 78.220 320.800,78.400 320.530,78.400 320.200 C 78.400 319.870,78.580 319.600,78.800 319.600 C 79.020 319.600,79.200 319.150,79.200 318.600 C 79.200 318.046,79.432 317.600,79.720 317.600 C 80.456 317.600,82.393 318.541,82.397 318.900 C 82.399 319.065,82.760 319.200,83.200 319.200 C 83.640 319.200,84.000 319.350,84.000 319.532 C 84.000 319.715,84.495 320.120,85.100 320.432 C 85.705 320.744,86.290 321.089,86.400 321.199 C 86.794 321.595,89.013 322.854,89.700 323.071 C 90.085 323.193,90.400 323.412,90.400 323.557 C 90.400 323.702,91.208 324.176,92.196 324.610 C 93.184 325.045,93.994 325.535,93.996 325.700 C 93.998 325.865,94.270 326.000,94.600 326.000 C 94.930 326.000,95.200 326.180,95.200 326.400 C 95.200 326.620,95.470 326.800,95.800 326.800 C 96.130 326.800,96.400 326.980,96.400 327.200 C 96.400 327.420,96.678 327.600,97.017 327.600 C 97.356 327.600,98.020 327.960,98.492 328.400 C 98.964 328.840,99.587 329.200,99.875 329.200 C 100.164 329.200,100.400 329.380,100.400 329.600 C 100.400 329.820,100.678 330.000,101.017 330.000 C 101.356 330.000,102.020 330.360,102.492 330.800 C 102.964 331.240,103.587 331.600,103.875 331.600 C 104.164 331.600,104.400 331.780,104.400 332.000 C 104.400 332.220,104.760 332.400,105.200 332.400 C 105.640 332.400,106.000 332.580,106.000 332.800 C 106.000 333.020,106.360 333.200,106.800 333.200 C 107.240 333.200,107.600 333.380,107.600 333.600 C 107.600 333.820,107.945 334.000,108.367 334.000 C 108.788 334.000,109.193 334.136,109.267 334.302 C 109.340 334.468,110.660 335.207,112.200 335.944 C 113.740 336.681,115.313 337.445,115.695 337.642 C 116.077 337.839,116.662 338.000,116.995 338.000 C 117.328 338.000,117.600 338.141,117.600 338.313 C 117.600 338.485,118.455 338.875,119.500 339.180 C 120.545 339.485,121.670 339.868,122.000 340.030 C 123.011 340.529,126.848 341.600,127.622 341.600 C 128.024 341.600,128.464 341.780,128.600 342.000 C 128.736 342.220,129.467 342.400,130.224 342.400 C 130.981 342.400,131.600 342.580,131.600 342.800 C 131.600 343.020,132.320 343.200,133.200 343.200 C 134.080 343.200,134.800 343.380,134.800 343.600 C 134.800 343.820,135.520 344.000,136.400 344.000 C 137.280 344.000,138.000 344.180,138.000 344.400 C 138.000 344.620,138.900 344.800,140.000 344.800 C 141.100 344.800,142.000 344.980,142.000 345.200 C 142.000 345.426,143.133 345.600,144.600 345.600 C 146.067 345.600,147.200 345.774,147.200 346.000 C 147.200 346.242,148.933 346.400,151.600 346.400 C 154.267 346.400,156.000 346.558,156.000 346.800 C 156.000 347.354,287.458 347.354,287.800 346.800 C 287.937 346.579,289.737 346.400,291.824 346.400 C 294.075 346.400,295.600 346.238,295.600 346.000 C 295.600 345.778,296.659 345.600,297.976 345.600 C 299.283 345.600,300.464 345.420,300.600 345.200 C 300.736 344.980,301.647 344.800,302.624 344.800 C 303.601 344.800,304.400 344.620,304.400 344.400 C 304.400 344.180,305.109 344.000,305.976 344.000 C 306.843 344.000,307.664 343.820,307.800 343.600 C 307.936 343.380,308.577 343.200,309.224 343.200 C 309.871 343.200,310.400 343.020,310.400 342.800 C 310.400 342.580,310.940 342.400,311.600 342.400 C 312.260 342.400,312.800 342.220,312.800 342.000 C 312.800 341.780,313.227 341.600,313.748 341.600 C 315.450 341.600,321.135 339.542,324.895 337.565 C 325.277 337.364,325.862 337.200,326.195 337.200 C 326.528 337.200,326.800 337.020,326.800 336.800 C 326.800 336.580,327.160 336.400,327.600 336.400 C 328.040 336.400,328.400 336.220,328.400 336.000 C 328.400 335.780,328.760 335.600,329.200 335.600 C 329.640 335.600,330.000 335.420,330.000 335.200 C 330.000 334.980,330.236 334.800,330.525 334.800 C 330.813 334.800,331.436 334.440,331.908 334.000 C 332.380 333.560,333.044 333.200,333.383 333.200 C 333.722 333.200,334.000 333.020,334.000 332.800 C 334.000 332.580,334.320 332.400,334.712 332.400 C 335.103 332.400,335.683 332.040,336.000 331.600 C 336.317 331.160,336.831 330.800,337.141 330.800 C 337.452 330.800,337.997 330.484,338.353 330.097 C 338.709 329.711,339.495 329.140,340.100 328.830 C 340.705 328.519,341.200 328.115,341.200 327.932 C 341.200 327.750,341.398 327.600,341.640 327.600 C 341.881 327.600,342.583 327.060,343.200 326.400 C 343.817 325.740,344.526 325.200,344.777 325.200 C 345.246 325.200,345.521 324.999,347.651 323.100 C 348.329 322.495,349.040 322.000,349.229 322.000 C 349.418 322.000,350.164 321.412,350.887 320.693 C 351.609 319.975,352.830 318.947,353.600 318.409 C 354.370 317.871,355.477 316.929,356.060 316.315 C 356.644 315.702,357.243 315.200,357.392 315.200 C 357.541 315.200,358.354 314.480,359.200 313.600 C 360.046 312.720,360.946 312.000,361.200 312.000 C 361.454 312.000,362.354 311.280,363.200 310.400 C 364.046 309.520,364.930 308.800,365.166 308.800 C 365.539 308.800,366.650 307.977,368.153 306.587 C 368.399 306.360,369.230 305.737,370.000 305.202 C 370.770 304.668,371.877 303.729,372.460 303.115 C 373.044 302.502,373.643 302.000,373.792 302.000 C 373.941 302.000,374.754 301.280,375.600 300.400 C 376.446 299.520,377.346 298.800,377.600 298.800 C 377.854 298.800,378.754 298.080,379.600 297.200 C 380.446 296.320,381.300 295.600,381.498 295.600 C 381.696 295.600,382.822 294.700,384.000 293.600 C 385.178 292.500,386.303 291.600,386.499 291.600 C 386.696 291.600,387.082 291.375,387.358 291.100 C 387.633 290.825,388.552 290.060,389.400 289.400 C 391.439 287.813,394.000 285.203,394.000 284.712 C 394.000 284.497,394.540 283.817,395.200 283.200 C 395.860 282.583,396.400 281.791,396.400 281.440 C 396.400 281.088,396.580 280.800,396.800 280.800 C 397.020 280.800,397.200 280.440,397.200 280.000 C 397.200 279.560,397.380 279.200,397.600 279.200 C 397.820 279.200,398.000 278.840,398.000 278.400 C 398.000 277.960,398.180 277.600,398.400 277.600 C 398.620 277.600,398.800 277.075,398.800 276.433 C 398.800 275.792,399.025 275.192,399.300 275.100 C 400.024 274.859,400.024 256.341,399.300 256.100 C 399.025 256.008,398.800 255.408,398.800 254.767 C 398.800 254.125,398.620 253.600,398.400 253.600 C 398.180 253.600,398.000 253.240,398.000 252.800 C 398.000 252.360,397.820 252.000,397.600 252.000 C 397.380 252.000,397.200 251.680,397.200 251.288 C 397.200 250.897,396.840 250.317,396.400 250.000 C 395.960 249.683,395.600 249.184,395.600 248.892 C 395.600 248.172,387.863 240.400,387.147 240.400 C 386.833 240.400,386.317 240.040,386.000 239.600 C 385.683 239.160,385.103 238.800,384.712 238.800 C 384.320 238.800,384.000 238.620,384.000 238.400 C 384.000 238.180,383.640 238.000,383.200 238.000 C 382.760 238.000,382.400 237.820,382.400 237.600 C 382.400 237.380,382.051 237.200,381.624 237.200 C 381.197 237.200,380.736 237.020,380.600 236.800 C 380.464 236.580,379.924 236.400,379.400 236.400 C 378.876 236.400,378.336 236.220,378.200 236.000 C 378.064 235.780,377.254 235.600,376.400 235.600 C 375.546 235.600,374.736 235.420,374.600 235.200 C 374.452 234.961,371.863 234.800,368.176 234.800 C 364.325 234.800,362.000 234.951,362.000 235.200 C 362.000 235.420,361.381 235.600,360.624 235.600 C 359.867 235.600,359.136 235.780,359.000 236.000 C 358.864 236.220,358.313 236.400,357.776 236.400 C 357.239 236.400,356.800 236.580,356.800 236.800 C 356.800 237.020,356.260 237.200,355.600 237.200 C 354.940 237.200,354.400 237.380,354.400 237.600 C 354.400 237.820,354.080 238.000,353.688 238.000 C 353.297 238.000,352.717 238.360,352.400 238.800 C 352.083 239.240,351.586 239.600,351.295 239.600 C 351.004 239.600,350.380 239.960,349.908 240.400 C 349.436 240.840,348.813 241.200,348.525 241.200 C 348.236 241.200,348.000 241.335,347.999 241.500 C 347.999 241.665,346.919 242.520,345.600 243.400 C 344.281 244.280,343.201 245.135,343.201 245.300 C 343.200 245.465,343.002 245.600,342.760 245.600 C 342.519 245.600,341.817 246.140,341.200 246.800 C 340.583 247.460,339.863 248.000,339.600 248.000 C 339.337 248.000,338.617 248.540,338.000 249.200 C 337.383 249.860,336.663 250.400,336.400 250.400 C 336.137 250.400,335.417 250.940,334.800 251.600 C 334.183 252.260,333.463 252.800,333.200 252.800 C 332.937 252.800,332.217 253.340,331.600 254.000 C 330.983 254.660,330.263 255.200,330.000 255.200 C 329.737 255.200,329.017 255.740,328.400 256.400 C 327.783 257.060,327.158 257.600,327.011 257.600 C 326.863 257.600,326.492 257.825,326.185 258.100 C 324.682 259.448,324.316 259.653,323.779 259.447 C 323.450 259.321,323.200 258.702,323.200 258.013 C 323.200 257.346,323.020 256.800,322.800 256.800 C 322.580 256.800,322.400 256.521,322.400 256.181 C 322.400 255.087,320.244 251.022,319.100 249.957 C 318.715 249.599,318.400 249.137,318.400 248.931 C 318.400 248.377,316.008 245.908,314.400 244.802 C 313.630 244.272,312.910 243.716,312.800 243.566 C 312.438 243.071,308.265 241.200,307.525 241.200 C 307.126 241.200,306.800 241.020,306.800 240.800 C 306.800 240.580,306.170 240.400,305.400 240.400 C 304.630 240.400,304.000 240.220,304.000 240.000 C 304.000 239.736,291.400 239.600,267.000 239.600 C 242.600 239.600,230.000 239.464,230.000 239.200 C 230.000 238.980,229.460 238.800,228.800 238.800 C 228.140 238.800,227.600 238.620,227.600 238.400 C 227.600 238.180,227.366 238.000,227.080 238.000 C 226.344 238.000,224.407 237.059,224.403 236.700 C 224.401 236.535,224.223 236.400,224.008 236.400 C 223.671 236.400,216.328 229.375,209.852 222.858 C 208.780 221.779,205.113 218.107,201.703 214.697 C 198.293 211.287,194.603 207.597,193.503 206.497 C 192.403 205.397,188.736 201.730,185.354 198.348 C 177.084 190.080,173.264 186.400,172.953 186.400 C 172.810 186.400,172.403 186.084,172.047 185.697 C 171.691 185.311,170.905 184.740,170.300 184.430 C 169.695 184.119,169.200 183.715,169.200 183.532 C 169.200 183.350,168.840 183.200,168.400 183.200 C 167.960 183.200,167.600 183.020,167.600 182.800 C 167.600 182.580,167.240 182.400,166.800 182.400 C 166.360 182.400,166.000 182.220,166.000 182.000 C 166.000 181.780,165.640 181.600,165.200 181.600 C 164.760 181.600,164.400 181.420,164.400 181.200 C 164.400 180.980,164.040 180.800,163.600 180.800 C 163.160 180.800,162.799 180.665,162.798 180.500 C 162.797 180.335,161.402 179.780,159.698 179.267 C 157.994 178.753,156.287 178.168,155.905 177.967 C 155.523 177.765,154.499 177.600,153.629 177.600 C 152.759 177.600,151.936 177.420,151.800 177.200 C 151.638 176.938,139.196 176.800,115.776 176.800 C 84.242 176.800,80.000 176.729,80.000 176.200 C 80.000 175.870,79.820 175.600,79.600 175.600 C 79.380 175.600,79.200 175.100,79.200 174.488 C 79.200 173.835,78.870 173.139,78.400 172.800 C 77.960 172.483,77.600 171.989,77.600 171.703 C 77.600 171.091,73.407 166.800,72.809 166.800 C 72.584 166.800,72.400 166.620,72.400 166.400 C 72.400 166.180,72.040 166.000,71.600 166.000 C 71.160 166.000,70.800 165.820,70.800 165.600 C 70.800 165.380,70.451 165.200,70.024 165.200 C 69.597 165.200,69.136 165.020,69.000 164.800 C 68.864 164.580,67.874 164.400,66.800 164.400 C 65.726 164.400,64.736 164.220,64.600 164.000 C 64.440 163.740,55.804 163.600,40.000 163.600 C 24.196 163.600,15.560 163.740,15.400 164.000 M63.600 246.461 L 63.600 311.721 40.704 311.430 C 25.780 311.240,17.633 310.993,17.304 310.720 C 16.510 310.061,16.569 182.974,17.364 182.178 C 17.960 181.583,20.814 181.507,50.700 181.293 L 63.600 181.200 63.600 246.461 M149.800 194.000 C 149.936 194.220,150.656 194.400,151.400 194.400 C 152.144 194.400,152.864 194.580,153.000 194.800 C 153.136 195.020,153.552 195.202,153.924 195.205 C 154.933 195.213,160.508 198.156,162.902 199.946 C 164.056 200.809,175.310 211.877,187.911 224.542 C 214.630 251.398,215.472 252.119,222.600 254.275 C 228.359 256.017,227.951 256.000,264.782 256.000 C 288.064 256.000,300.438 256.138,300.600 256.400 C 300.736 256.620,301.164 256.800,301.552 256.800 C 303.355 256.800,307.200 261.575,307.200 263.814 C 307.200 264.330,307.380 264.864,307.600 265.000 C 309.191 265.983,307.363 273.011,304.843 275.600 L 303.480 277.000 250.160 277.000 C 208.037 277.000,196.735 276.895,196.340 276.500 C 196.065 276.225,195.424 276.000,194.915 276.000 C 194.406 276.000,193.677 275.840,193.295 275.644 C 192.913 275.448,191.700 274.864,190.600 274.346 C 188.822 273.509,185.692 271.561,175.200 264.759 C 173.550 263.689,171.983 262.631,171.717 262.407 C 171.451 262.183,171.131 262.000,171.005 262.000 C 170.879 262.000,168.663 260.584,166.080 258.854 C 158.416 253.719,156.848 253.221,153.417 254.834 C 148.779 257.014,147.520 262.101,150.523 266.521 C 151.264 267.611,161.568 274.800,162.389 274.800 C 162.615 274.800,162.800 274.980,162.800 275.200 C 162.800 275.420,163.036 275.600,163.325 275.600 C 163.613 275.600,164.236 275.960,164.708 276.400 C 165.180 276.840,165.654 277.200,165.761 277.200 C 165.869 277.200,168.890 279.118,172.475 281.461 C 180.372 286.623,182.930 288.106,186.000 289.303 C 186.550 289.518,187.313 289.852,187.695 290.047 C 188.077 290.241,188.752 290.400,189.195 290.400 C 189.638 290.400,190.000 290.580,190.000 290.800 C 190.000 291.020,190.619 291.200,191.376 291.200 C 192.133 291.200,192.850 291.357,192.969 291.550 C 193.562 292.510,302.614 293.186,306.200 292.252 C 306.860 292.080,307.760 291.788,308.200 291.603 C 308.640 291.418,309.585 291.028,310.300 290.736 C 311.015 290.444,311.600 290.069,311.600 289.902 C 311.600 289.736,311.836 289.600,312.125 289.600 C 312.413 289.600,312.998 289.281,313.425 288.891 C 313.851 288.501,317.080 286.039,320.600 283.421 C 324.120 280.804,327.090 278.549,327.200 278.412 C 327.310 278.274,328.030 277.729,328.800 277.200 C 329.570 276.671,330.290 276.131,330.400 276.000 C 330.510 275.869,331.230 275.323,332.000 274.786 C 332.770 274.250,333.670 273.585,334.000 273.309 C 334.330 273.032,338.110 270.191,342.400 266.995 C 346.690 263.799,350.470 260.960,350.800 260.686 C 351.130 260.412,352.030 259.750,352.800 259.214 C 353.570 258.677,354.290 258.131,354.400 258.000 C 354.510 257.869,355.230 257.329,356.000 256.800 C 356.770 256.271,357.490 255.728,357.600 255.593 C 359.127 253.717,365.303 251.199,368.366 251.202 C 372.843 251.208,378.400 253.810,378.400 255.902 C 378.400 256.444,378.889 257.351,379.500 257.940 C 380.873 259.263,382.400 262.161,382.400 263.443 C 382.400 263.975,382.620 264.764,382.890 265.195 C 383.277 265.815,383.277 266.083,382.890 266.470 C 382.620 266.740,382.400 267.644,382.400 268.480 C 382.400 269.316,382.220 270.000,382.000 270.000 C 381.780 270.000,381.600 270.297,381.600 270.660 C 381.600 271.358,377.485 275.549,374.921 277.462 C 374.085 278.087,372.923 279.093,372.340 279.699 C 371.756 280.304,371.067 280.800,370.808 280.800 C 370.549 280.800,369.646 281.520,368.800 282.400 C 367.954 283.280,367.090 284.000,366.880 284.000 C 366.669 284.000,365.755 284.720,364.848 285.600 C 363.941 286.480,363.019 287.200,362.800 287.200 C 362.580 287.200,362.400 287.380,362.400 287.600 C 362.400 287.820,362.206 288.000,361.969 288.000 C 361.731 288.000,360.846 288.720,360.000 289.600 C 359.154 290.480,358.351 291.200,358.214 291.200 C 357.944 291.200,357.559 291.503,355.604 293.249 C 354.895 293.882,354.160 294.400,353.971 294.400 C 353.782 294.400,352.997 295.030,352.227 295.800 C 351.457 296.570,350.659 297.200,350.454 297.200 C 350.249 297.200,349.162 298.100,348.039 299.200 C 346.915 300.300,345.839 301.200,345.646 301.200 C 345.454 301.200,344.555 301.920,343.648 302.800 C 342.741 303.680,341.895 304.400,341.768 304.400 C 341.641 304.400,340.846 305.120,340.000 306.000 C 339.154 306.880,338.270 307.600,338.034 307.600 C 337.799 307.600,337.200 307.949,336.703 308.376 C 336.206 308.802,335.367 309.522,334.839 309.976 C 334.310 310.429,333.744 310.800,333.581 310.800 C 333.418 310.800,332.707 311.340,332.000 312.000 C 331.293 312.660,330.582 313.200,330.420 313.200 C 330.257 313.200,329.619 313.634,329.002 314.165 C 328.384 314.696,327.411 315.369,326.839 315.662 C 326.268 315.955,325.509 316.511,325.153 316.897 C 324.797 317.284,324.212 317.600,323.853 317.600 C 323.494 317.600,323.200 317.780,323.200 318.000 C 323.200 318.220,322.840 318.400,322.400 318.400 C 321.960 318.400,321.600 318.580,321.600 318.800 C 321.600 319.020,321.240 319.200,320.800 319.200 C 320.360 319.200,320.000 319.380,320.000 319.600 C 320.000 319.820,319.640 320.000,319.200 320.000 C 318.760 320.000,318.400 320.180,318.400 320.400 C 318.400 320.620,318.040 320.800,317.600 320.800 C 317.160 320.800,316.800 320.980,316.800 321.200 C 316.800 321.420,316.440 321.600,316.000 321.600 C 315.560 321.600,315.200 321.780,315.200 322.000 C 315.200 322.220,314.840 322.400,314.400 322.400 C 313.960 322.400,313.600 322.580,313.600 322.800 C 313.600 323.020,313.161 323.200,312.624 323.200 C 312.087 323.200,311.536 323.380,311.400 323.600 C 311.264 323.820,310.803 324.000,310.376 324.000 C 309.949 324.000,309.600 324.180,309.600 324.400 C 309.600 324.620,309.297 324.800,308.926 324.800 C 307.926 324.800,303.107 325.978,302.305 326.418 C 301.923 326.628,300.978 326.800,300.205 326.800 C 299.432 326.800,298.800 326.980,298.800 327.200 C 298.800 327.420,297.911 327.600,296.824 327.600 C 295.737 327.600,294.736 327.780,294.600 328.000 C 294.464 328.220,293.024 328.400,291.400 328.400 C 289.776 328.400,288.336 328.580,288.200 328.800 C 288.037 329.064,265.537 329.200,222.000 329.200 C 178.463 329.200,155.963 329.064,155.800 328.800 C 155.664 328.580,154.033 328.400,152.176 328.400 C 150.192 328.400,148.800 328.235,148.800 328.000 C 148.800 327.778,147.733 327.600,146.400 327.600 C 145.067 327.600,144.000 327.422,144.000 327.200 C 144.000 326.980,143.201 326.800,142.224 326.800 C 141.247 326.800,140.348 326.639,140.226 326.442 C 140.105 326.245,139.329 325.984,138.503 325.860 C 135.544 325.419,132.400 324.622,132.400 324.314 C 132.400 324.141,131.860 324.000,131.200 324.000 C 130.540 324.000,130.000 323.820,130.000 323.600 C 130.000 323.380,129.460 323.200,128.800 323.200 C 128.140 323.200,127.600 323.020,127.600 322.800 C 127.600 322.580,127.075 322.400,126.433 322.400 C 125.792 322.400,125.207 322.265,125.133 322.100 C 124.941 321.668,121.628 320.000,120.962 320.000 C 120.653 320.000,120.400 319.820,120.400 319.600 C 120.400 319.380,120.051 319.200,119.624 319.200 C 119.197 319.200,118.736 319.020,118.600 318.800 C 118.464 318.580,118.018 318.400,117.610 318.400 C 117.201 318.400,116.807 318.265,116.733 318.100 C 116.566 317.724,114.436 316.425,113.500 316.129 C 113.115 316.007,112.800 315.748,112.800 315.553 C 112.800 315.359,112.440 315.200,112.000 315.200 C 111.560 315.200,111.200 315.020,111.200 314.800 C 111.200 314.580,110.906 314.400,110.547 314.400 C 110.188 314.400,109.603 314.084,109.247 313.697 C 108.891 313.311,108.060 312.726,107.400 312.397 C 106.740 312.069,105.851 311.485,105.425 311.100 C 104.998 310.715,104.500 310.400,104.317 310.400 C 104.134 310.400,103.271 309.950,102.400 309.400 C 101.529 308.850,100.625 308.400,100.391 308.400 C 100.158 308.400,99.580 308.040,99.108 307.600 C 98.636 307.160,98.013 306.800,97.725 306.800 C 97.436 306.800,97.200 306.620,97.200 306.400 C 97.200 306.180,96.880 306.000,96.488 306.000 C 96.097 306.000,95.517 305.640,95.200 305.200 C 94.883 304.760,94.303 304.400,93.912 304.400 C 93.520 304.400,93.200 304.220,93.200 304.000 C 93.200 303.780,92.880 303.600,92.488 303.600 C 92.097 303.600,91.517 303.240,91.200 302.800 C 90.883 302.360,90.393 302.000,90.112 302.000 C 89.830 302.000,89.600 301.820,89.600 301.600 C 89.600 301.380,89.322 301.200,88.983 301.200 C 88.644 301.200,87.980 300.840,87.508 300.400 C 87.036 299.960,86.413 299.600,86.125 299.600 C 85.836 299.600,85.600 299.420,85.600 299.200 C 85.600 298.980,85.280 298.800,84.888 298.800 C 84.497 298.800,83.917 298.440,83.600 298.000 C 83.283 297.560,82.780 297.200,82.483 297.200 C 80.925 297.200,80.800 296.390,80.800 286.278 C 80.800 278.073,80.703 276.418,80.200 276.000 C 79.674 275.563,79.600 270.464,79.600 234.551 L 79.600 193.600 114.576 193.600 C 137.463 193.600,149.638 193.738,149.800 194.000 M36.400 196.000 C 36.400 196.220,36.112 196.400,35.760 196.400 C 34.789 196.400,31.600 199.974,31.600 201.064 C 31.600 201.579,31.420 202.000,31.200 202.000 C 30.980 202.000,30.800 202.979,30.800 204.176 C 30.800 205.373,30.980 206.464,31.200 206.600 C 31.420 206.736,31.600 207.220,31.600 207.677 C 31.600 208.133,31.927 208.797,32.328 209.153 C 32.728 209.509,33.172 210.115,33.315 210.500 C 33.458 210.885,33.811 211.200,34.099 211.200 C 34.387 211.200,34.877 211.552,35.187 211.982 C 36.547 213.869,43.810 212.284,46.108 209.599 C 50.800 204.117,46.863 196.400,39.374 196.400 C 38.424 196.400,37.536 196.220,37.400 196.000 C 37.264 195.780,36.983 195.600,36.776 195.600 C 36.569 195.600,36.400 195.780,36.400 196.000 " stroke="none" fill="#040404" fill-rule="evenodd"></path><path id="path3" d="M255.738 70.306 C 255.484 70.468,256.384 70.617,257.738 70.638 C 260.434 70.679,265.465 71.308,268.600 71.997 C 269.700 72.238,271.097 72.539,271.705 72.664 C 272.313 72.790,272.908 73.051,273.029 73.246 C 273.149 73.441,273.599 73.600,274.029 73.600 C 274.459 73.600,275.123 73.759,275.505 73.953 C 275.887 74.148,276.650 74.489,277.200 74.711 C 291.007 80.300,302.500 91.793,308.089 105.600 C 308.311 106.150,308.652 106.913,308.847 107.295 C 309.041 107.677,309.200 108.341,309.200 108.771 C 309.200 109.201,309.380 109.664,309.600 109.800 C 309.820 109.936,310.000 110.566,310.000 111.200 C 310.000 111.834,310.161 112.452,310.358 112.574 C 310.555 112.695,310.811 113.471,310.928 114.297 C 311.045 115.124,311.372 117.420,311.654 119.400 C 312.502 125.351,312.378 128.684,310.929 138.903 C 310.811 139.729,310.555 140.505,310.358 140.626 C 310.161 140.748,310.000 141.366,310.000 142.000 C 310.000 142.634,309.820 143.264,309.600 143.400 C 309.380 143.536,309.200 143.999,309.200 144.429 C 309.200 144.859,309.035 145.523,308.834 145.905 C 308.632 146.287,308.182 147.275,307.834 148.100 C 301.637 162.770,289.190 174.501,274.600 179.420 C 269.404 181.173,265.144 181.997,259.828 182.277 C 256.296 182.464,255.309 182.624,256.028 182.894 C 262.289 185.246,284.081 177.720,291.800 170.540 C 292.240 170.131,293.410 169.113,294.400 168.279 C 300.259 163.343,307.276 152.632,309.913 144.600 C 311.951 138.393,312.800 133.077,312.800 126.521 C 312.800 119.932,312.052 115.302,309.904 108.600 C 307.364 100.673,300.477 90.089,294.511 84.942 C 293.273 83.874,292.066 82.809,291.830 82.575 C 289.518 80.288,281.659 75.775,276.200 73.600 C 269.728 71.020,257.667 69.079,255.738 70.306 M250.400 80.865 C 245.627 81.646,240.153 83.047,239.420 83.675 C 238.825 84.184,240.186 84.061,242.086 83.434 C 259.801 77.587,280.870 83.990,292.019 98.609 C 293.531 100.591,295.200 103.178,295.200 103.539 C 295.200 103.756,295.344 103.993,295.520 104.067 C 295.696 104.140,296.394 105.370,297.070 106.800 C 311.541 137.369,289.845 171.664,256.000 171.723 C 246.095 171.740,241.956 168.957,242.933 162.938 C 243.096 161.931,243.017 161.695,242.571 161.866 C 240.300 162.738,243.580 169.865,246.943 171.364 C 251.551 173.418,263.387 172.850,271.000 170.209 C 279.284 167.336,288.856 160.348,293.203 154.000 C 293.730 153.230,294.260 152.510,294.381 152.400 C 295.538 151.344,299.417 143.072,300.383 139.600 C 303.854 127.121,302.039 112.328,295.934 103.328 C 295.310 102.408,294.800 101.463,294.800 101.228 C 294.800 100.993,294.659 100.800,294.486 100.800 C 294.314 100.800,293.866 100.281,293.491 99.646 C 291.414 96.130,284.711 89.867,280.200 87.227 C 276.629 85.138,275.957 84.819,272.353 83.497 C 264.930 80.775,256.861 79.808,250.400 80.865 M255.600 97.200 C 255.930 97.413,257.190 97.592,258.400 97.596 C 263.227 97.614,269.123 99.849,274.158 103.569 C 278.031 106.430,282.591 112.896,283.914 117.400 C 285.021 121.171,285.195 122.432,285.184 126.600 C 285.142 141.770,273.737 154.451,259.200 155.491 C 255.651 155.745,254.045 156.370,256.894 156.388 C 258.656 156.399,260.156 156.138,264.200 155.114 C 272.716 152.958,280.352 146.087,283.744 137.529 C 286.893 129.584,286.624 121.623,282.941 113.745 C 279.754 106.927,273.118 100.903,266.305 98.642 C 261.928 97.189,253.913 96.110,255.600 97.200 M236.575 104.100 L 235.400 105.400 236.700 104.225 C 237.415 103.579,238.000 102.994,238.000 102.925 C 238.000 102.616,237.670 102.888,236.575 104.100 M233.775 106.900 L 232.600 108.200 233.900 107.025 C 234.615 106.379,235.200 105.794,235.200 105.725 C 235.200 105.416,234.870 105.688,233.775 106.900 M231.600 109.600 C 231.130 110.260,230.836 110.800,230.946 110.800 C 231.056 110.800,231.530 110.260,232.000 109.600 C 232.470 108.940,232.764 108.400,232.654 108.400 C 232.544 108.400,232.070 108.940,231.600 109.600 M226.501 131.000 C 226.505 131.880,226.587 132.193,226.683 131.695 C 226.779 131.198,226.775 130.478,226.675 130.095 C 226.575 129.713,226.496 130.120,226.501 131.000 M228.900 145.476 C 229.285 145.576,229.915 145.576,230.300 145.476 C 230.685 145.375,230.370 145.293,229.600 145.293 C 228.830 145.293,228.515 145.375,228.900 145.476 M234.025 159.629 C 233.269 160.264,232.765 160.899,232.906 161.039 C 233.047 161.180,233.449 161.008,233.801 160.656 C 234.152 160.305,234.724 159.859,235.071 159.664 C 235.419 159.469,235.635 159.122,235.552 158.893 C 235.468 158.663,234.781 158.994,234.025 159.629 M38.505 196.287 C 39.114 196.379,40.014 196.377,40.505 196.282 C 40.997 196.187,40.500 196.111,39.400 196.114 C 38.300 196.117,37.897 196.195,38.505 196.287 M162.403 199.630 C 162.515 199.723,168.455 205.557,175.603 212.594 L 188.600 225.388 176.600 213.268 C 170.000 206.602,164.060 200.768,163.400 200.303 C 162.740 199.839,162.291 199.536,162.403 199.630 M197.400 234.400 C 200.033 237.040,202.277 239.200,202.387 239.200 C 202.497 239.200,200.433 237.040,197.800 234.400 C 195.167 231.760,192.923 229.600,192.813 229.600 C 192.703 229.600,194.767 231.760,197.400 234.400 M210.600 247.566 C 211.378 248.461,213.600 250.198,213.600 249.912 C 213.600 249.834,212.745 249.067,211.700 248.208 C 210.655 247.349,210.160 247.060,210.600 247.566 M367.100 251.489 C 367.815 251.578,368.985 251.578,369.700 251.489 C 370.415 251.401,369.830 251.328,368.400 251.328 C 366.970 251.328,366.385 251.401,367.100 251.489 M226.400 255.600 C 227.768 256.038,228.819 256.038,227.800 255.600 C 227.360 255.411,226.640 255.262,226.200 255.268 C 225.557 255.277,225.596 255.343,226.400 255.600 M150.400 256.800 C 149.930 257.460,149.636 258.000,149.746 258.000 C 149.856 258.000,150.330 257.460,150.800 256.800 C 151.270 256.140,151.564 255.600,151.454 255.600 C 151.344 255.600,150.870 256.140,150.400 256.800 M244.400 256.293 C 276.280 256.569,300.706 256.572,300.538 256.300 C 300.436 256.135,285.018 256.042,266.276 256.094 C 247.534 256.146,237.690 256.235,244.400 256.293 M303.200 257.725 C 303.200 257.794,303.785 258.379,304.500 259.025 L 305.800 260.200 304.625 258.900 C 303.530 257.688,303.200 257.416,303.200 257.725 M169.600 261.164 C 170.150 261.614,170.780 261.983,171.000 261.985 C 171.428 261.988,170.705 261.434,169.400 260.760 C 168.869 260.485,168.936 260.621,169.600 261.164 M149.038 264.400 C 149.355 265.586,150.478 267.252,151.481 268.023 C 151.911 268.353,151.839 268.169,151.303 267.565 C 150.809 267.009,150.038 265.845,149.589 264.977 C 149.119 264.071,148.885 263.825,149.038 264.400 M307.400 267.800 C 307.400 269.408,307.532 270.516,307.694 270.262 C 308.081 269.654,308.086 265.300,307.700 265.062 C 307.535 264.960,307.400 266.192,307.400 267.800 M180.600 268.207 C 181.040 268.566,181.760 269.035,182.200 269.251 L 183.000 269.644 182.200 268.993 C 181.760 268.634,181.040 268.165,180.600 267.949 L 179.800 267.556 180.600 268.207 M336.785 271.229 L 335.400 272.458 336.900 271.381 C 338.226 270.430,338.657 270.000,338.285 270.000 C 338.222 270.000,337.547 270.553,336.785 271.229 M225.931 277.100 C 240.083 277.158,263.123 277.158,277.131 277.100 C 291.139 277.042,279.560 276.994,251.400 276.994 C 223.240 276.994,211.779 277.042,225.931 277.100 M173.974 282.724 C 174.509 283.159,175.499 283.819,176.174 284.191 L 177.400 284.867 176.426 284.076 C 175.891 283.641,174.901 282.981,174.226 282.609 L 173.000 281.933 173.974 282.724 M320.600 283.435 L 319.400 284.466 320.700 283.606 C 321.415 283.133,322.000 282.668,322.000 282.573 C 322.000 282.273,321.831 282.378,320.600 283.435 M196.000 292.400 C 197.368 292.838,198.419 292.838,197.400 292.400 C 196.960 292.211,196.240 292.062,195.800 292.068 C 195.157 292.077,195.196 292.143,196.000 292.400 " stroke="none" fill="#533d21" fill-rule="evenodd"></path><path id="path4" d="M254.900 70.665 C 254.185 70.767,253.600 71.019,253.600 71.225 C 253.600 71.431,253.330 71.600,253.000 71.600 C 252.670 71.600,252.400 71.780,252.400 72.000 C 252.400 72.220,252.130 72.400,251.800 72.400 C 251.470 72.400,251.200 72.580,251.200 72.800 C 251.200 73.020,250.975 73.200,250.700 73.200 C 250.425 73.201,249.660 73.671,249.000 74.245 C 248.340 74.820,247.176 75.764,246.413 76.345 C 245.025 77.401,243.423 78.955,240.800 81.789 C 239.186 83.534,238.959 83.516,244.600 82.090 C 254.652 79.550,262.702 79.958,272.353 83.497 C 275.957 84.819,276.629 85.138,280.200 87.227 C 284.711 89.867,291.414 96.130,293.491 99.646 C 293.866 100.281,294.314 100.800,294.486 100.800 C 294.659 100.800,294.800 100.993,294.800 101.228 C 294.800 101.463,295.310 102.408,295.934 103.328 C 302.039 112.328,303.854 127.121,300.383 139.600 C 299.417 143.072,295.538 151.344,294.381 152.400 C 294.260 152.510,293.730 153.230,293.203 154.000 C 288.856 160.348,279.284 167.336,271.000 170.209 C 263.387 172.850,251.551 173.418,246.943 171.364 C 243.551 169.852,240.302 162.737,242.600 161.855 C 242.930 161.729,243.200 161.427,243.200 161.184 C 243.200 160.941,242.917 161.026,242.571 161.371 C 241.858 162.085,241.200 162.194,241.200 161.600 C 241.200 161.380,240.840 161.200,240.400 161.200 C 239.960 161.200,239.600 161.020,239.600 160.800 C 239.600 160.580,239.240 160.400,238.800 160.400 C 238.360 160.400,238.000 160.220,238.000 160.000 C 238.000 159.780,237.752 159.600,237.449 159.600 C 236.543 159.600,235.789 158.451,236.337 157.903 C 236.592 157.648,236.800 157.262,236.800 157.044 C 236.800 156.340,235.626 158.176,235.613 158.900 C 235.606 159.285,235.454 159.600,235.275 159.600 C 233.546 159.600,232.897 161.847,234.192 163.352 C 234.737 163.986,235.069 164.689,234.930 164.914 C 234.784 165.149,234.873 165.202,235.138 165.038 C 235.392 164.881,235.600 164.911,235.600 165.104 C 235.600 165.298,236.244 166.208,237.031 167.128 C 237.818 168.048,238.365 168.800,238.245 168.800 C 238.126 168.800,238.427 169.217,238.914 169.726 C 239.401 170.235,239.935 170.584,240.100 170.502 C 240.265 170.420,240.400 170.633,240.400 170.976 C 240.400 171.319,240.553 171.600,240.741 171.600 C 241.263 171.600,243.559 173.907,243.297 174.169 C 243.171 174.296,243.397 174.400,243.800 174.400 C 244.203 174.400,244.422 174.511,244.286 174.648 C 244.042 174.891,244.929 176.000,245.367 176.000 C 245.595 176.000,246.275 176.536,248.537 178.494 C 249.232 179.095,249.927 179.590,250.082 179.594 C 250.237 179.597,250.814 180.050,251.364 180.600 C 251.914 181.150,252.631 181.600,252.958 181.600 C 253.285 181.600,253.680 181.806,253.835 182.057 C 254.892 183.767,271.136 181.163,277.800 178.215 C 289.094 173.219,297.805 165.720,303.908 155.738 C 305.773 152.688,306.368 151.530,307.786 148.200 C 308.161 147.320,308.632 146.287,308.834 145.905 C 309.035 145.523,309.200 144.859,309.200 144.429 C 309.200 143.999,309.380 143.536,309.600 143.400 C 309.820 143.264,310.000 142.634,310.000 142.000 C 310.000 141.366,310.161 140.748,310.358 140.626 C 310.555 140.505,310.811 139.729,310.929 138.903 C 312.378 128.684,312.502 125.351,311.654 119.400 C 311.372 117.420,311.045 115.124,310.928 114.297 C 310.811 113.471,310.555 112.695,310.358 112.574 C 310.161 112.452,310.000 111.834,310.000 111.200 C 310.000 110.566,309.820 109.936,309.600 109.800 C 309.380 109.664,309.200 109.201,309.200 108.771 C 309.200 108.341,309.041 107.677,308.847 107.295 C 308.652 106.913,308.311 106.150,308.089 105.600 C 302.500 91.793,291.007 80.300,277.200 74.711 C 276.650 74.489,275.887 74.148,275.505 73.953 C 275.123 73.759,274.459 73.600,274.029 73.600 C 273.599 73.600,273.149 73.441,273.029 73.246 C 272.908 73.051,272.313 72.790,271.705 72.664 C 271.097 72.539,269.700 72.237,268.600 71.995 C 264.341 71.055,257.096 70.352,254.900 70.665 M252.400 97.150 C 251.193 97.514,255.692 98.031,259.200 97.932 L 261.400 97.871 258.600 97.567 C 257.060 97.400,255.260 97.170,254.600 97.056 C 253.940 96.942,252.950 96.985,252.400 97.150 M248.200 98.000 C 247.696 98.217,247.622 98.344,248.000 98.344 C 248.330 98.344,248.960 98.189,249.400 98.000 C 249.904 97.783,249.978 97.656,249.600 97.656 C 249.270 97.656,248.640 97.811,248.200 98.000 M262.000 98.370 C 262.330 98.600,263.007 98.791,263.505 98.794 C 264.003 98.797,264.723 98.959,265.105 99.153 C 265.487 99.348,266.340 99.731,267.000 100.006 C 270.496 101.461,274.610 104.097,276.460 106.070 C 277.044 106.691,277.664 107.200,277.839 107.200 C 279.226 107.200,271.776 101.591,268.400 100.093 C 264.981 98.577,260.607 97.399,262.000 98.370 M239.793 101.865 C 237.857 103.160,235.071 105.600,235.529 105.600 C 235.711 105.600,236.287 105.147,236.807 104.592 C 237.328 104.038,238.619 103.029,239.677 102.351 C 241.339 101.284,241.906 100.800,241.493 100.800 C 241.434 100.800,240.669 101.279,239.793 101.865 M233.775 107.300 L 232.600 108.600 233.900 107.425 C 234.615 106.779,235.200 106.194,235.200 106.125 C 235.200 105.816,234.870 106.088,233.775 107.300 M279.401 109.525 C 280.193 110.694,281.388 112.854,282.057 114.325 C 282.726 115.796,283.436 117.313,283.636 117.695 C 283.836 118.077,284.000 118.921,284.000 119.571 C 284.000 120.221,284.199 120.876,284.443 121.026 C 284.924 121.324,284.682 119.576,283.941 117.400 C 283.086 114.888,280.715 110.537,279.365 109.000 L 277.960 107.400 279.401 109.525 M227.449 119.015 C 227.312 119.373,227.215 119.966,227.234 120.333 C 227.253 120.700,227.427 120.469,227.621 119.820 C 227.998 118.558,227.865 117.933,227.449 119.015 M284.955 126.600 C 284.956 129.460,285.020 130.578,285.097 129.083 C 285.174 127.589,285.174 125.249,285.096 123.883 C 285.018 122.518,284.955 123.740,284.955 126.600 M226.629 123.100 C 226.355 124.390,226.507 134.426,226.797 134.136 C 226.971 133.962,227.104 122.000,226.932 122.000 C 226.894 122.000,226.758 122.495,226.629 123.100 M284.267 132.267 C 284.120 132.413,284.000 133.046,284.000 133.672 C 284.000 134.298,283.836 135.123,283.636 135.505 C 283.436 135.887,282.717 137.422,282.038 138.915 C 278.898 145.818,272.610 151.448,265.443 153.773 C 265.026 153.908,264.781 154.114,264.898 154.231 C 265.278 154.612,269.847 152.534,272.314 150.858 C 278.381 146.739,283.412 139.603,284.555 133.500 C 284.835 132.008,284.776 131.757,284.267 132.267 M224.317 136.841 C 223.282 137.918,222.510 138.800,222.603 138.800 C 222.967 138.800,225.653 136.248,226.029 135.545 C 226.577 134.522,226.464 134.607,224.317 136.841 M227.600 145.200 C 226.256 145.631,227.708 145.631,229.400 145.200 C 230.478 144.926,230.498 144.894,229.600 144.887 C 229.050 144.883,228.150 145.024,227.600 145.200 M225.000 146.214 C 224.340 146.517,224.081 146.772,224.424 146.782 C 224.766 146.792,225.396 146.536,225.824 146.213 C 226.772 145.496,226.569 145.496,225.000 146.214 M233.600 146.364 C 234.150 146.814,234.780 147.183,235.000 147.185 C 235.428 147.188,234.705 146.634,233.400 145.960 C 232.869 145.685,232.936 145.821,233.600 146.364 M236.240 149.097 C 237.137 150.418,237.241 150.932,237.128 153.461 C 237.058 155.037,237.135 156.242,237.300 156.140 C 238.494 155.396,236.886 147.600,235.538 147.600 C 235.366 147.600,235.681 148.274,236.240 149.097 M262.190 154.816 C 262.021 155.089,262.323 155.138,263.066 154.960 C 264.599 154.592,264.744 154.400,263.490 154.400 C 262.917 154.400,262.332 154.587,262.190 154.816 M253.000 155.567 L 250.600 155.800 252.713 156.116 C 253.875 156.289,255.045 156.289,255.313 156.116 C 255.581 155.942,256.970 155.693,258.400 155.563 L 261.000 155.326 258.200 155.330 C 256.660 155.333,254.320 155.439,253.000 155.567 M248.000 156.000 C 247.205 156.514,248.204 156.514,249.400 156.000 L 250.200 155.656 249.400 155.634 C 248.960 155.622,248.330 155.787,248.000 156.000 M245.842 157.169 C 245.205 157.589,244.333 158.532,243.904 159.266 C 243.449 160.043,243.393 160.266,243.769 159.800 C 245.136 158.107,245.460 157.779,246.415 157.121 C 247.774 156.184,247.272 156.226,245.842 157.169 M79.867 193.867 C 79.429 194.304,79.561 274.520,80.000 275.200 C 80.252 275.590,80.390 261.450,80.394 234.889 L 80.400 193.979 114.700 194.095 C 150.597 194.218,149.588 194.173,154.200 195.830 C 154.749 196.028,154.875 195.987,154.600 195.701 C 152.759 193.785,149.153 193.600,113.696 193.600 C 95.236 193.600,80.013 193.720,79.867 193.867 M155.233 196.152 C 155.664 196.544,159.751 198.436,159.400 198.081 C 158.809 197.482,156.047 196.000,155.521 196.000 C 155.271 196.000,155.142 196.068,155.233 196.152 M160.000 198.567 C 160.000 198.659,160.675 199.138,161.500 199.630 C 162.325 200.122,174.160 211.632,187.800 225.206 C 209.709 247.010,216.005 252.928,216.628 252.306 C 216.722 252.211,215.854 251.537,214.700 250.807 C 213.468 250.028,202.347 239.278,187.800 224.803 C 163.605 200.728,160.000 197.326,160.000 198.567 M363.858 252.252 C 362.790 252.580,362.019 252.952,362.145 253.078 C 362.271 253.204,362.965 253.058,363.687 252.754 C 364.522 252.402,366.455 252.206,368.995 252.217 C 371.192 252.226,372.542 252.109,371.995 251.957 C 370.262 251.474,365.872 251.634,363.858 252.252 M218.800 253.414 C 218.800 253.693,221.706 254.831,222.091 254.703 C 222.282 254.639,221.620 254.284,220.619 253.913 C 219.619 253.542,218.800 253.317,218.800 253.414 M359.893 254.214 C 359.072 254.772,358.400 255.315,358.400 255.420 C 358.400 255.525,359.120 255.135,360.000 254.553 C 361.397 253.628,361.870 253.200,361.493 253.200 C 361.434 253.200,360.714 253.656,359.893 254.214 M375.200 253.357 C 375.200 253.455,375.830 253.924,376.600 254.400 C 377.456 254.929,378.018 255.602,378.046 256.133 C 378.084 256.838,378.128 256.865,378.279 256.281 C 378.382 255.885,378.239 255.288,377.962 254.954 C 377.448 254.335,375.200 253.035,375.200 253.357 M155.300 253.887 C 155.905 253.978,156.895 253.978,157.500 253.887 C 158.105 253.795,157.610 253.720,156.400 253.720 C 155.190 253.720,154.695 253.795,155.300 253.887 M151.907 255.005 C 150.314 256.087,148.382 258.992,148.428 260.235 C 148.444 260.673,148.694 260.351,149.013 259.483 C 149.836 257.241,151.009 255.782,152.592 255.031 C 153.366 254.663,154.000 254.281,154.000 254.181 C 154.000 253.780,153.311 254.051,151.907 255.005 M161.000 255.088 C 161.399 255.492,168.063 259.961,169.200 260.587 C 170.699 261.412,168.720 259.922,165.400 257.725 C 161.364 255.054,160.392 254.472,161.000 255.088 M222.840 254.974 C 223.427 255.560,227.865 256.395,230.120 256.343 L 232.600 256.285 229.400 255.987 C 227.640 255.824,225.930 255.595,225.600 255.478 C 224.456 255.075,222.603 254.736,222.840 254.974 M353.123 259.123 C 350.551 261.035,348.436 262.739,348.423 262.910 C 348.402 263.194,353.932 259.231,355.115 258.114 C 355.398 257.847,356.163 257.313,356.815 256.928 C 357.467 256.543,358.000 256.086,358.000 255.914 C 358.000 255.474,358.268 255.298,353.123 259.123 M298.433 256.547 C 298.525 256.628,299.320 256.804,300.200 256.938 C 301.315 257.107,301.558 257.071,301.000 256.819 C 300.232 256.471,298.090 256.244,298.433 256.547 M303.100 258.197 C 304.583 259.407,306.371 262.264,306.816 264.133 C 307.021 264.992,307.131 265.126,307.159 264.549 C 307.254 262.580,304.648 258.541,302.645 257.552 C 302.180 257.323,302.385 257.613,303.100 258.197 M170.000 260.935 C 170.000 261.093,179.196 267.164,180.400 267.800 C 181.875 268.580,179.903 267.108,176.000 264.516 C 171.706 261.664,170.000 260.646,170.000 260.935 M148.406 263.433 C 148.409 263.855,148.595 264.470,148.818 264.800 C 149.115 265.238,149.152 265.076,148.956 264.200 C 148.627 262.729,148.398 262.410,148.406 263.433 M346.505 264.125 C 345.793 264.606,345.208 265.147,345.205 265.327 C 345.199 265.688,347.435 264.190,347.812 263.581 C 348.134 263.060,347.996 263.117,346.505 264.125 M149.204 265.822 C 149.193 266.907,153.060 269.713,165.800 277.863 C 168.880 279.833,171.895 281.771,172.500 282.169 C 173.105 282.566,173.600 282.807,173.600 282.702 C 173.600 282.598,171.305 281.017,168.500 279.191 C 153.666 269.530,151.051 267.737,150.170 266.619 C 149.641 265.949,149.207 265.590,149.204 265.822 M307.093 268.548 C 306.857 271.660,305.932 274.015,304.401 275.400 C 303.528 276.189,302.809 276.203,250.658 276.403 L 197.800 276.606 250.486 276.703 L 303.172 276.800 304.605 275.542 C 306.571 273.815,308.977 265.600,307.515 265.600 C 307.405 265.600,307.215 266.926,307.093 268.548 M343.305 266.525 C 342.593 267.006,342.008 267.547,342.005 267.727 C 341.999 268.088,344.235 266.590,344.612 265.981 C 344.934 265.460,344.796 265.517,343.305 266.525 M327.074 278.815 C 312.846 289.545,310.571 291.074,307.171 292.192 C 305.672 292.684,305.615 292.737,306.800 292.534 C 308.750 292.201,311.999 290.659,314.062 289.088 C 315.018 288.360,321.605 283.394,328.700 278.054 C 339.944 269.590,341.994 267.981,341.500 268.005 C 341.445 268.008,334.953 272.872,327.074 278.815 M182.600 269.087 C 184.237 270.741,191.309 274.767,193.600 275.350 L 194.600 275.604 193.600 275.136 C 189.912 273.408,187.609 272.166,185.648 270.850 C 182.988 269.063,182.025 268.506,182.600 269.087 M195.600 276.000 C 196.968 276.438,198.019 276.438,197.000 276.000 C 196.560 275.811,195.840 275.662,195.400 275.668 C 194.757 275.677,194.796 275.743,195.600 276.000 M176.400 284.520 C 176.400 284.840,180.617 287.447,182.800 288.477 C 188.275 291.058,191.273 292.043,195.200 292.548 C 197.230 292.809,196.202 292.471,192.400 291.627 C 188.486 290.759,181.752 287.862,178.400 285.605 C 176.953 284.630,176.400 284.330,176.400 284.520 M224.100 293.100 C 239.005 293.158,263.395 293.158,278.300 293.100 C 293.205 293.042,281.010 292.994,251.200 292.994 C 221.390 292.994,209.195 293.042,224.100 293.100 " stroke="none" fill="#625444" fill-rule="evenodd"></path></g></svg>